<svg width="272" height="272" viewBox="0 0 272 272" fill="none" xmlns="http://www.w3.org/2000/svg">
<g clip-path="url(#clip0_147_171)">
<path d="M271.1 0H0V271.1H271.1V0Z" fill="#F4F1DE"/>
<path d="M213.6 226.8H57.5C57.5 226.8 61.5 189.6 71.4 181.6C75.8 178.1 90.5 168.6 104.7 159.7C123.5 147.9 147.5 147.9 166.3 159.7C180.5 168.6 195.2 178 199.6 181.6C209.6 189.6 213.6 226.8 213.6 226.8Z" fill="#3D405B" stroke="#3D405B" stroke-width="1.9903" stroke-miterlimit="10"/>
<path d="M164.4 159.6L164.1 159.8C147.1 172 124.2 171.9 107.2 159.6C109.3 158.7 112.5 157.5 116.5 153C120.5 148.5 119 135.6 119 135.6H152.7C152.7 135.6 151.2 148.5 155.2 153C159.1 157.5 162.3 158.6 164.4 159.6Z" fill="white"/>
<path opacity="0.2" d="M164.4 159.6C136.1 158.8 121.9 139.9 119 135.6L152.6 135.9C152.4 137.9 151.5 148.9 155.1 153C159.1 157.5 162.3 158.6 164.4 159.6Z" fill="#4A4C56"/>
<path d="M164.4 159.6L164.1 159.8C147.1 172 124.2 171.9 107.2 159.6C109.3 158.7 112.5 157.5 116.5 153C120.5 148.5 119 135.6 119 135.6H152.7C152.7 135.6 151.2 148.5 155.2 153C159.1 157.5 162.3 158.6 164.4 159.6Z" stroke="#3D405B" stroke-width="1.9903" stroke-miterlimit="10" stroke-linecap="round" stroke-linejoin="round"/>
<path d="M105.5 104.3C105.3 102.1 103.2 100.3 101 100.2C98.8 100.1 96.7 101.6 95.6 103.6C94.6 105.6 94.6 108 95.4 110.1C96.2 112.2 97.6 114 99.2 115.5C100.3 116.5 101.5 117.3 102.9 117.4C104.3 117.5 105.9 116.6 106.1 115.2C106 115.1 105.5 104.3 105.5 104.3Z" fill="white" stroke="#3D405B" stroke-width="1.9903" stroke-miterlimit="10" stroke-linecap="round" stroke-linejoin="round"/>
<path d="M99.8 103.5C101.8 103.8 103.5 105.3 104 107.3C103.4 108.2 102.6 109.4 102.5 110.4C102.4 111.5 103 112.7 104.1 112.9" fill="white"/>
<path d="M99.8 103.5C101.8 103.8 103.5 105.3 104 107.3C103.4 108.2 102.6 109.4 102.5 110.4C102.4 111.5 103 112.7 104.1 112.9" stroke="#3D405B" stroke-width="1.9903" stroke-miterlimit="10" stroke-linecap="round" stroke-linejoin="round"/>
<path d="M166 104.3C166.2 102.1 168.3 100.3 170.5 100.2C172.7 100.1 174.8 101.6 175.9 103.6C176.9 105.6 176.9 108 176.1 110.1C175.3 112.2 173.9 114 172.3 115.5C171.2 116.5 170 117.3 168.6 117.4C167.2 117.5 165.6 116.6 165.4 115.2C165.5 115.1 166 104.3 166 104.3Z" fill="white" stroke="#3D405B" stroke-width="1.9903" stroke-miterlimit="10" stroke-linecap="round" stroke-linejoin="round"/>
<path d="M171.7 103.5C169.7 103.8 168 105.3 167.5 107.3C168.1 108.2 168.9 109.4 169 110.4C169.1 111.5 168.5 112.7 167.4 112.9" fill="white"/>
<path d="M171.7 103.5C169.7 103.8 168 105.3 167.5 107.3C168.1 108.2 168.9 109.4 169 110.4C169.1 111.5 168.5 112.7 167.4 112.9" stroke="#3D405B" stroke-width="1.9903" stroke-miterlimit="10" stroke-linecap="round" stroke-linejoin="round"/>
<path d="M166.9 88.1C166.9 89 166.9 89.8 166.8 90.7V113.5C166.8 130.6 152.9 144.5 135.8 144.5C118.7 144.5 104.8 130.6 104.8 113.5V90.3H104.9C104.8 89.6 104.8 88.8 104.8 88.1C104.8 70.9 118.7 57 135.9 57C153 57 166.9 71 166.9 88.1Z" fill="white" stroke="#3D405B" stroke-width="1.9903" stroke-miterlimit="10" stroke-linecap="round" stroke-linejoin="round"/>
<path d="M119.7 138.8H152C152 138.8 145.9 143.5 135.6 143.5C126.2 143.6 119.7 138.8 119.7 138.8Z" fill="#3D405B"/>
<path d="M166.9 76.8C167.5 76.2 167.2 86.2 167.2 86.2C167.2 86.2 183.1 93.2 184.2 91C185.3 88.7 182.2 86.7 176.5 83.1C176.6 83.1 166.3 77.4 166.9 76.8Z" fill="#3D405B"/>
<path d="M104.7 84.2V96.6C104.7 96.6 105.8 93.2 107.8 91.2C109.6 89.4 110.9 88.4 110.9 88.4V79.5C110.9 79.6 106.1 79.7 104.7 84.2Z" fill="#3D405B"/>
<path d="M166.8 84.2V96.6C166.8 96.6 165.7 93.2 163.7 91.2C161.9 89.4 160.6 88.4 160.6 88.4V79.5C160.5 79.6 165.3 79.7 166.8 84.2Z" fill="#3D405B"/>
<path d="M153.7 46.1L153.4 46C141.8 43.6 129.8 43.6 118.3 46.1C110.2 46.1 103.7 52.6 103.7 60.7V86.4L104.8 86.2C125.8 81.7 147.5 81.8 168.4 86.4V60.7C168.3 52.6 161.8 46.1 153.7 46.1Z" fill="#E07A5F" stroke="#3D405B" stroke-width="1.9903" stroke-miterlimit="10" stroke-linecap="round" stroke-linejoin="round"/>
<path d="M147 78.2C139.4 76.5 131.6 76.5 124 78.1L123.6 74.2C123.6 69.2 127.7 65.1 132.7 65.1H137.9C142.9 65.1 147 69.2 147 74.2V78.2V78.2Z" fill="#3D405B"/>
<path d="M146.2 78.2V82.6" stroke="#3D405B" stroke-width="1.9903" stroke-miterlimit="10" stroke-linecap="round" stroke-linejoin="round"/>
<path d="M122.7 103.7C123.97 103.7 125 102.67 125 101.4C125 100.13 123.97 99.1 122.7 99.1C121.43 99.1 120.4 100.13 120.4 101.4C120.4 102.67 121.43 103.7 122.7 103.7Z" fill="#3D405B"/>
<path d="M148.5 103.7C149.77 103.7 150.8 102.67 150.8 101.4C150.8 100.13 149.77 99.1 148.5 99.1C147.23 99.1 146.2 100.13 146.2 101.4C146.2 102.67 147.23 103.7 148.5 103.7Z" fill="#3D405B"/>
<path d="M115.5 94.9L116.3 94.3C118.2 92.8 120.6 92.1 123 92.4C124.7 92.6 126.4 93.2 127.9 94.1" stroke="#3D405B" stroke-width="1.9903" stroke-miterlimit="10" stroke-linecap="round" stroke-linejoin="round"/>
<path d="M141.4 127.4C139.5 128.9 137.1 129.6 134.7 129.3C133 129.1 131.3 128.5 129.8 127.6" stroke="#3D405B" stroke-width="1.9903" stroke-miterlimit="10" stroke-linecap="round" stroke-linejoin="round"/>
<path d="M139.7 117.5C139.2 118.9 137.7 120 136.7 120.5C136 120.9 135.2 120.9 134.5 120.5C133.5 119.9 132 118.9 131.5 117.5C131.5 117.5 134.3 118.4 135.6 118.4C136.9 118.4 139.7 117.5 139.7 117.5Z" fill="#3D405B"/>
<path d="M155.7 94.9L154.9 94.3C153 92.8 150.6 92.1 148.2 92.4C146.5 92.6 144.8 93.2 143.3 94.1" stroke="#3D405B" stroke-width="1.9903" stroke-miterlimit="10" stroke-linecap="round" stroke-linejoin="round"/>
<path d="M155.7 94.9L154.9 94.3C153 92.8 150.6 92.1 148.2 92.4C146.5 92.6 144.8 93.2 143.3 94.1" stroke="#3D405B" stroke-width="1.9903" stroke-miterlimit="10" stroke-linecap="round" stroke-linejoin="round"/>
<path d="M134.6 168.8C134.6 168.8 114.2 141.6 107.4 145.3C100.6 149.1 101 161.2 101 161.2L134.6 168.8Z" fill="#3D405B" stroke="#3D405B" stroke-width="1.9903" stroke-miterlimit="10"/>
<path d="M135.8 168.8C135.8 168.8 156.2 141.6 163 145.3C169.8 149 169.4 161.2 169.4 161.2L135.8 168.8Z" fill="#3D405B" stroke="#3D405B" stroke-width="1.9903" stroke-miterlimit="10"/>
<path d="M122.5 207.8C122 207.8 121.5 207.4 121.5 206.8V169.3C121.5 168.8 121.9 168.3 122.5 168.3C123 168.3 123.5 168.7 123.5 169.3V206.8C123.5 207.3 123.1 207.8 122.5 207.8Z" fill="white"/>
<path d="M125.1 208.2H120L120.8 204C120.9 203.1 121.7 202.5 122.5 202.5C123.4 202.5 124.1 203.2 124.2 204L125.1 208.2Z" fill="white"/>
<path d="M122.7 171.2C121 171.2 119.6 169.8 119.6 168.1C119.6 166.4 121 165 122.7 165C124.4 165 125.8 166.4 125.8 168.1C125.9 169.8 124.5 171.2 122.7 171.2ZM122.7 166.9C122.1 166.9 121.5 167.4 121.5 168.1C121.5 168.7 122 169.3 122.7 169.3C123.3 169.3 123.9 168.8 123.9 168.1C123.9 167.5 123.4 166.9 122.7 166.9Z" fill="white"/>
<path d="M147.1 207.8C146.6 207.8 146.1 207.4 146.1 206.8V169.3C146.1 168.8 146.5 168.3 147.1 168.3C147.7 168.3 148.1 168.7 148.1 169.3V206.8C148.1 207.3 147.7 207.8 147.1 207.8Z" fill="white"/>
<path d="M149.7 208.2H144.6L145.4 204C145.5 203.1 146.3 202.5 147.1 202.5C148 202.5 148.7 203.2 148.8 204L149.7 208.2Z" fill="white"/>
<path d="M146.7 171.2C145 171.2 143.6 169.8 143.6 168.1C143.6 166.4 145 165 146.7 165C148.4 165 149.8 166.4 149.8 168.1C149.9 169.8 148.5 171.2 146.7 171.2ZM146.7 166.9C146.1 166.9 145.5 167.4 145.5 168.1C145.5 168.7 146 169.3 146.7 169.3C147.3 169.3 147.9 168.8 147.9 168.1C147.9 167.5 147.4 166.9 146.7 166.9Z" fill="white"/>
</g>
<defs>
<clipPath id="clip0_147_171">
<rect width="271.1" height="271.1" fill="white"/>
</clipPath>
</defs>
</svg>
