<svg width="272" height="272" viewBox="0 0 272 272" fill="none" xmlns="http://www.w3.org/2000/svg">
<g clip-path="url(#clip0_147_299)">
<path d="M271.1 0H0V271.1H271.1V0Z" fill="#F4F1DE"/>
<path d="M213.6 225.4H57.5C57.5 225.4 61.5 188.2 71.4 180.2C73.4 178.6 77.5 175.8 82.7 172.4C84.1 171.5 88.2 168.8 87.2 169.4C99.9 174.9 116.4 178 134 178H137.2C154.8 178 171.3 174.8 184 169.4C183.7 169.2 188.8 172.7 190.4 173.8C194.6 176.6 197.8 178.8 199.5 180.2C209.6 188.2 213.6 225.4 213.6 225.4Z" fill="#3D405B" stroke="#3D405B" stroke-width="1.9903" stroke-miterlimit="10" stroke-linecap="round" stroke-linejoin="round"/>
<path d="M106.6 55.9C103.3 56.9 100.6 59.3 98.4999 62.1C93.7999 68.6 92.7 77 92.9 84.9C93.3 99.9 91.8999 100.2 90.9999 108.2C89.8999 119.1 82.3999 123.4 84.5999 134.1C86.2999 142.5 92.9 150 101.3 151.6C109.7 153.1 122 149.8 123.6 141.4C124.8 135.1 119.2 126.7 116.8 120.8C111.7 107.7 108.9 101.6 108.6 87.5C108.4 80.4 108.9 73.3 110 66.3C110.3 64.2 113.3 59.7 112 57.7C110.4 55.1 109 55.2 106.6 55.9Z" fill="#3D405B"/>
<path d="M162.7 102.3C163.2 99.7999 161.4 97.1999 159.1 95.8999C156.7 94.5999 153.9 94.1999 151.2 93.8999C146.7 93.3999 142.1 92.8999 137.8 91.3999C133.5 89.8999 129.4 87.3999 127.1 83.6999C125.5 81.1999 124.8 78.1999 123.5 75.5999C122.2 72.8999 120 70.3999 116.9 69.7999C113.8 69.2999 110.3 71.8999 111.1 74.7999C107.2 64.4999 112.9 50.4999 123.9 46.8999C131.6 44.2999 140.3 46.0999 147.7 49.3999C165 57.0999 177.6 73.5999 179.9 91.5999C180.8 98.3999 180.3 105.5 182.2 112.1C184.2 119.1 188.8 125.2 191.8 131.9C194.8 138.6 196 146.9 191.5 152.8C187.9 157.6 181.3 159.6 175.1 159.8C168.1 160 161.1 158 155.3 154.3C148.5 150 148.9 139 151 131.5C152.4 126.4 156.3 122.3 159.4 118C162.2 113.6 161.7 107.4 162.7 102.3Z" fill="#3D405B"/>
<path d="M164 158.3C155.9 154.5 154.2 150.3 154.2 150.3C151.1 144.4 152.9 134 152.9 134H135.8H118.7C118.7 134 120.4 144.4 117.4 150.3C117.4 150.3 115.7 154.5 107.6 158.3C103.3 160.3 88.2999 168.9 87.2999 169.5C99.9999 175 116.5 178.1 134 178.1H135.4H136.1H137.5C155 178.1 171.5 174.9 184.2 169.5C183.4 168.9 168.4 160.3 164 158.3Z" fill="white" stroke="#3D405B" stroke-width="1.989" stroke-miterlimit="10" stroke-linecap="round" stroke-linejoin="round"/>
<path opacity="0.2" d="M164.1 158C135.8 157.2 122.2 139.2 119.3 134.9L121.7 137.5C124.9 141 129.4 143.1 134.1 143.1H135.4H135.8H137C141.7 143.1 146.3 141 149.5 137.5L152.4 134.3C152.2 136.3 151.3 147.3 154.9 151.4C158.8 155.9 162 157.1 164.1 158Z" fill="#4A4C56"/>
<path d="M106.3 102.8C105.9 100.6 103.7 99 101.4 99.1C99.1999 99.2 97.1999 100.8 96.2999 102.9C95.4999 105 95.6999 107.4 96.5999 109.4C97.4999 111.4 99.0999 113.1 100.9 114.4C102 115.3 103.4 116 104.8 116C106.2 116 107.7 115 107.8 113.5C107.8 113.5 106.3 102.8 106.3 102.8Z" fill="white" stroke="#3D405B" stroke-width="1.9903" stroke-miterlimit="10" stroke-linecap="round" stroke-linejoin="round"/>
<path d="M100.6 102.5C102.6 102.6 104.5 104 105.1 105.9C104.6 106.8 103.9 108.1 103.9 109.2C103.9 110.3 104.6 111.5 105.7 111.5" fill="white"/>
<path d="M100.6 102.5C102.6 102.6 104.5 104 105.1 105.9C104.6 106.8 103.9 108.1 103.9 109.2C103.9 110.3 104.6 111.5 105.7 111.5" stroke="#3D405B" stroke-width="1.9903" stroke-miterlimit="10" stroke-linecap="round" stroke-linejoin="round"/>
<path d="M164.9 103C165.3 100.8 167.5 99.2 169.8 99.3C172 99.4 174 101 174.9 103.1C175.7 105.2 175.5 107.6 174.6 109.6C173.7 111.6 172.1 113.3 170.3 114.6C169.2 115.5 167.8 116.2 166.4 116.2C165 116.2 163.5 115.2 163.4 113.7C163.4 113.6 164.9 103 164.9 103Z" fill="white" stroke="#3D405B" stroke-width="1.9903" stroke-miterlimit="10" stroke-linecap="round" stroke-linejoin="round"/>
<path d="M170.6 102.6C168.6 102.7 166.7 104.1 166.1 106C166.6 106.9 167.3 108.2 167.3 109.3C167.3 110.4 166.6 111.6 165.5 111.6" fill="white"/>
<path d="M170.6 102.6C168.6 102.7 166.7 104.1 166.1 106C166.6 106.9 167.3 108.2 167.3 109.3C167.3 110.4 166.6 111.6 165.5 111.6" stroke="#3D405B" stroke-width="1.9903" stroke-miterlimit="10" stroke-linecap="round" stroke-linejoin="round"/>
<path d="M170.8 89.4C170.8 92.9 170.3 96.3 169.3 99.5C169.2 99.9 169.1 100.2 169 100.5L168.4 102.1V102.2L161.4 121.5C159.2 127.5 155.7 132.9 151.1 137.3C149.3 139.1 147.1 140.5 144.8 141.4C142.5 142.3 140 142.9 137.4 143H135.7H134C131.4 142.9 128.9 142.4 126.6 141.4C124.3 140.4 122.1 139 120.3 137.3C115.7 132.9 112.1 127.5 110 121.5L102.8 101.7L102.4 100.7V100.6C102.3 100.2 102.1 99.8 102 99.4C101 96.2 100.5 92.8 100.5 89.3C100.5 69.9 116.3 54.1 135.7 54.1C155 54.2 170.8 69.9 170.8 89.4Z" fill="white" stroke="#3D405B" stroke-width="1.9903" stroke-miterlimit="10" stroke-linecap="round" stroke-linejoin="round"/>
<path d="M179.1 90.3C177.2 92.5 174.9 94.5 172.6 96.1C169.6 98.2 167.1 106.7 164.5 112.2C164.9 109.7 160.4 95.6 152.3 93.8C148.1 92.9 143.7 92.8 139.6 91.3C135.5 89.9 129.4 86.8 126 77.5C124.4 73.1 117.3 70.6 114.1 73.4L112.1 59.2C114.3 53.9 121.2 48.5 126.4 46.7C133.7 44.1 141.9 45.9 149 49.2C164.8 56.9 176.5 72.8 179.1 90.3Z" fill="#3D405B"/>
<path d="M169.4 97.1L169 98.1C169.1 97.8 169.2 97.4 169.4 97.1Z" fill="white" stroke="#3D405B" stroke-width="1.9903" stroke-miterlimit="10" stroke-linecap="round" stroke-linejoin="round"/>
<path d="M121.7 97.7C121.7 97.8 121.7 97.9 121.6 98C121.3 99.1 120.5 99.7 119.7 99.8C119 99.9 118.2 99.6 117.5 99C117.1 98.6 116.9 98.3 117.1 98.5C118.2 99 119.7 98.5 120.9 97.9L121.7 97.7Z" fill="#3D405B"/>
<path d="M121.9 102.3C123.17 102.3 124.2 101.27 124.2 100C124.2 98.7297 123.17 97.7 121.9 97.7C120.63 97.7 119.6 98.7297 119.6 100C119.6 101.27 120.63 102.3 121.9 102.3Z" fill="#3D405B"/>
<path d="M147.9 97.7C147.9 97.8 147.9 97.9 148 97.9C148.3 98.8 149.1 99.3 150 99.5C150.7 99.6 151.5 99.4 152.1 98.9C152.5 98.6 152.7 98.4 152.4 98.5C151.3 98.9 149.8 98.4 148.6 97.9L147.9 97.7Z" fill="#3D405B"/>
<path d="M147.7 102.3C148.97 102.3 150 101.27 150 100C150 98.7297 148.97 97.7 147.7 97.7C146.43 97.7 145.4 98.7297 145.4 100C145.4 101.27 146.43 102.3 147.7 102.3Z" fill="#3D405B"/>
<path d="M114.7 93.5L115.5 92.9C117.4 91.4 119.8 90.7 122.2 91C123.9 91.2 125.6 91.8 127.1 92.7" stroke="#3D405B" stroke-width="1.9903" stroke-miterlimit="10" stroke-linecap="round" stroke-linejoin="round"/>
<path d="M140.6 126C138.7 127.5 136.3 128.2 133.9 127.9C132.2 127.7 130.5 127.1 129 126.2" stroke="#3D405B" stroke-width="1.9903" stroke-miterlimit="10" stroke-linecap="round" stroke-linejoin="round"/>
<path d="M138.9 116.1C138.4 117.5 136.9 118.6 135.9 119.1C135.2 119.5 134.4 119.5 133.7 119.1C132.7 118.5 131.2 117.5 130.7 116.1C130.7 116.1 133.5 117 134.8 117C136.2 117.1 138.9 116.1 138.9 116.1Z" fill="#3D405B"/>
<path d="M154.9 93.5L154.1 92.9C152.2 91.4 149.8 90.7 147.4 91C145.7 91.2 144 91.8 142.5 92.7" stroke="#3D405B" stroke-width="1.9903" stroke-miterlimit="10" stroke-linecap="round" stroke-linejoin="round"/>
<path d="M154.9 93.5L154.1 92.9C152.2 91.4 149.8 90.7 147.4 91C145.7 91.2 144 91.8 142.5 92.7" stroke="#3D405B" stroke-width="1.9903" stroke-miterlimit="10" stroke-linecap="round" stroke-linejoin="round"/>
<path d="M112.8 60.5L112.2 74.1C108.7 75.2 107.9 83.4 107.9 89.5C107.9 91.6 107 93.5 105.5 94.9L106.2 110.9L102.2 98.3C102.4 97.6 98.7 98.8 97.5 99.9C94.5 91.3 93.5 82 94.7 73C95.1 70.3 95.7 67.6 97 65.2C101.1 56.8 107.5 55.8 112.8 60.5Z" fill="#3D405B"/>
</g>
<defs>
<clipPath id="clip0_147_299">
<rect width="271.1" height="271.1" fill="white"/>
</clipPath>
</defs>
</svg>
