<svg width="158" height="133" viewBox="0 0 158 133" fill="none" xmlns="http://www.w3.org/2000/svg">
<path fill-rule="evenodd" clip-rule="evenodd" d="M155.416 93.2313C155.342 93.5488 155.157 93.7048 154.844 93.7804C154.326 93.905 153.758 93.9244 153.23 93.9886C152.265 94.1065 151.267 94.1554 150.32 94.3846C149.434 94.5988 148.548 94.9192 147.748 95.3592C148.009 94.1061 148.306 92.8888 148.196 91.5982C148.115 90.6504 148.093 89.2227 147.137 88.6748C146.915 88.5479 146.565 88.5959 146.319 88.5825C145.999 88.5654 145.679 88.5504 145.358 88.5327C144.725 88.4977 144.095 88.4311 143.464 88.3692C142.22 88.2473 140.984 88.0961 139.747 87.914C139.542 87.884 139.175 87.9065 139.038 87.7288C138.937 87.5982 138.985 87.3917 138.993 87.2448C139.019 86.7375 138.999 86.2317 138.936 85.7275C138.798 84.6242 138.494 83.5386 138.154 82.4827C137.982 81.949 137.798 81.4194 137.624 80.8861C137.54 80.6284 137.346 80.2767 137.624 80.0921C137.798 79.9769 138.101 79.9777 138.303 79.9273C138.543 79.8675 138.777 79.789 139.012 79.7117C139.566 79.529 140.12 79.3438 140.674 79.159C142.78 78.4565 144.904 77.8004 147.004 77.0842C147.297 76.984 147.589 76.879 147.883 76.7788C148.01 76.7357 148.231 76.6242 148.368 76.6842C148.528 76.7548 148.497 76.9315 148.612 77.0367C148.713 77.1284 148.94 77.1352 149.07 77.2098C149.398 77.3996 149.604 77.7306 149.862 77.9977C150.193 78.3415 150.564 78.6434 150.891 78.9934C152.212 80.4061 153.19 82.1069 154.018 83.8463C154.241 84.3148 154.386 84.7994 154.525 85.2979C154.657 85.7696 154.825 86.2306 154.9 86.7163C155.074 87.8502 155.08 89.0171 155.22 90.1584C155.337 91.1148 155.642 92.2729 155.416 93.2313ZM147.023 90.6698C147.021 91.4252 146.981 92.1854 146.816 92.9248C146.646 93.6869 146.338 94.4167 146.064 95.1456C145.805 95.8334 145.596 96.5425 145.296 97.2136C145 97.8757 144.62 98.4792 144.383 99.1667C143.895 100.576 143.061 101.813 142.47 103.174C141.867 104.565 141.195 105.893 140.445 107.212C140.088 107.839 139.757 108.533 139.306 109.098C139.083 109.378 138.827 109.658 138.568 109.906C138.342 110.123 138.234 109.958 137.961 110.007C137.563 110.078 137.358 110.595 137.1 110.861C136.613 111.365 136.114 111.863 135.58 112.317C135.032 112.782 134.427 113.17 133.866 113.618C133.33 114.045 132.795 114.431 132.182 114.743C130.972 115.358 129.581 116.113 128.185 116.049C127.543 116.019 127.199 115.6 126.93 115.041C126.645 114.45 126.741 113.74 126.789 113.105C126.846 112.344 127.03 111.672 127.435 111.026C127.835 110.39 127.441 109.994 127.043 109.464C126.154 108.279 124.97 107.356 123.89 106.355C123.332 105.838 122.78 105.316 122.227 104.793C121.922 104.504 121.617 104.215 121.312 103.926C121.089 103.714 120.874 103.571 120.793 103.273C121.401 102.945 122.034 102.665 122.594 102.255C123.737 101.417 124.786 100.395 125.864 99.474C126.382 99.0313 126.791 98.4827 127.207 97.9475C127.608 97.4309 128.068 96.9431 128.414 96.3859C129.159 95.1871 130.009 94 130.599 92.7146C130.894 92.074 131.046 91.4204 131.2 90.7363C131.293 90.3242 131.4 89.9154 131.504 89.5063C131.571 89.2425 131.59 88.7879 131.759 88.57C132.07 88.1686 133.046 88.8169 133.403 88.9309C134.076 89.1452 134.777 89.2471 135.473 89.355C136.949 89.5836 138.436 89.779 139.903 90.0625C140.671 90.2111 141.442 90.3757 142.221 90.4534C142.977 90.5288 143.737 90.4896 144.495 90.484C144.657 90.4825 144.855 90.5115 144.964 90.3623C145.026 90.2769 144.985 90.1709 145.084 90.0911C145.214 89.9871 145.384 90.0429 145.534 90.059C145.837 90.0913 146.141 90.1098 146.444 90.1475C146.575 90.1638 146.835 90.1417 146.947 90.2107C147.064 90.2834 147.024 90.5027 147.023 90.6698ZM125.776 110.949C125.422 111.662 125.218 112.66 125.207 113.45C125.202 113.874 125.258 114.297 125.345 114.711C125.42 115.073 125.627 115.489 125.562 115.853C124.666 115.438 123.785 114.992 122.871 114.617C122.082 114.294 121.488 113.73 120.839 113.195C120.141 112.621 119.509 111.98 118.839 111.375C118.119 110.726 117.369 110.112 116.637 109.477C115.334 108.346 114.24 107.076 113.171 105.725C112.231 104.537 110.883 103.023 110.946 101.416C110.976 100.67 111.03 99.8221 111.395 99.1548C111.699 98.6004 112.247 97.9788 112.76 97.6079C113.253 97.2515 113.738 98.1473 114.015 98.4619C114.612 99.1394 115.221 99.8059 115.827 100.475C116.979 101.749 118.073 103.086 119.319 104.27C120.575 105.463 121.859 106.63 123.212 107.711C123.889 108.253 124.635 108.758 125.25 109.371C125.475 109.596 125.913 109.844 126.064 110.125C126.225 110.428 125.902 110.694 125.776 110.949ZM156.605 93.3617C156.415 93.3371 156.424 93.3627 156.408 93.1763C156.382 92.8873 156.48 92.5461 156.509 92.2565C156.649 90.8786 156.583 89.4346 156.462 88.0565C156.227 85.3494 155.67 82.6879 154.257 80.3398C153.604 79.2559 152.867 78.2336 151.942 77.3648C151.516 76.9646 151.1 76.5334 150.628 76.1859C150.392 76.0113 150.048 75.9232 149.832 75.7444C149.716 75.6477 149.664 75.4509 149.566 75.3275C149.174 74.8352 148.731 74.7081 148.106 74.7613C147.457 74.8165 146.777 75.0202 146.151 75.1942C144.819 75.5642 143.541 76.1934 142.251 76.6898C140.955 77.1884 139.673 77.7196 138.395 78.2621C137.84 78.4977 137.169 78.6829 136.676 79.0386C136.378 79.2536 136.29 79.5204 136.322 79.8779C136.435 81.1411 136.903 82.3954 137.259 83.6038C137.642 84.9013 137.953 86.2231 138.051 87.5756C136.73 87.4788 135.418 87.3781 134.104 87.2119C133.446 87.1286 132.785 87.0604 132.129 86.97C131.79 86.9234 131.632 86.7965 131.359 86.62C131.119 86.4652 130.996 86.5963 130.894 86.8317C130.362 88.055 130.153 89.3896 129.577 90.604C129.319 91.1494 128.996 91.6586 128.728 92.1986C128.435 92.7857 128.083 93.3634 127.716 93.9065C127.546 94.1586 127.328 94.3627 127.139 94.599C126.964 94.8179 126.839 95.07 126.678 95.2992C126.343 95.7779 125.937 96.1998 125.525 96.6127C125.112 97.0269 124.712 97.4475 124.317 97.8792C123.929 98.3038 123.466 98.6484 123.056 99.0492C122.671 99.4263 122.335 99.8369 121.939 100.206C121.558 100.563 121.379 101.057 120.969 101.377C120.748 101.55 120.502 101.689 120.282 101.863C120.1 102.007 119.911 102.258 119.652 102.21C119.366 102.156 119.135 101.77 118.956 101.571C118.725 101.315 118.493 101.06 118.259 100.806C117.34 99.8098 116.397 98.8329 115.47 97.8429C115.017 97.3588 114.519 96.9196 114.077 96.4246C113.755 96.0638 113.228 95.8069 112.778 96.0538C112.323 96.3027 111.777 96.5225 111.409 96.8963C111.01 97.3013 110.692 97.8277 110.367 98.2925C110.029 98.7765 109.895 99.3482 109.806 99.9236C109.712 100.537 109.614 101.144 109.66 101.766C109.749 102.945 109.968 104.259 110.648 105.251C110.972 105.724 111.416 106.079 111.813 106.486C112.243 106.927 112.55 107.458 112.905 107.958C113.617 108.962 114.49 109.861 115.382 110.706C115.807 111.109 116.288 111.449 116.716 111.853C117.172 112.285 117.634 112.674 118.148 113.033C118.675 113.4 119.11 113.878 119.586 114.305C120.076 114.744 120.577 115.154 121.117 115.531C122.151 116.254 123.203 116.724 124.406 117.088C125.731 117.488 127.014 118.012 128.332 118.431C128.963 118.631 129.588 118.354 130.189 118.151C130.803 117.944 131.404 117.699 131.969 117.38C133.114 116.733 134.214 115.983 135.341 115.302C136.512 114.594 137.491 113.781 138.386 112.745C139.239 111.757 140.142 110.775 140.919 109.726C142.496 107.595 143.45 105.073 144.62 102.713C145.243 101.458 145.873 100.223 146.391 98.9194C146.645 98.2782 146.873 97.6252 147.133 96.9863C147.243 96.7154 147.334 96.6102 147.629 96.5642C147.97 96.5109 148.318 96.4873 148.66 96.4465C150.014 96.2848 151.335 96.0448 152.677 95.8127C153.922 95.5977 155.174 95.3752 156.288 94.7417C156.522 94.6084 156.803 94.4517 156.93 94.2025C156.988 94.0888 157.131 93.5121 157.05 93.4198C157.003 93.3657 156.685 93.3723 156.605 93.3617Z" fill="black"/>
<path fill-rule="evenodd" clip-rule="evenodd" d="M101.17 7.7323C101.602 7.50436 102.043 7.29409 102.483 7.08034C103.414 6.62699 104.33 6.14296 105.272 5.71165C105.698 5.51651 106.143 5.39209 106.581 5.22819C107.046 5.05434 107.49 4.82469 107.936 4.60865C108.874 4.15413 109.833 3.76251 110.807 3.3933C111.105 3.28022 111.404 3.16903 111.703 3.05824C111.933 2.9733 112.212 2.81017 112.451 2.78219C112.829 2.73772 113.114 3.12455 113.372 3.35728C114.765 4.61286 115.748 6.4744 116.347 8.23472C116.673 9.1953 116.822 10.1871 116.996 11.1832C117.174 12.2039 117.364 13.203 117.371 14.2411C117.378 15.2963 117.486 16.3367 117.439 17.3944C117.422 17.789 117.493 18.4983 117.276 18.8423C117.056 19.1906 116.506 19.2879 116.151 19.4167C114.213 20.1204 112.277 20.8781 110.311 21.4975C108.265 22.1415 106.223 22.7963 104.183 23.459C104.266 22.8777 104.363 22.2969 104.429 21.7136C104.49 21.1642 104.444 20.5956 104.439 20.0435C104.429 18.8304 104.389 17.624 104.146 16.4317C103.704 14.2668 102.99 12.1351 101.793 10.2663C101.512 9.82847 101.178 9.42917 100.844 9.03159C100.725 8.88936 100.326 8.55274 100.34 8.33382C100.359 8.04686 100.963 7.84136 101.17 7.7323ZM124.426 7.49709C124.874 7.51759 125.163 7.62053 125.194 8.10015C125.234 8.71147 125.225 9.33063 125.247 9.9433C125.289 11.1151 125.331 12.2873 125.3 13.4601C125.246 15.5145 125.028 17.5658 124.4 19.5292C124.096 20.4781 123.733 21.411 123.341 22.3265C122.96 23.2148 122.422 24.0135 121.945 24.8502C121.711 25.2617 121.447 25.596 121.124 25.9417C120.971 26.1056 120.901 26.1929 120.684 26.2211C120.464 26.2492 120.188 26.1923 119.967 26.1765C118.93 26.1017 117.893 25.9985 116.853 25.9483C115.823 25.8988 114.788 25.9423 113.759 25.8944C113.276 25.8717 112.82 25.7144 112.345 25.6377C111.866 25.5604 111.382 25.5265 110.901 25.4721C110.652 25.444 110.659 25.5027 110.621 25.2767C110.601 25.1563 110.635 25.0006 110.642 24.8773C110.654 24.6398 110.666 24.4021 110.681 24.1648C110.694 23.9527 110.651 23.5802 110.737 23.3794C110.813 23.2008 110.977 23.1698 111.148 23.1229C112.106 22.8596 113.032 22.5335 113.954 22.1613C114.894 21.7817 115.846 21.4231 116.776 21.0173C117.177 20.8425 117.629 20.6823 117.932 20.3525C118.181 20.0819 118.324 19.7342 118.434 19.3881C119.04 17.4848 118.85 15.2912 118.673 13.3305C118.49 11.315 118.203 9.24667 117.466 7.35196C119.784 7.35196 122.11 7.39051 124.426 7.49709ZM98.5437 9.23959C99.1877 9.4813 99.5935 10.0447 99.9688 10.5878C100.436 11.2648 100.877 11.9494 101.242 12.6882C102.011 14.2405 102.518 15.951 102.807 17.6569C103.084 19.2852 103.222 21.1013 102.903 22.7348C102.818 23.1717 102.596 23.5221 102.471 23.9361C102.388 24.2142 102.446 24.6185 102.521 24.895C102.629 25.2915 103.002 25.1563 103.313 25.0921C103.767 24.9983 104.222 24.9056 104.675 24.8098C106.384 24.4485 108.077 23.82 109.818 23.6929C109.669 24.1565 109.586 24.5771 109.287 24.9744C109.007 25.346 108.635 25.6681 108.474 26.1158C108.339 26.489 108.314 27.0113 108.45 27.39C108.593 27.7875 108.944 27.7931 109.312 27.8379C110.347 27.9635 111.365 28.1342 112.408 28.1913C112.633 28.2033 112.856 28.2285 113.078 28.186C113.256 28.1517 113.381 28.0983 113.561 28.1317C113.8 28.1756 114.01 28.2908 114.26 28.3165C114.496 28.3406 114.734 28.3331 114.97 28.3242C115.843 28.2915 116.698 28.3827 117.572 28.2973C117.827 28.2725 118.306 28.1277 118.544 28.2735C118.795 28.4277 118.598 28.7388 118.723 28.9527C118.889 29.234 119.456 29.0898 119.73 29.0746C120.121 29.0531 120.468 28.9838 120.819 28.8029C121.528 28.4373 122.169 27.9506 122.691 27.3435C123.237 26.7083 123.633 25.9667 124.023 25.2298C124.431 24.4619 124.839 23.7117 125.147 22.8958C125.461 22.0623 125.77 21.2025 125.948 20.3281C126.126 19.455 126.239 18.5681 126.407 17.6925C126.582 16.7791 126.613 15.8482 126.659 14.9216C126.707 13.9608 126.728 13.0167 126.668 12.0558C126.609 11.1119 126.505 10.186 126.395 9.24801C126.367 9.00822 126.381 8.75997 126.343 8.52247C126.317 8.36297 126.234 8.21153 126.225 8.04955C126.207 7.72751 126.502 7.52046 126.494 7.18367C126.476 6.40136 125.646 6.11017 125.028 5.92309C124.226 5.67984 123.331 5.53319 122.491 5.59357C120.686 5.72353 118.841 5.7404 117.128 6.40059C116.241 4.8774 115.414 3.22501 113.962 2.15669C113.798 2.03592 113.621 1.95369 113.515 1.77561C113.424 1.62282 113.384 1.46965 113.263 1.33203C112.965 0.993486 112.598 0.951507 112.181 1.04007C111.273 1.23253 110.406 1.4434 109.545 1.78767C109.163 1.94047 108.758 2.01234 108.374 2.16167C108.005 2.30507 107.652 2.48507 107.298 2.66007C106.522 3.04347 105.719 3.36897 104.944 3.75542C103.387 4.53178 101.848 5.34551 100.414 6.33697C99.7219 6.81601 98.9281 7.31134 98.3411 7.91938C98.0828 8.18717 97.9657 8.52494 98.0087 8.89453C98.0534 9.27888 98.25 9.12917 98.5437 9.23959Z" fill="black"/>
<path fill-rule="evenodd" clip-rule="evenodd" d="M39.1328 15.5905C39.2087 14.5989 39.1779 13.6046 39.2497 12.6135C39.3181 11.672 39.508 10.7131 39.6927 9.78756C39.8805 8.84627 40.2219 8.01064 40.6057 7.13679C40.8174 6.65481 41.0221 6.16958 41.2274 5.68473C41.3526 5.38735 41.4443 5.07923 41.7917 4.99989C42.2421 4.89712 42.7858 4.98048 43.249 4.96396C43.717 4.94725 44.1848 4.91902 44.6514 4.87752C45.6657 4.78723 46.6735 4.63875 47.6858 4.53348C48.6556 4.43281 49.6145 4.37383 50.5719 4.17367C51.0647 4.07071 51.5533 3.95027 52.0419 3.83C52.4082 3.7401 52.9156 3.51016 53.2839 3.59756C52.8284 4.63662 52.6865 5.74581 52.6753 6.87035C52.6711 7.31352 52.6187 7.49487 52.158 7.46758C51.5831 7.43358 51.0058 7.37558 50.434 7.30969C49.3549 7.18502 48.2843 6.98714 47.2145 6.80158C46.7074 6.7136 46.2204 6.58835 45.7229 6.47808C45.3697 6.4001 45.2211 6.54033 45.103 6.86344C45.0179 7.09723 44.9905 7.2025 44.7714 7.33446C44.5925 7.44223 44.4164 7.54444 44.2516 7.67448C43.9583 7.90596 43.7058 8.18412 43.4899 8.48898C43.0106 9.16458 42.7034 9.95854 42.422 10.7327C41.7148 12.681 41.3586 14.8 41.2929 16.8691C41.2596 17.9212 41.0864 18.9526 41.0749 20.0082C41.0695 20.4734 41.1881 21.0723 40.8001 21.4104C40.4207 21.7414 39.9334 21.9789 39.5101 22.2502C39.139 21.1856 39.0433 20.0564 39.0321 18.9361C39.0204 17.8192 39.0475 16.7039 39.1328 15.5905ZM54.8342 9.95583C55.2977 10.0794 55.7634 10.1887 56.2308 10.2972C55.436 12.2051 55.4639 14.3157 55.4037 16.3495C55.3771 17.259 55.4015 18.1709 55.4907 19.0765C55.5826 20.0028 55.7904 20.8871 55.9772 21.7952C56.018 21.9935 56.1158 22.3187 55.9853 22.5006C55.8408 22.7021 55.3673 22.8108 55.162 22.9037C54.3473 23.2716 53.5452 23.6708 52.7138 24.001C51.8709 24.3358 50.9954 24.5366 50.1713 24.9256C49.3647 25.3062 48.5474 25.6552 47.7075 25.956C46.8823 26.2519 46.0259 26.4687 45.2295 26.8408C44.474 27.1935 43.8504 27.6783 43.2085 28.2012C42.8182 26.9873 42.6662 25.7523 42.5957 24.48C42.5281 23.2623 42.4284 21.9946 42.5526 20.7796C42.609 20.2252 42.6092 19.7096 42.5982 19.1545C42.5882 18.6577 42.7028 18.1706 42.7423 17.6763C42.8293 16.5871 42.8257 15.4992 42.973 14.4142C43.2519 12.3623 43.805 10.1902 44.9212 8.43117C44.9923 8.31898 45.0618 8.13802 45.16 8.05523C45.3254 7.91594 45.2667 7.94208 45.4843 8.05425C45.6873 8.15856 45.8874 8.2696 46.0969 8.36085C46.5368 8.55256 47.0075 8.63689 47.4664 8.76752C47.9747 8.91217 48.4359 9.13385 48.9636 9.21587C49.4747 9.29521 49.9941 9.30481 50.505 9.38531C50.7874 9.42987 51.0466 9.52344 51.3216 9.59373C51.5454 9.65098 51.7646 9.63581 52.0001 9.66058C52.4552 9.70881 52.8983 9.83635 53.3547 9.87766C53.8678 9.92414 54.3248 9.82023 54.8342 9.95583ZM38.017 18.8145C38.1743 20.0706 38.5096 21.301 38.9988 22.4683C39.1558 22.8437 39.3331 23.3691 39.7824 23.4729C40.1967 23.5685 40.6988 23.2635 41.0893 23.1564C41.3955 24.9794 41.5294 26.8733 42.3415 28.5629C42.444 28.7762 42.5792 29.1737 42.7902 29.3135C43.0057 29.4562 43.2675 29.3169 43.4824 29.235C44.3847 28.8925 45.3168 28.6733 46.2506 28.4362C46.7059 28.3206 47.17 28.2179 47.6145 28.0633C47.9835 27.9348 48.3323 27.7804 48.719 27.7104C49.5271 27.5639 50.278 27.2991 51.0506 27.026C52.672 26.4523 54.3021 25.9329 55.7985 25.0714C56.5126 24.6604 57.2617 24.2577 57.9211 23.7612C58.4619 23.3541 59.067 22.7439 58.802 22.0048C58.7219 21.7812 58.5024 21.4112 58.2497 21.3431C58.0126 21.2787 57.7996 21.4937 57.5826 21.5433C57.2546 21.6183 57.3282 21.3533 57.2977 21.0946C57.2737 20.8906 57.2486 20.6869 57.2238 20.4829C57.1722 20.0549 57.1213 19.6265 57.083 19.1969C56.9251 17.4175 56.9994 15.6393 56.9977 13.857C56.9971 12.9647 57.2032 12.1825 57.4112 11.3228C57.5213 10.8668 57.6242 10.4088 57.7212 9.94989C57.7748 9.69477 57.8374 9.41471 57.7636 9.15652C57.5982 8.57773 56.7751 8.41771 56.2878 8.25289C55.8689 8.11112 55.4435 7.98798 55.0098 7.90114C54.772 7.85371 54.137 7.89079 53.9833 7.69081C53.831 7.49294 53.9995 6.85056 54.0149 6.61506C54.0434 6.18129 54.0733 5.74791 54.1303 5.31666C54.2223 4.62106 54.2123 3.976 53.6581 3.46733C54.0036 3.19148 54.2491 2.60614 53.7465 2.352C53.1685 2.05944 52.3951 2.01698 51.7846 2.17048C51.1169 2.33835 50.3841 2.34048 49.7002 2.41385C48.9726 2.49167 48.247 2.58635 47.5209 2.67819C46.2718 2.83648 44.9994 2.87125 43.7655 3.12521C43.1475 3.25219 42.5291 3.34881 41.9063 3.44735C41.2613 3.54916 40.8723 3.63579 40.4863 4.18098C39.7545 5.21504 39.0789 6.27466 38.6679 7.48181C38.2789 8.62537 38.0973 9.82694 37.9891 11.0266C37.8728 12.3196 37.8466 13.609 37.8612 14.9064C37.8758 16.2111 37.8543 17.5166 38.017 18.8145Z" fill="black"/>
<path fill-rule="evenodd" clip-rule="evenodd" d="M11.776 69.9154C11.85 69.7898 12.0745 69.759 12.1926 69.7115C12.3791 69.6367 12.5558 69.5431 12.7294 69.4427C13.5988 68.9402 14.447 68.4269 15.2503 67.8217C15.4473 67.6734 15.9313 67.1286 16.2165 67.2146C16.3563 67.2571 16.4324 67.4894 16.4929 67.6027C16.599 67.8023 16.7091 67.9986 16.8289 68.1902C17.3019 68.9467 17.8914 69.6254 18.5497 70.2263C19.7872 71.3554 21.1972 72.0848 22.8948 72.1721C21.7986 73.6644 20.7509 75.2231 19.5057 76.5975C18.8775 77.2913 18.1884 77.9184 17.5361 78.5877C17.4246 78.7019 17.3647 78.7704 17.2181 78.8361C17.076 78.8994 16.9408 78.92 16.8235 79.0369C16.6194 79.2404 16.6048 79.5434 16.6508 79.8121C15.4922 79.8567 14.2378 79.3371 13.1865 78.9111C12.5694 78.6609 11.9606 78.3823 11.3811 78.0534C10.9872 77.83 10.5466 77.5806 10.258 77.2219C11.3204 76.6556 12.3946 76.1173 13.4127 75.4725C14.108 75.0325 15.3364 74.5186 15.2372 73.5027C15.2216 73.3448 15.1596 73.1509 15.0198 73.0594C14.813 72.9244 14.766 73.0838 14.578 73.1246C14.2726 73.1906 13.9121 72.7867 13.6791 72.6129C13.0492 72.1425 12.4338 71.6231 12.0601 70.9175C11.9483 70.7063 11.632 70.1604 11.776 69.9154ZM5.30495 78.9109C5.47724 78.3484 4.67231 77.9152 4.31699 77.6446C3.78404 77.2386 3.41337 76.7888 3.05478 76.2213C1.65622 74.0073 1.1607 71.3106 1.27536 68.7219C1.30706 68.0034 1.38849 67.2863 1.40501 66.5673C1.41364 66.1942 1.38945 65.8465 1.47107 65.4779C1.54828 65.1296 1.64047 64.785 1.72574 64.4386C1.89628 63.7475 1.98367 63.0396 2.18726 62.3567C2.37624 61.724 2.63379 61.1138 2.93551 60.5269C3.13661 60.1352 3.32386 59.5861 3.84933 59.6611C4.5058 59.7552 5.14765 60.0938 5.78703 60.2704C6.49496 60.4661 7.21094 60.6294 7.9258 60.7977C8.6172 60.9604 9.29306 61.1915 9.9891 61.3319C10.353 61.4054 10.7128 61.4354 11.0834 61.429C11.245 61.4263 11.5354 61.4106 11.5511 61.6321C11.5686 61.8744 11.1973 62.1375 11.0448 62.2858C10.8295 62.4954 10.6715 62.6927 10.5537 62.9711C10.2733 63.6338 10.0192 64.325 9.91534 65.0398C9.81431 65.735 9.83159 66.4661 9.82392 67.1677C9.80836 68.5827 10.0087 69.9379 10.5157 71.2634C10.9749 72.4627 11.6944 73.2898 12.6793 74.0908C11.6502 74.604 10.6211 75.1177 9.5919 75.63C8.66465 76.0915 7.7272 76.4898 6.93458 77.1717C6.60826 77.4525 6.22222 77.7767 5.98925 78.1427C5.6981 78.6002 6.10775 78.9113 6.54201 78.7284C7.02003 78.5271 7.48963 78.2971 7.95748 78.0736C8.2619 77.9281 8.77009 77.5386 9.1252 77.5484C9.42693 77.5567 9.54159 77.9431 9.67584 78.1573C9.89094 78.4998 10.1591 78.805 10.4546 79.0802C11.0758 79.659 11.804 80.1429 12.57 80.5075C13.415 80.9098 14.3275 81.1846 15.2497 81.3421C15.7528 81.4279 16.2641 81.4731 16.7742 81.454C17.1569 81.4396 17.699 81.4386 18.0445 81.2515C18.3417 81.0902 18.1857 80.7617 18.4802 80.5931C18.7902 80.4161 19.1182 80.2838 19.4177 80.0846C20.1252 79.6144 20.5451 79.0081 20.9603 78.2829C21.9136 76.6177 23.0731 75.0959 23.7863 73.3009C23.9531 72.8804 24.0486 72.3846 24.3215 72.0177C24.5031 71.7738 24.9087 71.6286 24.9528 71.3086C24.9957 70.9956 24.87 70.3038 24.5597 70.1592C24.2007 69.9921 23.6792 69.9896 23.2896 69.8988C21.5972 69.5029 20.0183 68.9004 18.6693 67.7788C18.3317 67.4984 18.0143 67.1946 17.7146 66.8746C17.4922 66.6373 17.2592 66.3875 17.3048 66.0373C17.3451 65.7261 17.5943 65.2717 17.0858 65.1844C16.7446 65.1259 16.2756 65.3059 15.9975 65.4817C15.1642 66.0086 14.3899 66.6425 13.5944 67.2244C12.8688 67.755 12.1255 68.2602 11.3882 68.7742C11.4743 67.5529 11.4345 66.2292 11.7247 65.0369C11.8667 64.4546 12.1142 63.9054 12.4323 63.399C12.7592 62.8792 13.0198 62.3348 13.3056 61.7927C13.4646 61.8852 13.7246 62.0919 13.87 61.8456C13.9605 61.6927 13.8971 61.2902 13.8629 61.1142C13.6098 59.8106 11.6329 59.68 10.6137 59.4575C9.14768 59.1377 7.6836 58.7509 6.19976 58.5238C5.51449 58.4188 4.835 58.3979 4.1453 58.3559C3.79152 58.3342 3.37917 58.2554 3.16503 58.614C3.10762 58.7102 3.09934 58.8473 3.03673 58.924C2.97932 58.9944 2.81204 59.0629 2.73328 59.1265C2.50493 59.3104 2.30768 59.5271 2.13501 59.7636C1.78144 60.2475 1.53905 60.8044 1.30494 61.3529C0.740278 62.6756 0.419551 64.08 0.243431 65.504C0.0629007 66.9636 -0.0629022 68.4727 0.0331142 69.9429C0.209817 72.6494 0.944063 75.4023 2.64609 77.5652C3.03635 78.0611 3.46156 78.4671 4.02391 78.7625C4.29607 78.9054 5.15131 79.4115 5.30495 78.9109Z" fill="black"/>
<path fill-rule="evenodd" clip-rule="evenodd" d="M24.6955 110.754C24.168 111.434 23.6413 112.106 23.17 112.827C22.6959 113.553 22.2437 114.292 21.7797 115.025C21.3322 115.731 20.8324 116.417 20.4725 117.174C20.2649 117.611 20.2448 118.186 19.6746 118.166C18.9212 118.139 18.2075 117.923 17.5436 117.57C16.2132 116.863 15.1057 115.87 14.2749 114.609C13.4128 113.302 12.7436 111.823 12.2589 110.335C11.9908 109.513 11.7759 108.674 11.5818 107.832C11.4831 107.404 11.3775 106.985 11.3768 106.544C11.3762 106.35 11.3882 106.156 11.3983 105.962C11.4076 105.779 11.5096 105.459 11.299 105.447C11.3619 104.92 11.4221 104.393 11.4867 103.866C11.5334 103.486 11.5303 103.059 11.8633 102.808C12.1819 102.566 12.6818 102.558 13.0571 102.473C13.5111 102.37 13.9614 102.25 14.4066 102.113C15.32 101.833 16.194 101.461 17.0756 101.095C17.5155 100.913 17.9559 100.727 18.3712 100.491C18.7145 100.296 18.9605 100.014 19.1931 100.458C20.7773 103.481 21.9346 106.87 24.5281 109.217C24.7379 109.406 25.0812 109.634 25.1119 109.945C25.1417 110.248 24.863 110.538 24.6955 110.754ZM26.781 108.617C26.4153 108.366 25.9617 108.324 25.5908 108.092C25.1656 107.826 24.8842 107.227 24.5938 106.828C23.9007 105.875 23.2062 104.916 22.5805 103.917C22.0122 103.01 21.498 102.07 20.9522 101.149C20.6726 100.678 20.3839 100.218 20.0544 99.7798C19.9142 99.5934 19.5586 98.9344 19.2588 98.959C19.1041 98.9717 19.1103 99.1223 18.9994 99.1709C18.9422 99.1956 18.8967 99.1684 18.8409 99.1761C18.6402 99.2029 18.4222 99.1013 18.2154 99.1213C17.7046 99.1711 17.1515 99.3861 16.6598 99.5344C15.6334 99.8446 14.6546 100.281 13.6455 100.639C12.6451 100.995 11.5279 101.232 10.6136 101.785C10.2525 102.003 9.8448 102.352 10.1994 102.78C10.3339 102.942 10.5183 102.938 10.6581 103.063C10.7763 103.169 10.7237 103.228 10.6964 103.404C10.6808 103.505 10.6648 103.606 10.6492 103.707C10.4855 104.769 10.3516 105.832 10.4992 106.903C10.6486 107.986 10.8751 109.065 11.1781 110.114C12.1345 113.429 13.8453 117.363 17.2072 118.833C17.9931 119.176 18.7748 119.257 19.6039 119.412C19.8645 119.46 20.0854 119.579 20.3172 119.699C20.428 119.756 20.5651 119.849 20.6984 119.832C21.0028 119.795 21.253 119.321 21.3951 119.097C21.9317 118.251 22.5408 117.458 23.098 116.626C23.3863 116.195 23.6594 115.754 23.8955 115.292C24.0324 115.025 24.1304 114.582 24.5064 114.592C24.6077 114.728 24.7092 114.863 24.8105 114.999C24.8513 115.053 24.9125 115.114 24.9422 115.175C25.0169 115.328 25.0111 115.214 24.9801 115.395C24.9401 115.627 24.7261 115.889 24.5909 116.071C23.7998 117.142 22.974 118.187 22.1447 119.228C21.3299 120.251 20.4977 121.267 19.543 122.164C19.3497 122.345 19.1382 122.566 18.8557 122.579C18.5949 122.59 18.3091 122.453 18.0501 122.408C17.4872 122.309 16.9092 122.287 16.3604 122.116C16.075 122.028 15.8365 121.862 15.5409 121.842C15.2923 121.825 15.123 121.784 14.905 121.652C14.4119 121.354 13.8638 121.19 13.3652 120.908C12.337 120.327 11.2745 119.464 10.5208 118.553C10.1302 118.081 9.80975 117.555 9.42643 117.078C9.05397 116.613 8.68626 116.151 8.36047 115.651C7.71804 114.665 7.20688 113.597 6.81822 112.486C6.61627 111.909 6.51567 111.532 7.01789 111.11C7.49152 110.711 7.93504 110.295 8.32961 109.817C8.52145 109.583 9.39708 108.728 8.7415 108.585C8.38639 108.508 7.8194 109.108 7.55249 109.325C7.11792 109.68 6.69192 110.023 6.18912 110.277C5.61987 110.564 5.60938 110.929 5.61758 111.525C5.63472 112.754 6.09177 113.953 6.5656 115.075C7.05275 116.228 7.66641 117.324 8.40047 118.337C9.8048 120.276 11.3756 122.243 13.5588 123.328C14.6381 123.864 15.804 124.147 16.9967 124.281C17.701 124.36 18.411 124.388 19.119 124.37C19.4179 124.363 19.8086 124.403 20.0952 124.312C20.3278 124.238 20.3658 124.065 20.4499 123.854C20.6493 123.354 21.1706 123.082 21.523 122.681C21.8995 122.253 22.2943 121.849 22.6814 121.431C23.5201 120.525 24.0752 119.459 24.7492 118.436C25.1219 117.87 25.5253 117.317 25.8506 116.721C26.1137 116.238 26.4409 115.604 26.5326 115.06C26.6054 114.625 26.2566 113.994 25.7767 113.97C25.5265 113.958 25.326 114.155 25.0795 114.18C25.0054 114.188 24.7529 114.137 24.6645 114.173C25.0676 113.193 25.6652 112.269 26.1183 111.315C26.3739 110.776 26.616 110.231 26.8409 109.68C27.0119 109.26 27.2153 108.915 26.781 108.617Z" fill="black"/>
<path fill-rule="evenodd" clip-rule="evenodd" d="M33.2311 30.9731C34.0232 32.805 35.2966 34.2652 36.5971 35.7521C37.2852 36.5389 37.9876 37.2535 38.822 37.8866C39.5987 38.4758 40.3847 39.051 41.1689 39.6298C40.382 40.6425 39.498 41.5685 38.6212 42.5048C37.8112 43.3696 37.004 44.2535 36.4702 45.3216C36.4149 44.8104 36.0835 44.4944 35.6369 44.2858C35.0795 44.0258 34.5669 43.7429 34.0827 43.3594C33.0551 42.5456 32.0989 41.5758 31.2238 40.6025C29.4439 38.6227 28.3097 36.1327 27.0728 33.8041C29.1255 32.8606 31.1785 31.9171 33.2311 30.9731ZM26.6522 35.5944C26.9528 36.4406 27.3886 37.2554 27.7871 38.0594C28.1799 38.8516 28.5869 39.6391 29.0458 40.3958C29.9176 41.8339 30.9832 43.1741 32.3423 44.1829C33.0075 44.6766 33.7208 45.1687 34.4609 45.545C34.8107 45.7225 35.1945 45.8577 35.5926 45.835C35.8364 45.821 36.1738 45.6048 36.3629 45.7977C36.5565 45.9952 36.4923 46.3906 36.8989 46.1989C37.2326 46.0412 37.5261 45.7058 37.7715 45.4429C38.3964 44.7737 39.0239 44.1008 39.6238 43.4094C40.2052 42.7391 40.6828 41.9756 41.1737 41.2385C41.4445 40.8316 41.7126 40.4229 41.9814 40.0144C42.1736 39.7221 42.4473 39.4296 42.433 39.0594C42.4055 38.3371 41.5211 37.8473 41.0185 37.4456C40.4026 36.9531 39.8306 36.4473 39.306 35.8581C38.7479 35.231 38.045 34.706 37.4412 34.1173C36.7853 33.4785 36.1931 32.7837 35.6055 32.0835C35.139 31.5275 34.6766 30.9577 34.2814 30.3491C33.9725 29.8733 33.624 29.5083 33.0065 29.5964C32.5233 29.7085 32.0386 29.7881 31.5729 29.966C31.1047 30.1448 30.6539 30.3706 30.1988 30.5806C29.374 30.9608 28.6152 31.4419 27.814 31.8646C27.6324 31.9604 27.4525 32.0594 27.2877 32.1825C27.1968 32.2502 27.1047 32.381 27.0079 32.4296C26.9364 32.4654 26.8871 32.4573 26.8051 32.4804C26.4804 32.5716 26.3581 32.7531 26.1957 33.0385C25.9348 33.4975 25.9421 33.7441 26.1809 34.2144C26.3991 34.6441 26.491 35.141 26.6522 35.5944Z" fill="black"/>
<path fill-rule="evenodd" clip-rule="evenodd" d="M146.138 116.569C146.577 116.039 146.866 115.277 147.185 114.666C147.527 114.013 147.844 113.408 147.989 112.68C148.059 112.33 148.101 111.972 148.18 111.624C148.256 111.295 148.363 111.005 148.333 110.662C148.3 110.303 148.134 109.223 147.59 109.342C147.274 109.412 147.337 109.751 147.335 109.998C147.333 110.282 147.3 110.564 147.217 110.836C147.02 111.479 146.551 112.045 146.253 112.647C145.966 113.232 145.625 113.764 145.195 114.253C144.78 114.724 144.317 115.17 143.831 115.566C143.405 115.914 142.89 116.177 142.579 116.649C142.393 116.932 142.362 117.016 142.021 117.094C141.745 117.157 141.486 117.258 141.254 117.423C140.992 117.609 140.805 117.833 140.497 117.955C140.23 118.062 139.947 118.126 139.677 118.226C139.052 118.457 138.507 118.846 137.869 119.065C137.539 119.178 137.203 119.275 136.869 119.375C136.602 119.455 136.286 119.51 136.065 119.691C135.694 119.995 135.486 120.77 135.81 121.174C136.16 121.609 136.98 121.337 137.435 121.282C137.441 121.311 137.446 121.341 137.452 121.371C138.218 121.216 139.017 121.125 139.761 120.885C140.155 120.757 140.508 120.575 140.868 120.374C141.172 120.204 141.484 120.144 141.81 120.035C142.101 119.938 142.334 119.791 142.516 119.539C142.748 119.216 142.847 119.312 143.206 119.234C143.783 119.107 144.28 118.451 144.676 118.055C145.16 117.572 145.702 117.094 146.138 116.569Z" fill="black"/>
<path fill-rule="evenodd" clip-rule="evenodd" d="M78.5604 26.7698C78.695 26.5564 79.1643 26.3633 79.38 26.2244C79.6745 26.0348 79.9647 25.841 80.2488 25.636C80.7636 25.2637 81.1233 25.5083 81.5801 25.865C82.4242 26.5233 82.763 27.4077 82.6998 28.4539C82.7018 28.7596 82.784 29.271 82.549 29.5227C82.3243 29.7639 81.8578 29.7402 81.5609 29.8002C81.1724 29.8792 80.5856 30.3714 80.1833 30.2275C79.8305 30.101 79.9553 29.4706 79.9272 29.1925C79.874 28.6731 79.7013 28.1704 79.3827 27.7508C79.2188 27.5352 79.0224 27.3519 78.8065 27.1879C78.6415 27.0623 78.4267 26.9817 78.5604 26.7698ZM77.0133 28.3417C77.3456 28.3996 77.6884 28.5539 77.9992 28.6802C78.2053 28.7639 78.4753 28.8425 78.6419 28.991C78.9184 29.2377 78.8063 29.6267 78.8705 29.9494C78.9082 30.1381 79.0049 30.3006 78.9352 30.4967C78.8541 30.7256 78.6145 30.765 78.493 30.9508C78.3154 31.2231 78.5446 31.6079 78.6981 31.8402C78.9644 32.2433 79.3278 32.0375 79.7384 31.9771C80.233 31.9042 80.7412 31.8842 81.2175 31.721C81.6056 31.5883 81.9276 31.2806 82.2236 31.6898C82.3341 31.8427 82.3568 31.9775 82.5741 31.9202C82.7549 31.8725 82.9386 31.6269 83.0627 31.501C83.8359 30.7169 84.0202 29.6456 84.0329 28.5887C84.0699 27.415 83.6441 26.3123 83.0405 25.3204C82.9136 25.1119 82.7863 24.8712 82.5968 24.7094C82.4123 24.5517 82.1721 24.4896 82.0052 24.3054C81.7562 24.0308 81.8139 23.4748 81.4168 23.3537C80.9987 23.2258 80.3973 23.7337 80.0807 23.9512C79.6348 24.2573 79.1986 24.5762 78.7697 24.9044C77.8501 25.6071 76.8233 26.28 75.9921 27.0835C75.7103 27.3562 75.5953 27.8379 75.8779 28.1633C76.161 28.4889 76.6449 28.2773 77.0133 28.3417Z" fill="black"/>
<path fill-rule="evenodd" clip-rule="evenodd" d="M14.6639 130.586C14.1499 130.754 13.7681 130.883 13.2086 130.83C12.8166 130.792 12.4288 130.712 12.0381 130.663C11.0307 130.537 10.0702 130.258 9.1456 129.843C8.30509 129.465 7.51794 129.01 6.82407 128.403C6.45796 128.084 6.12712 127.732 5.802 127.373C5.56899 127.115 5.35391 126.921 4.99219 126.875C5.086 127.396 5.19583 127.807 5.44429 128.281C5.64375 128.661 5.872 129.026 6.12845 129.37C6.65263 130.074 7.296 130.686 8.02307 131.181C8.73756 131.668 9.54128 132.081 10.3839 132.295C10.8541 132.414 11.3356 132.485 11.8117 132.576C12.2613 132.663 12.6986 132.75 13.1577 132.687C13.5873 132.628 14.0402 132.613 14.4584 132.491C14.7888 132.396 15.1037 132.185 15.3855 131.993C15.9349 131.619 15.3362 130.366 14.6639 130.586Z" fill="black"/>
<path fill-rule="evenodd" clip-rule="evenodd" d="M31.4389 13.3008C31.6944 13.6437 32.2429 13.6456 32.2065 13.1432C32.1736 12.6824 32.0307 12.2284 31.8822 11.7943C31.7308 11.3512 31.762 10.8698 31.7532 10.4071C31.7326 9.30227 31.7686 8.23198 31.976 7.14444C32.1749 6.09777 32.3034 5.03844 32.5364 3.99792C32.7648 2.97677 33.1787 2.01151 33.4335 0.999015C33.5126 0.686283 33.5758 0.075984 33.1188 0.00456803C32.7388 -0.0547533 32.5147 0.478754 32.3675 0.730821C31.8776 1.56919 31.3495 2.3444 31.0589 3.27856C30.7968 4.12019 30.599 5.01617 30.507 5.89273C30.4109 6.81154 30.4253 7.73975 30.3691 8.66125C30.4609 9.73192 30.4122 10.917 30.7556 11.9433C30.9106 12.4054 31.1456 12.907 31.4389 13.3008Z" fill="black"/>
<path fill-rule="evenodd" clip-rule="evenodd" d="M132.25 14.1346C132.099 14.496 132.026 14.8814 132.284 15.2208C132.753 15.8369 133.499 14.4339 133.613 14.0423C133.859 13.1934 134.168 12.3381 134.306 11.4613C134.446 10.567 134.379 9.60556 134.401 8.6991C134.327 7.62339 134.184 6.55035 133.928 5.50387C133.701 4.57583 133.46 3.61912 132.705 2.99368C132.391 2.7335 132.176 2.93027 132.131 3.30143C132.083 3.70873 132.19 4.1185 132.375 4.47535C132.809 5.31227 132.81 6.29075 132.907 7.22641C133.1 9.0871 133.208 10.942 132.722 12.7676C132.597 13.2356 132.435 13.6889 132.25 14.1346Z" fill="black"/>
<path fill-rule="evenodd" clip-rule="evenodd" d="M15.5137 38.2973C15.6214 38.7196 15.7431 39.1387 15.8985 39.5464C16.1991 40.3337 16.5876 41.0902 17.0677 41.7829C17.8596 42.9262 18.9048 44.0123 20.0393 44.8162C20.4133 45.0814 21.3213 45.8225 21.8074 45.5752C22.4722 45.2369 21.5825 44.3735 21.3125 44.1208C20.7555 43.5989 20.2016 43.0731 19.6383 42.5577C19.0733 42.0408 18.6529 41.3785 18.2074 40.7594C17.7585 40.1356 17.3198 39.5041 16.9134 38.8516C16.7029 38.5141 16.5196 38.1602 16.3106 37.8225C16.1298 37.5302 15.8619 37.3298 15.6291 37.0833C15.4353 37.1758 15.4579 37.1596 15.408 37.3356C15.3866 37.4112 15.3932 37.565 15.3947 37.6344C15.3984 37.8629 15.4575 38.0771 15.5137 38.2973Z" fill="black"/>
<path fill-rule="evenodd" clip-rule="evenodd" d="M149.087 120.173C148.898 120.127 148.584 120.336 148.443 120.429C147.884 120.798 147.305 121.139 146.74 121.498C146.218 121.83 145.704 122.171 145.192 122.515C144.765 122.801 144.485 123.153 144.635 123.694C144.703 123.94 144.817 124.229 145.103 124.088C145.313 123.984 145.494 123.883 145.724 123.801C146.305 123.596 146.89 123.392 147.432 123.095C148.372 122.581 149.252 121.785 149.378 120.664C149.308 120.505 149.288 120.223 149.087 120.173Z" fill="black"/>
</svg>
