<svg aria-hidden="true" style="position: absolute; width: 0; height: 0; overflow: hidden;" version="1.1" xmlns="http://www.w3.org/2000/svg" xmlns:xlink="http://www.w3.org/1999/xlink">
<defs>
<symbol id="icon-back" viewBox="0 0 32 32">
<path d="M7.612 15.89l13.368-13.368c0.595-0.595 1.56-0.595 2.155 0v0c0.595 0.595 0.595 1.56 0 2.155l-13.368 13.368-2.155-2.155z"></path>
<path d="M24.289 30.408c-0.595 0.595-1.56 0.595-2.155 0l-12.93-12.93 2.155-2.155 12.93 12.93c0.595 0.595 0.595 1.56 0 2.155v0z"></path>
</symbol>
<symbol id="icon-mobile" viewBox="0 0 32 32">
<path d="M24.19 0h-16.571c-1.261 0-2.286 1.025-2.286 2.286v27.429c0 1.261 1.025 2.286 2.286 2.286h16.571c1.261 0 2.286-1.025 2.286-2.286v-27.429c0-1.261-1.025-2.286-2.286-2.286zM15.905 27.214c-0.789 0-1.429-0.639-1.429-1.429s0.639-1.429 1.429-1.429 1.429 0.639 1.429 1.429c0 0.789-0.639 1.429-1.429 1.429z"></path>
</symbol>
<symbol id="icon-mobile-2" viewBox="0 0 32 32">
<path fill="#000" style="fill: var(--color1, #000)" d="M8.276 0h15.448c1.219 0 2.207 0.988 2.207 2.207v26.798c0 1.219-0.988 2.207-2.207 2.207h-15.448c-1.219 0-2.207-0.988-2.207-2.207v-26.798c0-1.219 0.988-2.207 2.207-2.207z"></path>
<path fill="#fff" style="fill: var(--color2, #fff)" d="M8.591 1.419h14.818c0.609 0 1.103 0.494 1.103 1.103v26.167c0 0.609-0.494 1.103-1.103 1.103h-14.818c-0.609 0-1.103-0.494-1.103-1.103v-26.168c0-0.609 0.494-1.103 1.103-1.103z"></path>
<path fill="#000" style="fill: var(--color1, #000)" d="M11.744 1.419h8.512c0 0.784-0.635 1.419-1.419 1.419h-5.675c-0.784 0-1.419-0.635-1.419-1.419v0z"></path>
</symbol>
<symbol id="icon-name" viewBox="0 0 32 32">
<path d="M29.023 25.375c-0.737-1.745-1.806-3.331-3.148-4.668-1.338-1.341-2.923-2.41-4.668-3.148-0.016-0.008-0.031-0.012-0.047-0.020 2.434-1.758 4.016-4.621 4.016-7.852 0-5.352-4.336-9.688-9.687-9.688s-9.688 4.336-9.688 9.688c0 3.23 1.582 6.094 4.016 7.856-0.016 0.008-0.031 0.012-0.047 0.020-1.75 0.738-3.32 1.797-4.668 3.148-1.341 1.338-2.41 2.923-3.148 4.668-0.725 1.708-1.116 3.539-1.152 5.395-0.001 0.042 0.006 0.083 0.021 0.122s0.038 0.074 0.067 0.104c0.029 0.030 0.064 0.054 0.102 0.070s0.080 0.024 0.121 0.024h2.344c0.172 0 0.309-0.137 0.313-0.305 0.078-3.016 1.289-5.84 3.43-7.98 2.215-2.215 5.156-3.434 8.289-3.434s6.074 1.219 8.289 3.434c2.141 2.141 3.352 4.965 3.43 7.98 0.004 0.172 0.141 0.305 0.312 0.305h2.344c0.042 0 0.083-0.008 0.121-0.024s0.073-0.040 0.102-0.070c0.029-0.030 0.052-0.065 0.067-0.104s0.023-0.080 0.021-0.122c-0.039-1.867-0.426-3.684-1.152-5.398v0zM15.488 16.406c-1.793 0-3.48-0.699-4.75-1.969s-1.969-2.957-1.969-4.75c0-1.793 0.699-3.48 1.969-4.75s2.957-1.969 4.75-1.969c1.793 0 3.48 0.699 4.75 1.969s1.969 2.957 1.969 4.75c0 1.793-0.699 3.48-1.969 4.75s-2.957 1.969-4.75 1.969z"></path>
</symbol>
<symbol id="icon-settings" viewBox="0 0 32 32">
<path d="M15.744 9.999c-1.591 0-3.117 0.632-4.243 1.757s-1.757 2.651-1.757 4.243c0 1.591 0.632 3.117 1.757 4.243s2.651 1.757 4.243 1.757c1.591 0 3.117-0.632 4.243-1.757s1.757-2.651 1.757-4.243c0-1.591-0.632-3.117-1.757-4.243s-2.651-1.757-4.243-1.757zM11.744 15.999c0-1.061 0.421-2.078 1.172-2.828s1.768-1.172 2.828-1.172 2.078 0.421 2.828 1.172c0.75 0.75 1.172 1.768 1.172 2.828s-0.421 2.078-1.172 2.828c-0.75 0.75-1.768 1.172-2.828 1.172s-2.078-0.421-2.828-1.172c-0.75-0.75-1.172-1.768-1.172-2.828v0zM12.139 31.574c1.183 0.282 2.394 0.425 3.61 0.425 1.213-0.001 2.422-0.145 3.602-0.427 0.31-0.075 0.59-0.243 0.801-0.483s0.343-0.538 0.378-0.855l0.27-2.457c0.046-0.439 0.247-0.848 0.567-1.152s0.738-0.484 1.18-0.508c0.294-0.013 0.586 0.042 0.854 0.16l2.246 0.985c0.195 0.088 0.407 0.134 0.621 0.135s0.426-0.042 0.622-0.127c0.198-0.084 0.374-0.209 0.52-0.366 1.651-1.78 2.884-3.906 3.608-6.223 0.095-0.307 0.092-0.637-0.008-0.942s-0.293-0.573-0.552-0.764l-1.995-1.472c-0.238-0.173-0.431-0.399-0.564-0.661s-0.203-0.551-0.203-0.845 0.070-0.583 0.203-0.845c0.133-0.262 0.327-0.488 0.564-0.661l1.989-1.469c0.259-0.192 0.452-0.459 0.553-0.766s0.103-0.636 0.007-0.944c-0.724-2.318-1.959-4.443-3.612-6.222-0.219-0.234-0.505-0.395-0.82-0.459s-0.64-0.030-0.934 0.099l-2.245 0.989c-0.232 0.105-0.485 0.16-0.741 0.16-0.461-0.001-0.905-0.172-1.248-0.48s-0.559-0.732-0.608-1.19l-0.272-2.448c-0.035-0.321-0.169-0.624-0.384-0.865s-0.5-0.409-0.816-0.48c-1.174-0.262-2.372-0.401-3.575-0.415-1.211 0.014-2.418 0.153-3.6 0.416-0.315 0.071-0.6 0.238-0.815 0.478s-0.35 0.542-0.385 0.863l-0.272 2.45c-0.051 0.459-0.27 0.883-0.614 1.19-0.351 0.298-0.794 0.468-1.255 0.48-0.254-0-0.506-0.053-0.738-0.155l-2.24-0.989c-0.295-0.13-0.622-0.165-0.938-0.1s-0.603 0.226-0.822 0.462c-1.651 1.779-2.884 3.904-3.608 6.22-0.096 0.308-0.093 0.638 0.007 0.944s0.294 0.574 0.553 0.765l1.99 1.469c0.356 0.263 0.607 0.643 0.709 1.073s0.050 0.883-0.149 1.278c-0.132 0.262-0.324 0.489-0.56 0.663l-1.992 1.471c-0.259 0.191-0.452 0.459-0.552 0.765s-0.103 0.636-0.008 0.943c0.723 2.318 1.956 4.446 3.608 6.226 0.218 0.236 0.505 0.397 0.819 0.462s0.641 0.030 0.935-0.099l2.254-0.99c0.233-0.102 0.484-0.155 0.738-0.155h0.006c0.459 0.001 0.902 0.17 1.244 0.476s0.56 0.727 0.612 1.183l0.27 2.446c0.035 0.318 0.168 0.617 0.379 0.856s0.492 0.408 0.803 0.482v0zM18.59 29.698c-1.872 0.4-3.808 0.4-5.68 0l-0.243-2.13c-0.106-0.945-0.556-1.818-1.264-2.452s-1.625-0.986-2.576-0.988h-0.008c-0.53-0.002-1.055 0.107-1.541 0.32l-1.957 0.858c-1.269-1.432-2.238-3.104-2.848-4.918l1.732-1.28c0.488-0.36 0.885-0.829 1.158-1.371s0.416-1.139 0.416-1.746c0-0.606-0.142-1.204-0.416-1.746s-0.67-1.011-1.158-1.371l-1.731-1.28c0.611-1.812 1.58-3.482 2.849-4.912l1.946 0.858c0.486 0.216 1.013 0.327 1.545 0.326h0.008c0.953-0.002 1.872-0.355 2.582-0.991s1.16-1.511 1.266-2.459l0.24-2.128c0.939-0.188 1.892-0.289 2.85-0.301 0.95 0.012 1.896 0.112 2.827 0.3l0.24 2.127c0.103 0.947 0.551 1.823 1.26 2.46s1.627 0.99 2.58 0.991c0.537 0.013 1.070-0.1 1.557-0.328l1.944-0.857c1.27 1.43 2.239 3.101 2.85 4.913l-1.726 1.274c-0.492 0.358-0.892 0.828-1.167 1.37s-0.419 1.142-0.419 1.75 0.144 1.208 0.419 1.75c0.276 0.542 0.676 1.012 1.167 1.37l1.732 1.28c-0.612 1.811-1.58 3.481-2.848 4.912l-1.952-0.856c-0.556-0.247-1.162-0.358-1.769-0.326s-1.198 0.208-1.724 0.512c-0.526 0.304-0.973 0.729-1.304 1.238s-0.537 1.091-0.601 1.695l-0.234 2.132z"></path>
</symbol>
<symbol id="icon-lock" viewBox="0 0 32 32">
<path d="M25.12 13.44h-1.92v-5.76c0-4.224-3.456-7.68-7.68-7.68s-7.68 3.456-7.68 7.68v5.76h-1.92c-0.96 0-1.92 0.96-1.92 1.92v13.44c0 0.96 0.96 1.92 1.92 1.92h19.2c0.96 0 1.92-0.96 1.92-1.92v-13.44c0-0.96-0.96-1.92-1.92-1.92zM17.44 26.88h-3.84l0.768-4.224c-0.96-0.384-1.728-1.536-1.728-2.496 0-1.536 1.344-2.88 2.88-2.88s2.88 1.344 2.88 2.88c0 1.152-0.576 2.112-1.728 2.496l0.768 4.224zM19.36 13.44h-7.68v-5.76c0-2.112 1.728-3.84 3.84-3.84s3.84 1.728 3.84 3.84v5.76z"></path>
</symbol>
<symbol id="icon-verification" viewBox="0 0 32 32">
<path d="M16 32c-8.837 0-16-7.163-16-16s7.163-16 16-16c8.837 0 16 7.163 16 16s-7.163 16-16 16zM16 29.867c7.658 0 13.867-6.208 13.867-13.867s-6.208-13.867-13.867-13.867c-7.658 0-13.867 6.208-13.867 13.867s6.208 13.867 13.867 13.867z"></path>
<path d="M9.638 15.515l5.993 5.031-1.262 1.503-5.993-5.031 1.262-1.503z"></path>
<path d="M13.807 19.674l8.097-9.721 1.508 1.256-8.097 9.721-1.508-1.256z"></path>
</symbol>
<symbol id="icon-tick" viewBox="0 0 42 32">
<path d="M35.597 2.209c0.719-0.869 2.005-0.99 2.874-0.272v0c0.869 0.719 0.99 2.005 0.272 2.874l-21.124 25.537-3.146-2.602 21.124-25.537z"></path>
<path d="M1.57 19.736c-0.867-0.721-0.986-2.008-0.265-2.875v0c0.721-0.867 2.008-0.986 2.875-0.265l14.678 12.201-2.61 3.14-14.678-12.201z"></path>
</symbol>
<symbol id="icon-cross" viewBox="0 0 32 32">
<path d="M26.782 1.65c0.911-0.911 2.388-0.911 3.299 0v0c0.911 0.911 0.911 2.388 0 3.299l-25.132 25.132c-0.911 0.911-2.388 0.911-3.299 0v0c-0.911-0.911-0.911-2.388 0-3.299l25.132-25.132z"></path>
<path d="M1.65 4.949c-0.911-0.911-0.911-2.388 0-3.299v0c0.911-0.911 2.388-0.911 3.299 0l25.132 25.132c0.911 0.911 0.911 2.388 0 3.299v0c-0.911 0.911-2.388 0.911-3.299 0l-25.132-25.132z"></path>
</symbol>
</defs>
</svg>
