<svg width="270" height="228" viewBox="0 0 270 228" fill="none" xmlns="http://www.w3.org/2000/svg">
<path fill-rule="evenodd" clip-rule="evenodd" d="M170.426 150.837C169.9 158.541 159.436 162.547 153.089 164.19C154.361 156.632 156.004 148.798 154.982 141.133C154.645 138.608 154.204 136.097 153.729 133.594C153.554 132.669 153.373 131.745 153.186 130.822C153.14 130.597 152.772 129.615 152.889 129.391C153.099 128.991 154.874 129.054 155.327 129.071C156.493 129.116 157.637 129.41 158.703 129.876C160.945 130.854 162.834 132.537 164.39 134.395C168.06 138.777 170.823 145.027 170.426 150.837ZM158.311 98.4661C152.236 102.06 144.918 103.988 137.989 104.928C127.434 106.361 116.656 104.712 106.337 102.428C103.803 101.867 101.274 101.262 98.778 100.553C98.6655 107.859 100.723 114.807 104.741 120.9C108.063 125.937 112.399 130.147 116.189 134.814C119.717 139.158 122.562 144.058 122.704 149.791C122.763 152.184 122.566 154.373 120.56 155.924C118.545 157.482 115.823 158.06 113.357 158.415C107.182 159.304 100.715 158.823 94.5794 157.845C93.3879 157.654 92.1987 157.438 91.0229 157.167C89.6879 156.861 89.22 156.498 88.1051 157.5C85.6989 159.66 84.5951 162.9 84.0501 166C83.0287 171.805 83.3752 178.577 84.8474 184.304C86.2659 189.821 92.96 192.879 97.9192 194.213C112.878 198.234 129.381 192.68 140.859 182.793C141.109 182.577 141.358 182.359 141.6 182.134C142.415 183.83 143.306 185.496 144.278 187.107C144.955 188.227 145.668 189.354 146.521 190.351C146.83 190.711 147.191 191.198 147.613 191.434C148.397 191.872 149.195 191.55 150.083 191.396C156.634 190.259 163.17 188.765 169.399 186.411C178.869 182.833 187.362 176.939 191.851 167.627C194.118 162.924 195.3 157.771 195.872 152.603C196.529 146.669 196.671 140.603 194.999 134.82C191.936 124.221 184.122 115.629 175.564 109.002C170.269 104.901 164.447 101.195 158.311 98.4661Z" fill="#D94555"/>
<path fill-rule="evenodd" clip-rule="evenodd" d="M265.353 28.2816C263.968 28.8313 262.478 28.9842 261.005 29.0918C259.849 29.1761 258.942 29.6389 257.854 29.665C254.822 29.7372 251.778 29.8732 248.761 30.3259C245.731 30.7805 242.941 30.1866 240.548 32.461C239.697 33.2702 238.629 34.2007 239.141 35.507C239.376 36.1051 239.706 36.5342 239.901 37.1764C240.122 37.9023 240.396 38.5879 240.715 39.2792C241.326 40.6048 244.389 45.5417 241.904 46.1457C239.209 46.8003 235.555 46.0352 232.959 45.2862C231.445 44.8492 229.954 44.3371 228.462 43.8325C227.28 43.4331 225.728 43.2066 224.639 42.5811C223.917 42.1657 223.767 41.4571 223.29 40.7839C222.422 39.5593 221.61 38.5164 220.488 37.4973C218.161 35.3838 215.251 33.9487 212.382 32.6875C212.196 32.6054 211.858 32.4149 211.658 32.396C211.442 32.376 211.205 32.5983 211.065 32.5711C210.682 32.4969 210.549 32.2564 210.13 32.0188C209.567 31.6998 207.274 30.638 206.873 31.4727C207.248 30.3762 207.522 30.6925 208.538 30.8517C208.986 30.9223 209.285 30.7174 209.687 30.738C210.057 30.7566 210.209 30.9674 210.519 31.0243C211.086 31.1282 211.614 31.0498 212.206 31.0455C212.365 30.6948 212.59 30.6974 212.883 31.053C213.046 31.106 213.209 31.1586 213.372 31.2119C213.961 31.3733 214.592 31.3423 215.195 31.3897C216.101 31.4616 218.463 32.5656 218.918 31.4482C219.403 30.2549 217.93 29.9575 217.684 29.1248C217.445 28.3077 218.567 27.8283 219.017 27.3351C219.53 26.7739 219.843 26.2814 220.445 25.7873C220.798 25.497 221.26 25.2268 221.521 24.8401C221.762 24.4845 221.751 23.9097 222.064 23.6136C222.436 23.2603 222.493 23.5047 222.831 23.3341C223.494 22.9988 223.201 23.0158 223.594 22.5576C223.929 22.1661 224.177 22.1778 224.616 21.8778C225.258 21.4382 225.484 20.5795 226.108 20.1071C226.565 19.7613 227.293 19.7619 227.693 19.4028C227.93 19.1912 227.857 18.8484 228.061 18.6487C228.452 18.2649 228.721 18.4208 229.21 18.2943C230.035 18.0809 230.302 17.6254 230.909 17.098C231.464 16.6165 231.816 16.6186 232.51 16.4189C233.459 16.1463 234.072 15.4321 234.928 15.0125C235.734 14.6178 236.566 14.3411 237.381 13.9206C237.97 13.6169 238.537 13.4284 239.075 13.1184C239.257 13.0138 239.272 12.6307 239.506 12.5788C239.775 12.519 239.99 12.9655 240.277 12.9889C240.876 13.0381 241.558 12.3738 241.952 11.9892C242.123 11.8221 242.355 11.3702 242.575 11.2768C243.035 11.0812 243.31 11.4685 243.721 11.3156C244.297 11.1011 244.068 10.4729 244.421 10.1265C244.729 9.82425 245.385 9.84471 245.933 9.94041C248.142 10.325 244.705 11.8837 244.058 12.199C242.971 12.73 235.062 16.5928 236.912 18.5192C237.891 19.5382 240.281 18.7719 241.345 18.5035C243.211 18.0326 245.156 17.1262 247.07 16.9181C247.307 16.8924 248.013 17.0616 248.205 16.9878C248.64 16.8216 248.532 16.4891 248.885 16.3142C249.417 16.0517 250.504 16.0644 251.044 16.1234C251.467 16.1697 251.929 16.4215 252.359 16.3874C252.832 16.3498 253.289 16.0748 253.758 15.9862C254.561 15.8351 255.392 15.9092 256.203 15.9326C257.37 15.9667 259.701 16.1427 258.007 17.6907C256.635 18.9435 254.263 19.4858 252.533 20.0325C249.974 20.8405 247.459 21.5758 244.933 22.4965C243.212 23.1233 239.54 24.2247 241.589 26.5752C241.792 26.3844 241.994 26.1938 242.196 26.003C242.435 26.2445 242.682 26.7145 243.065 26.7282C243.383 26.7393 243.266 26.3974 243.567 26.2906C244.514 25.9549 245.811 25.9804 246.809 25.9173C249.31 25.7592 251.801 25.4281 254.305 25.3255C256.663 25.2291 259.046 25.3546 261.358 25.8487C261.952 25.9758 267.497 27.4305 265.353 28.2816ZM244.905 52.4505C245.031 53.4996 244.565 54.3483 244.436 55.3618C244.279 56.5871 244.394 57.6662 244.046 58.8843C243.37 61.2521 242.89 63.6745 242.165 66.0286C240.884 70.1852 238.816 73.8561 236.69 77.6273C235.605 79.55 233.971 81.1377 232.479 82.746C230.949 84.3941 229.727 86.0165 227.898 87.3699C224.243 90.0746 220.3 92.4804 215.973 93.9416C211.445 95.4715 206.683 95.9349 201.926 95.7404C199.815 95.6542 197.578 95.8676 195.5 95.5267C193.291 95.1636 190.897 94.7181 188.727 94.1821C184.741 93.1994 180.901 91.531 177.009 90.0406C172.663 88.3761 168.75 86.2515 164.786 83.8513C163.737 83.2163 162.629 82.9198 161.646 82.1511C160.817 81.5037 160.001 80.8844 159.129 80.2928C158.128 79.6143 157.17 78.8725 156.148 78.2276C155.537 77.842 154.678 77.4648 154.357 76.7671C153.916 75.8072 154.448 74.6019 154.723 73.6707C155.081 72.4589 155.461 71.2621 155.892 70.0741C156.62 68.0625 158.474 64.9599 157.454 62.8333C155.305 64.1638 154.357 66.7794 153.438 69.0027C152.34 71.6591 151.574 74.309 151.408 77.19C151.076 82.9852 152.047 89.085 154.151 94.4887C154.464 95.2911 155.013 96.1614 154.61 97.02C154.186 97.9207 153.036 98.6815 152.153 99.0711C149.357 100.303 146.551 100.662 143.631 101.343C142.836 101.528 141.966 102.086 141.22 102.156C140.717 102.203 140.3 102.038 139.724 102.042C139.145 102.046 138.691 102.37 138.173 102.405C137.721 102.435 137.319 102.171 136.888 102.196C135.923 102.252 135.745 103.905 135.266 102.45C135.18 102.51 134.7 103.052 134.64 103.052C134.504 103.053 134.263 102.648 134.133 102.576C133.879 102.436 133.545 102.428 133.261 102.391C132.635 102.31 131.96 102.301 131.344 102.445C130.201 102.711 129.051 102.599 128.074 102.58C127.852 102.575 127.694 102.754 127.418 102.744C127.292 102.738 127.11 102.516 126.977 102.481C126.204 102.282 125.402 102.431 124.615 102.388C122.766 102.286 120.98 102.236 119.174 101.828C115.474 100.991 111.701 100.824 107.985 100.058C106.092 99.6679 104.243 99.4551 102.38 98.941C101.725 98.7603 101.053 98.675 100.473 98.4286C99.9188 98.1929 100.137 97.8792 99.2766 98.5093C98.8902 97.5631 98.8445 97.6595 97.9118 97.3468C97.5509 97.2255 96.7219 96.9248 96.4533 96.6866C96.4265 96.6627 95.8523 95.2224 95.8029 95.0453C95.5638 94.1851 95.763 93.2017 95.8628 92.3359C96.0882 90.3841 96.4141 88.4477 96.4334 86.4802C96.4419 85.6125 96.5986 85.5874 96.8688 84.9334C96.9522 84.7307 97.1979 84.7468 97.2182 84.4383C97.246 84.0268 96.8246 83.7405 96.8701 83.26C96.9306 82.6136 97.5803 81.9587 97.8084 81.3563C98.0825 80.6311 98.0789 79.864 98.2425 79.1133C98.4614 78.1146 98.884 77.1772 99.097 76.1742C99.2782 75.3248 99.2956 74.6492 99.7484 73.9204C100.201 73.1929 100.068 72.5991 100.429 71.8745C100.76 71.2101 101.179 70.9715 101.405 70.1692C101.954 68.2282 102.789 66.3064 103.97 64.6609C105.01 68.787 106.115 73.0501 109.009 76.3115C110.201 77.6544 111.74 79.0094 113.538 79.4186C115.57 79.881 117.195 78.6836 118.518 77.2651C121.672 73.8848 122.978 70.1116 123.168 65.5283C123.215 64.389 123.208 63.248 123.193 62.1081C123.186 61.6008 122.926 60.2988 123.274 59.8723C123.655 59.4046 124.744 59.6968 125.31 59.3886C126.007 59.0088 126.772 57.9934 126.462 57.1561C128.319 57.996 130.094 59.1016 132.159 59.3356C132.976 59.4285 133.847 59.2873 134.578 59.2484C134.556 59.2494 135.144 59.3693 135.18 59.3771C135.324 59.2101 135.481 59.1696 135.65 59.2552C135.8 59.2713 135.91 59.3517 135.978 59.4971C138.922 59.7909 141.885 58.3378 144.405 56.7988C145.877 55.8994 147.493 54.5683 147.907 52.8175C148.054 52.1929 147.927 51.6043 148.573 51.2857C149.098 51.0262 150.112 51.4004 150.666 51.4409C152.616 51.5837 154.537 51.3987 156.44 51.9792C157.602 52.3335 159.629 54.8157 160.439 53.0695C160.791 53.3989 160.6 53.9855 160.974 54.3062C161.3 54.5856 162.396 54.7823 162.847 55.0216C163.546 55.3915 163.955 55.8841 164.567 56.3289C165.318 56.8756 166.104 56.9178 166.831 57.5594C169.35 59.7811 172.3 61.3904 175.112 63.233C178.449 65.4188 181.402 67.9955 184.982 69.7783C188.644 71.6013 192.187 73.1243 196.188 74.0727C198.003 74.5032 199.865 74.8623 201.728 74.995C202.607 75.0571 203.445 75.0258 204.293 75.2892C204.808 75.4493 204.974 75.5294 205.48 75.5441C205.775 75.5526 206.201 75.3826 206.565 75.3892C207.31 75.4026 207.691 75.3719 208.364 75.6183C209.125 75.8971 209.758 76.0647 210.625 76.0886C211.622 76.1167 212.21 75.734 213.115 75.498C213.846 75.3078 214.503 75.3987 215.157 75.0035C218.061 73.2485 220.394 70.5682 221.918 67.5255C223.666 64.0334 225.013 59.7762 225.287 55.8628C225.444 53.6228 224.95 51.4383 224.094 49.3816C223.852 48.8015 222.402 46.3304 222.849 45.8816C223.356 45.3715 225.013 46.5405 225.481 46.7945C226.964 47.5998 229.642 47.8576 230.682 49.2123C230.947 48.7047 232.419 49.4571 232.892 49.6689C233.282 49.844 233.393 50.1607 233.884 50.1987C234.348 50.2343 234.826 49.8653 235.251 49.7476C234.94 50.6147 235.986 50.6552 236.703 50.7013C237.219 50.7343 237.774 50.6533 238.233 50.6206C239.113 50.5582 239.127 50.3608 239.931 49.9104C239.899 50.2402 239.935 50.5624 240.038 50.8768C240.554 50.13 241.539 50.6487 242.237 50.3206C241.733 49.5561 243.886 49.3466 244.388 49.5074C245.65 49.9124 244.794 51.521 244.905 52.4505ZM146.07 104.992C146.903 104.744 147.741 104.518 148.577 104.281C147.944 104.861 147.287 105.908 146.383 106.071C145.293 106.267 144.864 105.352 146.07 104.992ZM104.953 105.408C106.355 105.576 107.882 105.447 109.111 106.275C108.512 106.963 108.123 107.684 107.124 107.289C106.284 106.957 105.593 106.012 104.953 105.408ZM151.797 143.1C150.876 142.275 150.998 141.906 151.43 140.838C151.616 140.379 151.911 138.951 152.609 139.37C152.857 139.518 153.157 141.074 153.202 141.389C153.301 142.094 152.864 144.056 151.797 143.1ZM156.99 138.31C156.665 137.116 156.676 135.815 156.356 134.592C156.019 133.3 155.604 132.004 155.484 130.669C160.349 131.528 163.112 136.351 165.219 140.376C166.339 142.515 167.437 144.88 167.859 147.271C168.271 149.601 167.556 151.37 166.725 153.447C166.302 154.507 165.602 154.874 164.785 155.575C164.061 156.195 163.79 157.243 163.036 157.8C162.479 158.212 161.754 158.426 161.172 158.842C160.596 159.253 160.02 159.66 159.426 160.044C158.747 160.482 156.711 162.081 155.794 161.74C155.107 161.485 155.413 160.645 155.586 160.119C155.951 159.01 156.206 157.942 156.431 156.786C157.031 153.701 157.357 150.634 157.512 147.496C157.664 144.432 157.806 141.301 156.99 138.31ZM152.921 152.226C152.994 152.378 153.298 153.673 152.62 153.407C152.149 153.221 152.852 152.464 152.921 152.226ZM155.787 100.8C156.361 100.563 156.591 101.264 157.096 101.285C157.766 101.312 157.907 100.568 158.61 100.546C160.329 100.492 162.82 102.152 164.218 103.018C163.533 103.882 163.251 104.767 163.591 105.831C163.891 106.768 165.037 107.817 164.995 108.81C164.952 109.807 163.712 110.448 163.326 111.334C162.97 112.149 162.835 113.777 163.932 114.136C165.818 114.753 166.249 111.223 167.679 111.196C168.29 111.184 169.084 112.332 169.524 112.69C170.508 113.49 171.618 114.075 172.763 114.606C173.535 114.965 174.611 115.672 175.184 114.708C175.643 113.936 175.268 112.712 174.822 112.048C174.31 111.285 169.722 107.797 170.012 107.49C170.166 107.326 171.308 107.778 171.47 107.915C171.836 108.224 171.971 108.728 172.337 109.057C172.897 109.56 173.62 109.759 174.312 109.992C175.756 110.477 176.67 112.182 178.069 112.976C178.877 113.434 179.369 114.313 180.053 114.995C180.947 115.886 181.858 116.821 181.723 118.133C181.63 119.043 181.495 121.162 180.98 121.93C180.421 122.763 179.49 122.444 178.641 122.641C177.685 122.862 176.921 123.607 177.111 124.671C177.309 125.777 178.194 125.856 179.119 125.884C181.729 125.963 180.768 127.618 181.678 129.436C182.172 130.424 182.997 130.811 183.564 129.656C184.021 128.726 183.205 127.26 183.701 126.466C184.305 125.498 187.537 125.762 188.212 126.513C188.723 127.083 188.993 127.867 189.503 128.463C190.277 129.368 190.595 130.637 191.059 131.746C191.551 132.924 191.981 134.12 192.359 135.34C192.624 136.198 193.196 137.555 191.826 136.823C190.868 136.312 190.153 135.158 188.94 135.122C187.74 135.086 187.056 136.331 187.407 137.414C187.746 138.461 189.293 138.923 189.472 139.985C189.669 141.148 187.676 142.333 187.071 143.188C185.678 145.155 186.843 147.371 189.127 145.7C189.936 145.108 190.784 143.914 191.697 143.54C193.141 142.948 193.133 145.141 193.824 145.949C194.197 146.383 194.332 145.941 194.111 146.59C194.03 146.83 193.617 146.905 193.571 147.202C193.537 147.42 193.733 147.535 193.739 147.704C193.762 148.276 193.764 148.36 193.635 148.982C193.492 149.671 193.544 150.527 193.501 151.227C193.403 152.828 193.382 154.356 193.213 155.956C193.12 156.847 192.924 158.66 193.977 159.094C193.602 159.681 193.103 161.312 192.367 161.189C192.427 161.575 192.394 162.068 192.769 162.32C192.859 162.085 192.948 161.85 193.038 161.614C193.244 162.152 193.063 162.214 193.05 162.581C193.066 162.127 192.636 163.213 192.869 163.079C192.671 163.244 192.411 163.338 192.113 163.552C191.699 163.85 191.48 164.262 191.158 164.665C190.576 165.394 190.609 166.13 190.099 166.89C189.376 167.969 188.447 169.033 187.685 170.111C187.064 170.988 185.882 171.493 185.384 172.436C185.068 173.036 184.942 173.733 184.403 174.155C183.63 174.759 182.597 175.328 181.757 175.952C181.229 176.344 180.828 176.888 180.301 177.268C180.034 177.461 179.231 177.657 179.23 178.049C178.219 177.766 177.504 176.735 176.709 176.107C176.178 175.688 174.913 175.143 174.99 174.302C175.052 173.614 176.031 172.761 176.257 172.04C176.448 171.429 176.714 170.289 176.185 169.767C175.076 168.672 173.817 171.022 173.222 171.648C171.993 172.938 171.47 171.637 170.46 170.7C168.846 169.203 167.832 170.756 168.4 172.62C168.688 173.563 169.783 174.404 169.854 175.368C169.932 176.426 168.784 176.958 168.33 177.804C167.901 178.602 167.703 180.003 168.509 180.663C169.399 181.392 170.172 180.53 170.754 179.858C171.205 179.336 171.708 178.187 172.441 178.122C173.361 178.04 174.868 179.708 175.568 180.223C174.505 180.53 173.865 181.419 172.967 181.989C171.808 182.723 170.19 182.897 168.892 183.402C167.67 183.877 166.571 184.264 165.407 184.854C164.026 185.553 162.337 185.728 160.875 186.237C159.569 186.692 158.331 187.33 156.997 187.705C155.494 188.129 153.935 188.383 152.419 188.766C151.123 189.093 149.604 189.407 148.268 189.41C146.917 189.412 146.945 188.576 146.514 187.463C146 186.141 145.15 184.98 144.608 183.689C144.092 182.462 144.871 181.996 145.618 181.057C146.322 180.172 146.136 180.034 147.044 180.655C148.238 181.473 149.027 180.92 149.957 179.979C150.784 179.143 151.087 178.448 152.277 179.031C153.468 179.613 154.602 180.561 155.881 180.941C156.889 181.24 157.64 181.023 157.809 179.921C157.991 178.731 157.312 177.887 156.456 177.18C155.804 176.642 154.381 176.005 154.143 175.132C153.892 174.213 155.213 172.873 155.355 171.845C155.533 170.548 154.974 169.594 153.742 170.492C152.848 171.143 152.253 172.556 151.012 172.644C151.357 171.2 152.104 169.916 152.745 168.593C153.283 167.485 153.744 166.227 155.187 166.103C155.654 166.064 155.959 166.112 156.405 166.032C156.994 165.926 157.794 165.842 158.424 165.683C159.906 165.309 161.215 164.165 162.579 163.51C162.892 164.351 163.446 166.747 164.72 165.348C165.663 164.314 164.619 162.533 165.487 161.382C167.278 159.007 171.179 160.751 173.532 159.526C174.556 158.993 175.39 157.293 173.946 156.78C173.102 156.481 170.665 157.586 170.157 156.771C169.795 156.19 171.312 153.919 171.495 153.295C172.066 151.352 171.973 149.335 171.973 147.335C173.118 147.803 174.567 148.898 175.801 149.048C177.07 149.202 177.293 147.714 176.961 146.736C176.502 145.389 174.975 144.286 173.929 143.418C173.467 143.036 172.259 142.42 172.007 141.839C171.746 141.238 172.119 140.948 172.413 140.426C172.871 139.611 173.98 137.503 172.773 136.739C171.662 136.036 171.039 138.006 170.331 138.427C169.131 139.143 168.719 137.504 168.242 136.671C167.375 135.157 166.174 133.806 165.096 132.445C164.115 131.205 163.51 130.366 163.367 128.786C163.258 127.59 163.014 126.664 164.426 126.392C166.929 125.91 170.594 127.097 172.628 125.062C173.694 123.995 172.932 122.892 171.586 122.947C169.817 123.019 168.135 123.106 166.354 122.963C165.408 122.887 163.429 123.116 162.951 122.142C162.336 120.887 163.379 118.871 162.247 117.771C160.801 116.367 160.447 119.54 160.399 120.417C160.364 121.055 160.528 122.027 160.13 122.579C159.759 123.095 159.081 123.087 158.532 123.273C157.15 123.743 156.436 125.439 158.27 125.798C158.886 125.919 159.746 125.743 160.259 126.2C160.796 126.678 160.59 127.528 160.641 128.172C159.357 126.685 156.687 127.344 154.948 126.792C154.032 126.501 153.877 126.113 153.492 125.227C153.025 124.154 151.963 122.798 151.922 121.612C151.887 120.605 152.727 119.847 153.118 118.979C153.455 118.234 153.759 117.022 153.709 116.186C153.589 114.171 149.949 116.228 149.199 117C147.839 118.399 146.161 120.21 146.899 122.193C147.557 123.962 147.906 124.965 145.623 124.826C144.788 124.775 143.033 124.94 142.384 124.588C141.903 124.326 142.084 123.857 142.068 123.177C142.055 122.588 142.099 121.696 141.721 121.181C140.389 119.371 140.078 123.875 139.33 124.363C138.162 125.126 135.689 124.327 135.88 126.591C136.047 128.573 138.727 127.764 139.469 129.468C139.826 130.29 139.75 131.245 140.2 132.038C140.841 133.168 141.63 133.107 142.055 131.93C142.353 131.103 141.955 130.253 142.185 129.472C142.516 128.344 144.094 128.448 145.065 128.321C146.245 128.166 147.274 127.869 148.396 127.506C149.781 127.058 149.706 127.793 149.931 128.857C150.193 130.092 150.593 131.282 150.838 132.535C151.066 133.703 151.673 134.961 151.771 136.13C151.847 137.023 151.544 136.941 150.803 137.457C149.994 138.021 149.103 139.485 148.164 139.726C146.751 140.089 145.327 136.861 144.041 138.513C143.489 139.222 143.703 140.731 144.095 141.464C144.614 142.431 145.567 142.677 144.768 143.786C144.168 144.619 143.413 145.264 143.357 146.385C143.304 147.425 144.012 148.409 145.119 148.103C146.013 147.857 146.542 146.941 147.219 146.386C148.388 145.427 149.348 146.315 150.545 146.858C151.487 147.286 153.218 147.564 153.691 148.57C154.291 149.845 153.521 150.338 152.407 149.976C152.841 151.402 152.27 152.23 152.113 153.704C151.986 154.898 151.712 155.989 151.537 157.143C151.304 158.683 151.28 158.516 149.693 158.569C148.345 158.613 147.035 158.577 145.689 158.518C144.503 158.466 143.696 158.573 143.643 157.143C143.619 156.512 144.017 154.372 142.772 154.629C141.676 154.855 141.992 156.81 141.625 157.545C141.095 158.608 140.197 158.283 139.199 158.546C138.184 158.813 137.363 159.562 137.625 160.72C137.905 161.955 139.038 161.869 140.024 162.155C141.541 162.595 141.208 164.826 142.094 166.037C142.455 166.531 142.836 167.031 143.443 166.625C144.555 165.881 143.505 164.063 143.799 163.151C144.108 162.192 145.151 162.388 146.136 162.264C147.591 162.08 149.113 161.379 150.563 161.388C150.285 162.223 149.506 162.709 149.226 163.589C149.076 164.06 149.216 164.941 149.007 165.331C148.783 165.75 148.076 165.876 147.784 166.458C147.401 167.222 147.283 168.039 146.835 168.786C145.777 170.554 144.865 172.361 143.739 174.11C142.577 175.917 141.325 177.636 139.863 179.203C138.445 180.722 138.022 179.986 136.803 178.744C136.308 178.238 135.254 177.653 135.116 176.898C134.98 176.154 135.596 175.546 135.933 174.94C136.381 174.137 137.188 172.755 136.992 171.791C136.622 169.981 135.003 171.648 134.389 172.325C133.316 173.509 132.717 174.753 131.096 173.818C130.059 173.22 128.751 171.581 127.389 172.187C126.15 172.739 126.497 174.333 127.259 175.141C127.687 175.594 128.295 175.853 128.748 176.277C129.724 177.191 129.171 177.439 128.726 178.462C128.362 179.3 128.309 180.947 128.981 181.645C130.303 183.018 131.325 180.249 132.552 180.192C133.133 180.166 135.55 181.75 135.723 182.321C136.025 183.322 133.417 184.518 132.724 184.988C131.112 186.08 129.357 187.195 127.544 187.919C125.404 188.775 126.999 186.08 125.829 185.184C124.308 184.019 124.19 187.21 124.034 188.003C123.619 190.112 121.39 190.167 119.591 190.69C118.446 191.023 117.3 191.376 116.143 191.666C115.161 191.912 114.062 191.906 113.11 192.21C112.276 192.477 111.705 193.019 110.771 193.025C110.468 193.027 110.204 192.924 109.911 192.917C109.321 192.903 108.78 193.24 108.216 193.205C107.277 193.147 107.686 192.851 107.359 192.197C107.052 191.583 106.272 191.358 105.665 191.166C103.925 190.616 102.477 191.098 102.224 188.888C102.146 188.209 102.249 185.422 100.957 185.747C99.4471 186.127 100.775 189.44 99.8383 190.27C99.3823 190.674 98.694 190.472 98.1444 190.592C97.2421 190.788 96.8466 191.468 95.8589 191.423C95.0256 191.385 94.25 191.015 93.5237 190.648C92.4412 190.1 91.1496 189.738 90.247 188.903C89.0097 187.758 88.467 185.975 87.9396 184.427C87.1636 182.148 86.8329 179.876 86.7082 177.485C86.6647 176.652 86.3104 176.064 86.1622 175.299C86.0049 174.486 86.4701 174.323 86.577 173.553C86.6811 172.804 86.6307 172.004 86.7884 171.201C87.0151 170.047 87.0943 168.866 87.3141 167.709C87.6779 165.795 88.2295 163.893 88.6822 161.997C88.8229 161.407 89.0778 159.518 89.8057 159.337C90.3428 159.203 91.5831 160.002 92.0807 160.236C93.065 160.7 93.9111 161.341 94.9641 161.662C95.5075 161.828 96.1936 161.811 96.5502 162.315C97.1138 163.113 96.6581 164.675 96.8917 165.618C97.1776 166.772 98.1244 167.263 98.8873 166.103C99.294 165.486 99.1857 164.749 99.2403 164.066C99.3182 163.081 99.3355 162.842 100.402 162.909C101.483 162.976 102.538 163.384 103.646 163.434C104.645 163.478 105.649 163.451 106.647 163.396C109.071 163.263 111.288 162.87 113.561 162.007C115.101 161.423 116.886 160.146 118.583 160.192C120.979 160.255 120.33 162.47 120.658 164.128C120.858 165.136 122.546 168.233 123.195 165.72C123.516 164.477 122.447 162.665 123.08 161.542C123.828 160.215 126.577 161.316 127.828 161.009C128.84 160.76 130.532 159.326 129.817 158.089C129.478 157.503 128.821 157.615 128.234 157.571C127.123 157.488 126.019 157.336 124.917 157.174C124.29 157.082 123.332 157.028 123.082 156.309C122.869 155.698 123.866 154.115 124.083 153.531C124.799 151.597 125.057 150.024 125.06 147.916C125.06 146.966 125.123 145.963 124.97 145.023C124.914 144.679 124.396 143.554 124.638 143.225C124.964 142.782 125.631 143.344 125.899 143.676C126.43 144.337 126.245 144.284 125.943 144.969C125.498 145.977 124.634 148.09 126.1 148.865C127.634 149.677 128.188 146.935 129.641 147.236C130.319 147.376 130.987 148.266 131.533 148.682C132.173 149.169 132.863 149.685 133.614 149.984C134.846 150.474 136.231 150.107 135.733 148.558C135.34 147.337 134.098 146.316 133.21 145.45C131.795 144.071 131.859 143.492 132.837 141.868C133.246 141.188 134.817 138.301 132.996 138.067C132.032 137.942 130.99 139.503 130.481 140.101C129.607 141.126 129.106 141.566 127.806 140.743C126.536 139.938 125.946 139.266 124.409 139.192C122.641 139.106 121.845 136.452 120.908 135.089C118.361 131.386 114.462 129.554 111.174 126.717C109.572 125.334 108.49 123.525 107.272 121.823C106.692 121.012 105.943 120.339 105.47 119.456C105.173 118.9 104.367 117.561 104.577 116.905C104.838 116.089 106.247 115.586 106.833 115.009C107.325 114.526 107.587 113.923 108.361 114.108C109.05 114.272 109.67 115.203 110.233 115.613C110.786 116.014 111.41 116.387 112.022 116.687C113.131 117.23 114.469 117.521 114.534 115.869C114.59 114.44 113.286 112.909 112.343 111.945C111.657 111.243 110.618 110.633 110.754 109.519C110.821 108.967 111.291 107.983 111.565 107.519C112.51 105.924 115.396 106.898 116.964 107C118.853 107.123 120.936 106.806 122.438 108.142C122.927 108.577 124.063 109.433 124.303 110.039C124.583 110.745 124.126 111.062 123.872 111.745C123.543 112.628 123.318 114.371 124.263 114.979C125.84 115.995 126.663 112.982 128.303 113.641C129.858 114.266 130.945 116.063 132.72 116.347C135.043 116.719 133.72 113.842 132.916 112.996C131.874 111.898 129.852 110.763 130.514 109.141C130.703 108.677 131.135 107.71 131.524 107.422C132.285 106.858 133.511 107.167 134.382 107.177C136.581 107.2 138.657 107.019 140.812 106.635C141.461 106.519 141.609 106.428 142.067 106.911C142.701 107.58 143.034 108.452 143.771 109.109C142.706 110.256 141.127 111.61 141.868 113.376C142.505 114.895 143.902 114.15 144.847 113.338C145.291 112.957 145.749 112.151 146.337 111.998C147.101 111.799 147.959 112.492 148.584 112.844C149.522 113.372 151.529 114.938 152.595 114.014C154.004 112.791 152.336 110.951 151.365 110.195C150.778 109.739 149.996 109.413 149.501 108.849C148.844 108.099 149.23 107.988 149.628 107.312C150.357 106.075 150.09 104.481 151.257 103.515C151.903 102.979 152.828 102.642 153.567 102.249C154.294 101.862 155.074 101.094 155.787 100.8ZM167.673 105.611C167.39 105.438 167.106 105.264 166.822 105.091C167.471 104.775 167.899 104.812 167.673 105.611ZM183.325 120.646C183.439 120.068 183.885 119.035 184.499 119.575C184.894 119.922 184.462 121.226 185.403 120.866C185.451 121.696 184.832 121.625 185.745 122.364C184.593 122.231 183.002 122.283 183.325 120.646ZM138.601 190.655C138.891 189.878 138.888 188.672 139.782 189.382C139.828 188.44 139.605 185.454 141.317 185.575C142.015 185.624 142.007 186.239 142.191 186.772C142.513 187.701 143.056 188.548 143.513 189.414C141.815 189.482 140.116 189.871 138.601 190.655ZM139.157 201.391C140.127 202.123 140.614 201.258 141.53 200.942C142.376 200.651 143.254 200.826 144.19 200.619C145.353 200.363 146.721 200.402 147.856 200.391C148.136 200.389 148.721 200.433 149.004 200.466C149.518 200.525 149.472 200.631 150.006 200.774C150.211 200.727 150.419 200.692 150.629 200.671C150.886 200.66 151.089 200.766 151.238 200.99C151.717 201.15 151.891 201.043 152.35 201.155C153.443 201.422 154.259 202.08 154.973 202.952C156.427 204.727 156.47 207.396 156.436 209.593C156.427 210.219 156.379 210.842 156.448 211.466C156.512 212.038 156.917 212.904 156.751 213.473C156.5 214.334 155.724 214.14 154.82 214.179C154.288 214.202 153.756 214.544 153.333 214.575C152.923 214.605 152.758 214.454 152.343 214.361C151.261 214.119 149.985 214.464 148.918 214.758C147.823 215.06 146.863 215.358 145.752 215.572C145.03 215.711 144.38 215.79 143.651 215.881C143.053 215.955 142.795 216.27 142.274 216.399C141.771 216.524 141.281 216.337 140.773 216.435C140.082 216.569 139.6 217.076 138.97 217.328C138.101 217.676 136.713 217.156 136.327 218.229C136.177 217.194 135.183 217.475 134.444 217.384C133.225 217.233 132.024 216.687 130.852 216.338C129.891 216.053 126.568 213.422 125.931 214.49C125.932 214.382 126.048 213.77 125.947 213.699C125.593 213.45 125.596 213.587 125.214 213.431C124.63 213.193 124.384 212.977 123.967 212.575C123.122 211.762 121.986 211.337 121.097 210.6C118.862 208.747 118.097 204.931 117.552 202.274C116.84 203.537 117.102 201.917 117.225 201.375C117.517 200.098 117.142 199.468 117.057 198.234C116.979 197.099 117.497 196.874 118.523 196.756C119.787 196.609 121.003 196.405 122.241 196.09C123.423 195.789 124.581 195.449 125.648 194.85C126.624 194.303 127.648 194.087 128.646 193.608C129.747 193.079 130.827 192.523 131.937 192.007C132.438 191.775 134.642 190.113 135.025 190.215C135.811 190.423 135.069 191.797 134.829 192.158C134.214 193.084 133.204 193.513 132.292 194.096C131.47 194.622 128.976 197.111 131.508 196.861C133.185 196.696 134.321 194.94 135.394 196.941C135.773 197.648 136.331 198.215 135.895 198.946C135.287 199.965 133.533 200.45 132.613 201.136C131.83 201.72 130.226 204.476 131.842 204.771C132.307 204.856 133.023 204.746 133.368 204.385C133.601 204.142 133.585 203.641 133.82 203.475C134.154 203.239 134.803 203.531 135.184 203.402C135.727 203.217 135.855 202.921 136.054 202.4C136.634 202.664 136.643 203.019 137.305 202.678C137.524 202.565 137.605 202.15 137.859 202.039C138.201 201.89 138.302 202.378 138.49 202.306C138.998 202.111 138.996 201.892 139.157 201.391ZM104.344 193.287C103.371 193.359 102.309 193.438 101.479 192.818C102.487 192.879 103.377 193.107 104.387 192.898C104.789 192.816 105.432 192.437 105.844 192.569C107.306 193.037 104.733 193.257 104.344 193.287ZM101.643 107.805C101.628 107.463 101.338 102.865 102.91 104.671C103.341 105.165 102.877 105.827 102.815 106.374C102.712 107.295 103.035 108.218 103.521 108.993C103.974 109.716 104.82 110.35 104.693 111.293C104.582 112.12 103.746 112.827 103.334 113.514C102.321 111.919 101.724 109.725 101.643 107.805ZM98.1866 59.5448C94.5431 59.9278 90.918 60.6057 87.4051 61.6518C83.9559 62.6787 80.7407 64.2844 77.4996 65.8227C76.8316 62.9653 76.1322 60.1154 75.4723 57.2557C75.155 55.8795 74.8517 54.4996 74.5547 53.1185C74.343 52.1367 73.5739 50.3058 73.8948 49.3401C74.0652 48.8283 74.29 48.826 74.6564 48.51C74.8802 48.3171 75.2701 47.8452 75.5021 47.7442C76.0671 47.4988 77.518 47.2837 78.096 47.3187C78.6231 47.3504 78.8985 47.5596 79.4406 47.4082C79.9022 47.2795 80.2899 46.9245 80.723 46.7301C81.8252 46.2349 83.2012 46.0689 84.3799 45.8068C85.5145 45.5548 86.6857 45.4986 87.8228 45.2489C88.8187 45.0299 89.292 44.2975 90.1416 44.324C92.3525 44.393 94.7973 44.1341 96.9908 43.6063C99.452 43.0144 102.129 43.1288 104.654 43.0654C105.66 43.0402 106.367 42.8141 106.372 43.9331C106.378 45.2986 105.832 46.8317 105.554 48.1648C104.936 51.1206 104.413 53.9937 104.179 56.9949C104.062 58.4964 103.446 58.3914 102.225 58.8519C100.866 59.3641 99.6322 59.3932 98.1866 59.5448ZM79.0304 89.87C79.9281 90.0024 79.825 87.5493 79.8908 87.0506C82.0313 91.0832 84.4417 94.9642 86.3278 99.1293C86.7684 100.103 87.1689 101.1 87.6347 102.062C87.9534 102.721 88.6665 103.605 88.6495 104.371C88.6312 105.171 87.9848 105.471 87.3033 105.767C86.5669 106.087 86.2793 106.247 85.7601 105.877C85.132 105.428 84.6076 104.046 84.2196 103.38C83.6271 102.363 83.0599 101.332 82.4795 100.308C81.4284 98.4521 80.1878 96.6751 79.3242 94.727C78.5151 92.9016 77.2909 91.3309 76.4187 89.538C75.5551 87.7624 74.3731 86.0789 73.3802 84.3409C74.3773 83.9264 75.6202 82.8908 76.7531 82.9483C77.9233 83.0078 77.8948 84.1363 77.9455 85.0762C77.9989 86.0743 77.6645 89.6681 79.0304 89.87ZM81.905 108.09C81.3711 108.723 80.1672 109.095 79.4288 109.446C78.4062 109.932 77.3593 110.364 76.3415 110.86C73.0023 112.488 69.6772 113.978 66.2755 115.473C64.5171 116.245 62.7803 117.067 61.0644 117.929C60.1654 118.381 58.1848 119.964 57.1507 120.004C55.9651 120.05 55.9373 117.658 55.6762 116.761C55.4567 116.011 55.0494 115.426 54.7753 114.715C54.6637 114.424 54.7504 114.204 54.5803 113.916C54.3866 113.588 53.8439 113.323 53.5648 113.04C52.3799 111.838 51.3978 110.308 50.397 108.953C49.4804 107.713 47.9166 106.159 47.4769 104.639C46.6122 101.65 51.6356 99.9957 53.5576 98.7949C56.9227 96.6925 60.3041 94.5328 63.5121 92.197C64.9731 91.1329 66.4038 90.0266 67.8723 88.9719C68.5577 88.4801 70.4568 86.5659 71.3365 87.2479C71.664 87.5019 71.6702 88.2046 71.8069 88.5729C72.1056 89.3779 72.559 90.0805 73.0184 90.8025C73.4263 91.4417 74.0064 92.1029 74.2612 92.8164C74.5651 93.6671 74.5511 94.1488 75.1072 94.9119C76.1188 96.2996 76.5964 97.9007 77.5369 99.3156C78.4438 100.68 79.315 101.686 79.9081 103.21C80.2483 104.084 80.7852 104.859 81.2596 105.662C81.483 106.042 81.7166 106.414 81.9168 106.807C82.2754 107.509 82.402 107.5 81.905 108.09ZM53.2023 119.764C52.5605 120.223 51.6157 119.451 50.9931 119.441C50.7222 119.436 50.4533 119.647 50.2724 119.641C49.7283 119.625 49.2837 119.26 48.7829 119.09C46.4709 118.304 43.7144 118.274 41.7394 116.679C37.8159 113.508 39.6865 107.148 40.401 103.027C40.5466 102.187 40.8086 101.024 40.1292 100.335C39.3842 99.5809 38.2638 100.031 37.582 100.641C36.8825 101.267 36.4069 102.144 35.8255 102.874C34.8994 104.038 33.8885 105.138 32.8674 106.218C29.2397 110.056 25.398 114.448 20.9102 117.264C19.0438 118.436 17.3544 120.024 15.3087 120.917C12.8479 121.991 15.3742 117.844 15.8165 117.171C18.7127 112.762 22.9293 109.272 26.4704 105.401C27.1387 104.671 28.0878 103.686 28.0996 102.633C28.1176 101.053 26.7206 101.195 25.6159 101.634C24.5827 102.044 24.0652 103.066 23.2339 103.763C22.1991 104.632 20.99 105.337 19.8381 106.038C17.3537 107.551 14.7166 108.82 12.0873 110.057C10.8575 110.636 9.62191 111.202 8.38627 111.768C8.04701 111.924 6.02 113.209 6.11684 112.107C6.12992 111.959 7.42314 110.39 7.58279 110.332C8.37907 110.041 8.77394 110.919 9.48254 109.769C9.98602 108.952 10.0557 108.528 10.7666 107.908C10.8876 107.802 10.9707 107.536 11.0689 107.363C11.0568 107.428 11.5969 106.903 11.4935 106.994C11.6355 106.869 11.8416 106.64 11.9568 106.489C12.5126 105.764 13.5807 105.751 14.0636 104.922C14.2478 104.607 14.1434 104.202 14.3656 103.889C14.6767 103.45 15.3611 103.263 15.7262 102.877C16.0393 102.545 16.2974 102.274 16.4917 102.071C16.6255 101.931 16.8604 101.833 17.0187 101.673C17.4129 101.275 17.3819 100.922 17.9334 100.587C18.4287 100.287 18.6564 100.568 18.8279 99.8234C19.4305 100.209 19.3549 99.6447 19.5996 99.2401C19.9176 98.7139 20.3216 98.4792 20.76 98.0985C21.7244 97.2605 22.6287 96.013 23.4492 94.958C25.4899 92.3346 27.1404 89.2671 27.7482 85.9756C27.8938 85.1886 27.974 84.3935 28.0319 83.5954C28.0626 83.1757 27.9255 82.1538 28.1856 81.7426C28.5896 81.1046 29.3562 81.3579 29.9395 81.0788C30.1377 80.9837 30.3333 80.7043 30.5192 80.6409C30.7793 80.552 31.0976 80.6386 31.3675 80.553C31.4725 80.52 31.4967 80.2118 31.6701 80.1722C32.0103 80.0944 32.3483 80.218 32.6846 80.2226C33.4203 80.2324 34.1466 80.1029 34.8522 79.8686C35.4941 79.6555 36.0313 79.1669 36.6718 78.9908C36.6064 79.0091 37.7276 79.098 37.667 79.0349C37.7207 78.7591 37.7743 78.4832 37.828 78.2074C38.2536 78.5045 39.7048 78.896 40.155 78.8283C40.8787 78.7192 40.7262 78.0675 41.3396 78.9234C41.687 78.6208 42.0341 78.3182 42.3812 78.0155C42.6443 79.1182 44.456 78.5832 45.2772 78.644C46.4343 78.7303 47.3457 78.5133 48.4001 78.9156C49.6825 79.4058 50.8073 79.9222 52.1885 80.0559C53.1536 80.149 53.555 80.6023 54.5005 80.8821C55.7711 81.2576 55.8715 81.672 55.474 82.9692C55.1518 84.0209 54.8734 84.8317 55.3442 85.9109C56.1794 87.8245 58.4488 88.6128 59.9121 89.9351C56.4843 92.3385 53.0999 94.7028 49.7866 97.2641C48.3982 98.3367 46.9217 99.4113 46.131 101.025C45.4018 102.515 44.9883 104.305 44.5496 105.899C43.5429 109.555 46.3783 112.016 49.2909 113.624C49.8939 113.956 54.0451 119.162 53.2023 119.764ZM47.5492 124.183C47.3441 123.48 47.3709 123.292 48.0504 123.04C48.3075 122.944 49.2932 122.819 49.4529 123.172C49.8141 123.972 47.9156 123.962 47.5492 124.183ZM76.4331 73.2308C76.6765 74.7911 76.916 76.3517 77.1336 77.9155C77.2533 78.7796 77.5252 79.5438 76.881 80.1954C76.5149 80.5654 75.627 80.7036 75.1596 80.9007C74.4856 81.1851 73.8287 81.5109 73.1806 81.8501C72.0248 82.4548 70.817 82.8188 69.6762 83.3643C69.1799 83.6009 68.8858 84.0676 68.4563 84.3895C67.8687 84.8301 67.1539 85.0445 66.5474 85.4635C65.4635 86.2129 64.4703 87.0999 63.3871 87.8542C62.16 88.7092 61.9042 88.4346 61.2149 87.1715C60.5962 86.0374 59.8536 85.52 58.9628 84.6311C58.6163 84.2853 57.3764 82.3149 58.4295 82.1453C58.6994 82.1015 59.6318 82.5067 59.8431 82.6365C60.1641 82.8332 60.677 83.9519 60.9381 83.9709C61.4082 84.0052 62.0101 82.6679 62.3033 82.3159C64.2233 80.0069 66.3354 77.723 68.5603 75.7033C69.7135 74.6564 70.9249 73.7024 72.2322 72.8573C73.162 72.2566 73.9733 71.4147 74.89 70.8447C75.084 70.677 75.3035 70.5571 75.5502 70.4852C76.0285 70.2682 76.2081 70.4555 76.089 71.047C76.3631 71.6258 76.3334 72.5922 76.4331 73.2308ZM34.4345 71.1862C34.901 70.7117 35.4905 70.3322 35.8975 69.8025C36.1271 69.5038 36.2786 68.9694 36.5413 68.7762C36.9987 68.4396 37.653 68.5949 38.1849 68.1435C38.6985 67.7072 39.1497 67.1849 39.6515 66.7323C40.7393 65.7518 41.8617 64.8504 42.9289 63.8523C43.5354 63.285 44.1714 62.549 44.7102 62.1744C44.8532 62.0751 45.0131 61.9273 45.1649 61.8509C45.4895 61.6875 45.6514 61.8538 46.1251 61.7015C46.4385 61.6012 46.6623 61.2047 46.9136 61.0171C47.5113 60.5714 48.2899 60.3949 48.865 59.9658C49.4401 59.5366 49.7169 58.8702 50.5086 58.5124C51.4662 58.0797 52.1839 58.4215 52.8762 57.594C53.1585 57.2567 53.2357 56.8315 53.679 56.6188C54.2129 56.3622 54.6817 56.6344 55.1917 56.3429C55.5356 56.1462 55.7704 55.7337 56.1254 55.5183C56.7607 55.1343 57.4638 55.0935 58.0579 54.618C58.5594 54.2169 58.281 54.2581 58.8748 54.0888C59.1358 54.0143 59.4253 53.9823 59.7041 53.8872C60.5969 53.5829 62.0546 53.2103 62.5833 52.3645C62.8519 52.7557 62.9438 52.8351 63.3793 52.7136C63.6079 52.5276 63.8176 52.3233 64.0087 52.1001C64.1487 52.2769 64.2992 52.2877 64.4595 52.1318C65.4017 51.8083 66.266 51.2523 67.1941 50.9438C67.3257 51.0147 67.4572 51.086 67.5884 51.1566C67.7712 51.1667 67.8455 51.0775 67.8108 50.8886C68.1759 50.8219 68.5966 50.6614 68.9329 50.515C69.5781 50.2343 70.2906 49.5669 71.0506 49.8058C72.3196 50.2045 72.3804 52.791 72.5993 53.8159C73.1391 56.3419 73.6822 58.867 74.2242 61.3923C74.4447 62.4202 74.6384 63.4556 74.9286 64.4658C75.1183 65.126 75.5904 66.0996 75.42 66.8016C75.2109 67.6621 74.3705 67.9422 73.6678 68.3403C72.6991 68.8887 71.7628 69.4972 70.8461 70.129C66.9547 72.8105 64.0535 76.4984 61.2943 80.282C60.783 79.5398 59.4139 78.4979 58.5604 78.1632C57.9627 77.9292 57.4248 78.1178 56.8298 77.8322C56.4054 77.6282 56.0531 77.2298 55.6517 76.9733C53.2017 75.4055 50.2446 74.1097 47.4046 73.4877C41.5778 72.2108 35.8733 74.1878 30.2234 75.1261C31.3698 73.5515 33.084 72.5586 34.4345 71.1862ZM73.4378 28.4558C74.4349 25.2088 76.1142 22.0654 78.504 19.6298C79.7089 18.4018 81.1251 17.3286 82.7124 16.6458C84.0933 16.0523 85.7356 15.4831 85.7143 17.3917C85.6676 21.535 84.7097 25.6314 84.5926 29.7814C84.4787 33.848 85.1602 37.1123 87.6236 40.3894C86.0628 40.7515 84.5026 41.1189 82.9476 41.5042C81.7666 41.7967 80.5421 42.1248 79.4249 42.3258C78.3205 42.5239 77.3047 42.6533 76.2126 43.0262C75.4766 43.2775 74.3234 44.0459 73.5268 43.8792C72.2028 43.6021 72.5162 38.8569 72.4482 37.7169C72.2571 34.4974 72.4868 31.5544 73.4378 28.4558ZM97.636 34.7072C99.4448 32.5136 101.324 29.9546 104.367 29.5474C107.31 29.1535 108.394 32.679 108.207 35.0563C108.144 35.8606 108.024 37.9493 107.439 38.601C106.792 39.322 105.644 38.7785 104.821 38.6674C101.273 38.1873 97.6343 38.9886 94.0756 38.9886C95.2622 37.5611 96.4549 36.1391 97.636 34.7072ZM112.197 43.4547C113.432 43.6315 114.417 43.8194 113.821 45.2231C112.628 48.0348 111.712 50.718 112.757 53.7829C113.556 56.1236 116.084 58.965 118.611 59.434C119.496 59.5984 120.828 59.3043 121.372 60.2027C121.857 61.0031 121.332 63.4029 121.275 64.2916C121.065 67.602 120.216 70.8869 118.072 73.488C116.163 75.8026 113.834 77.6142 111.059 75.4294C108.719 73.5881 107.338 70.294 106.645 67.4788C106.276 65.976 106.231 64.4766 106.16 62.9408C106.098 61.5825 105.839 60.721 107.376 60.4393C107.788 60.3642 108.818 60.3877 108.819 59.7592C108.821 58.9147 107.705 59.2314 107.278 59.1886C105.631 59.0245 106.403 57.1113 106.556 55.8739C106.817 53.7669 107.241 51.6834 107.629 49.5976C107.96 47.821 107.978 45.4927 108.696 43.8318C109.116 42.8618 111.374 43.3367 112.197 43.4547ZM115.229 49.694C115.416 48.5488 115.516 47.1177 116.653 46.4846C117.903 45.7892 118.529 46.9223 119.146 47.8481C120.782 50.3045 122.592 52.6031 122.86 55.6523C122.892 56.0161 123.048 56.7462 122.697 56.9979C122.541 57.1103 122.167 56.8139 121.925 56.8315C120.629 56.9247 119.692 57.2714 118.421 56.5406C115.935 55.1098 114.777 52.4576 115.229 49.694ZM125.004 56.5534C124.737 53.8868 123.504 51.5223 122.127 49.2711C121.448 48.1612 120.13 46.9477 119.662 45.7751C119.41 45.1469 119.855 44.3691 120.768 44.6384C121.222 44.7727 122.098 45.9774 122.402 46.3941C123.182 47.4654 123.829 48.6603 124.447 49.83C125.107 51.0801 126.983 55.6677 125.004 56.5534ZM116.82 30.0016C116.964 27.493 116.979 24.612 118.605 22.5301C119.866 20.9156 122.173 20.2129 124.046 19.5889C126.568 18.7479 129.597 18.6181 132.235 18.8899C134.556 19.1293 136.309 20.7084 137.741 22.4448C139.198 24.2107 140.327 26.4844 141.329 28.5388C141.58 29.0529 143.706 32.3515 142.268 32.2747C141.697 32.244 141.201 31.1311 140.764 30.8024C140.422 30.5451 140.016 30.5769 139.71 30.371C139.38 30.1504 139.452 29.9461 139.197 29.6735C137.439 27.7989 135.823 28.8784 133.928 29.8657C133.84 29.2117 133.995 27.9969 133.447 27.5191C132.731 26.8936 131.983 27.8845 131.469 28.3701C131.001 28.813 130.425 29.6196 129.836 29.8591C129.071 30.17 129.331 29.8395 128.667 29.5784C127.329 29.0529 126.3 30.6086 125.624 31.5132C125.372 31.8505 124.959 32.7025 124.508 32.7937C124.071 32.8816 124.014 32.5708 123.637 32.4561C122.572 32.1315 122.277 32.8904 121.938 33.8327C121.556 34.8922 121.231 35.9132 120.666 36.9028C119.666 38.654 119.237 39.2301 120.027 41.164C118.872 41.3352 118.63 41.4728 118.057 40.4489C117.468 39.3936 117.315 38.5183 117.352 37.3055C117.429 34.769 116.671 32.578 116.82 30.0016ZM143.629 42.0032C144.838 44.1848 145.607 47.2206 145.594 49.7061C145.587 50.9392 145.515 52.4557 144.939 53.5744C144.386 54.6477 143.229 55.185 142.163 55.6422C139.593 56.7449 136.698 56.7322 133.997 56.2406C132.595 55.985 131.231 56.1501 130.031 55.3085C129.128 54.6745 128.039 54.0591 127.774 52.8972C127.664 52.4109 127.834 52.0034 127.799 51.5262C127.843 51.2991 127.827 51.0778 127.75 50.8614C127.592 50.7709 127.433 50.6827 127.273 50.5967C127.147 50.2343 127.389 49.8303 127.327 49.4519C127.252 48.995 126.873 48.623 126.695 48.209C126.206 47.067 126.555 46.4284 127.47 45.6529C127.689 45.4806 127.909 45.3104 128.131 45.1414C128.33 44.827 128.55 44.8257 128.79 45.1371C129.226 45.143 129.213 45.2773 129.672 45.144C130.675 44.8518 131.517 43.7847 132.501 43.4099C132.883 43.2641 133.453 43.388 133.763 43.1193C134.04 42.8791 133.862 42.3752 134.106 42.1395C134.883 41.3859 136.107 42.1003 136.827 41.0048C137.414 40.1109 137.289 38.8429 137.35 37.8281C139.152 38.1722 139.933 39.8982 141.414 40.7662C141.707 39.6318 141.75 39.6658 142.88 39.3543C142.368 40.3011 143.196 41.2225 143.629 42.0032ZM145.009 29.9608C145.341 30.3883 145.595 31.4495 145.009 31.5518V29.9608ZM146.548 33.8206C149.3 33.8261 151.059 37.3022 151.862 39.4557C152.736 41.7973 153.656 44.9208 152.026 47.2014C151.401 48.0759 150.634 48.156 149.628 48.0426C148.416 47.906 147.795 47.7308 148.269 46.4369C149.158 44.0122 148.49 40.9296 146.915 38.8997C149.081 38.4817 147.708 36.4966 146.621 35.7537C145.351 34.8863 144.325 33.8157 146.548 33.8206ZM83.7119 159.488C83.0644 161.204 82.4062 162.915 81.8628 164.682C81.3479 166.358 81.6463 168.245 81.006 169.856C80.6121 169.662 80.4993 169.316 80.1567 169.106C79.9457 168.976 79.578 168.924 79.3968 168.781C79.0853 168.536 78.3299 167.622 78.1252 167.267C77.4179 166.041 77.8896 164.047 78.2678 162.786C78.7356 161.225 79.5352 159.726 80.6085 158.496C81.3616 157.634 81.7771 157.908 82.7837 158.333C83.3792 158.584 83.9922 158.744 83.7119 159.488ZM78.8066 173.026C78.2894 174.071 77.3335 174.933 76.7655 175.986C76.1698 177.093 75.7186 178.339 74.9587 179.351C74.1853 180.382 73.4901 180.209 72.4249 180.654C72.0425 180.814 71.8815 181.11 71.574 181.341C70.9969 181.773 70.3642 182.038 69.7577 182.423C69.3265 181.365 68.0087 176.057 66.3318 176.171C64.8743 176.27 65.6199 179.049 65.8077 179.869C65.9667 180.561 66.1483 181.264 66.39 181.933C66.6341 182.608 67.3947 183.62 67.1133 184.36C66.7558 185.301 65.8659 185.239 65.4203 184.553C65.0477 183.979 64.8586 183.199 64.5838 182.574C64.3424 182.025 63.2389 179.02 62.285 179.486C61.366 179.935 62.7953 182.848 63.0344 183.42C63.6122 184.802 64.7199 186.131 63.2559 187.238C61.0336 188.919 58.297 190.184 55.8074 191.396C54.3542 192.104 53.0476 193.034 51.5221 193.608C50.1055 194.142 48.4685 194.232 47.0987 194.846C46.7618 194.997 46.9878 195.184 46.4955 195.272C46.0826 195.345 45.3612 195.149 44.9186 195.152C44.1851 195.159 43.4504 195.215 42.7185 195.123C42.306 195.071 41.3674 194.62 41.5159 195.365C40.9326 195.203 40.7069 194.615 40.2813 194.248C39.9021 193.92 39.4179 193.743 38.9946 193.485C38.1195 192.953 37.4652 192.347 37.2025 191.333C36.5861 188.953 37.8892 186.475 39.4974 184.815C40.4206 183.863 41.5035 183.071 42.3498 182.046C42.6469 181.687 42.8582 181.268 43.2351 180.976C43.6967 180.618 44.3301 180.574 44.777 180.211C45.1097 179.941 45.2091 179.511 45.5578 179.264C46.0734 178.898 46.6767 179.05 47.1638 178.569C47.4416 178.295 48.3952 177.003 48.3285 176.645C48.5895 176.732 48.8513 176.82 49.112 176.907C49.271 176.111 50.6453 175.129 51.3232 174.748C51.666 174.555 52.3341 174.564 52.5893 174.357C52.9285 174.08 52.9007 173.501 53.1699 173.155C53.9423 172.161 55.5585 171.715 56.5815 171.023C57.8825 170.143 59.1463 169.145 60.3217 168.103C62.6975 165.997 64.7919 163.549 66.5029 160.875C67.1922 159.798 67.8317 158.699 68.3225 157.519C68.6248 156.792 68.9261 155.5 69.6723 155.079C70.443 154.644 72.2129 155.233 73.0759 155.295C74.3436 155.387 76.3196 155.33 77.4558 155.952C78.6705 156.618 77.6829 157.168 77.0577 157.961C76.1426 159.122 75.5943 160.544 75.1373 161.936C74.7853 163.008 74.7195 164.045 74.4892 165.125C74.2461 166.267 74.2484 167.808 74.8118 168.858C75.3696 169.896 79.3886 171.851 78.8066 173.026ZM30.8911 194.078C28.1621 190.366 30.4214 184.932 33.0912 181.932C36.3123 178.312 40.8966 176.277 44.6624 173.333C49.0168 169.93 53.4889 166.768 57.3473 162.776C59.303 160.753 61.0058 158.572 62.5499 156.221C63.8605 154.224 64.8122 151.564 67.4604 151.276C65.8983 153.221 65.807 156.025 64.5992 158.19C63.3204 160.484 61.435 162.392 59.515 164.155C55.461 167.878 51.0824 171.289 46.7035 174.616C44.4684 176.314 42.2952 178.089 40.0676 179.796C38.0727 181.325 35.9773 182.632 34.8277 184.961C32.8442 188.98 32.7258 194.933 37.1181 197.409C34.8549 196.958 32.3093 196.006 30.8911 194.078ZM268.84 26.6749C268.033 25.0611 266.519 24.4862 265 23.8548C263.513 23.2367 262.154 22.4756 260.504 22.2778C259.771 22.1899 257.702 22.4082 257.606 21.3464C257.525 20.4616 259.686 19.5735 260.185 18.8993C260.923 17.9001 261.425 16.2778 261.138 15.0158C260.867 13.8189 259.702 13.4408 258.614 13.2239C255.23 12.5498 251.633 13.0456 248.24 13.3226C248.655 12.7424 249.24 12.2665 249.574 11.5716L250.111 12.6888C250.418 12.0499 250.75 11.4229 251.131 10.8246C251.388 11.1138 251.646 11.4034 251.904 11.6926C251.476 10.1905 252.916 10.1982 252.764 8.93206C252.706 8.43957 252.372 8.22383 252.29 7.82795C252.129 7.04093 252.737 6.54874 252.045 5.81891C251.274 5.0061 250.014 5.32851 249.117 5.40437C249.005 5.41414 248.842 5.63667 248.696 5.65474C248.495 5.68024 248.378 5.40289 248.129 5.4177C247.46 5.45711 246.871 5.97598 246.206 6.13361C243.126 6.86432 240.045 8.16756 237.089 9.38422C234.08 10.6228 231.125 12.065 228.502 14.0089C225.693 16.0893 223.665 18.7639 221.422 21.399C220.368 22.6373 219.277 23.8267 218.475 25.2532C218.06 25.9905 217.685 28.3064 216.939 28.643C216.128 29.0084 214.09 27.9747 213.261 27.7838C211.31 27.3351 209.367 27.1478 207.367 27.238C205.776 27.3093 204.097 27.2668 202.518 27.4612C201.602 27.574 199.32 28.5894 199.173 29.7252C199.108 30.2298 199.687 30.6494 199.817 31.1223C200.013 31.8374 199.689 32.5953 199.915 33.312C200.376 34.7736 202.515 35.3112 203.776 35.7714C207.295 37.0568 210.863 38.0536 214.419 39.204C215.964 39.7044 217.285 40.5005 218.685 41.2999C219.846 41.9624 220.905 42.6255 219.732 43.8697C218.622 45.0482 218.76 45.5241 219.091 47.1478C219.44 48.8613 219.561 50.5941 220.016 52.291C220.468 53.981 221.314 55.5951 221.15 57.3832C220.985 59.1654 220.247 60.9959 219.556 62.6294C218.859 64.2792 218.089 65.9097 217.332 67.533C216.631 69.0348 215.872 70.5574 214.251 71.1983C211.155 72.4216 207.2 72.2278 203.974 71.7833C200.312 71.2791 196.529 70.4241 193.066 69.1188C189.736 67.8638 186.074 65.9388 183.32 63.6644C181.849 62.4496 180.256 61.5495 178.695 60.4622C177.112 59.3605 175.911 57.8747 174.525 56.5557C171.808 53.9702 168.464 52.1887 165.021 50.7673C161.151 49.1695 157.156 49.3355 153.055 49.1626C153.7 47.8955 154.531 46.6846 154.836 45.2741C155.154 43.805 154.924 42.2088 154.723 40.741C154.332 37.8843 153.592 35.37 151.787 33.0627C150.961 32.0077 149.998 31.1851 148.623 31.0318C147.79 30.9386 146.251 31.5779 145.649 30.873C145.385 30.5621 145.446 29.9085 145.28 29.5258C145.132 29.1859 144.835 28.8437 144.674 28.4747C143.986 26.8965 143.127 25.5016 142.269 24.0044C141.928 23.409 141.664 22.5301 141.199 22.0291C140.946 21.7566 140.62 21.6327 140.479 21.4333C140.214 21.0601 140.092 20.378 139.871 19.9569C139.493 19.2363 139.012 18.5666 138.457 17.9719C137.569 17.0213 136.427 16.1824 135.211 15.7089C134.535 15.4457 134.04 15.3835 133.334 15.422C133.127 15.4333 132.897 15.5524 132.691 15.5367C132.196 15.4991 132.273 15.3219 131.877 15.2395C129.223 14.6874 125.665 15.462 123.176 16.4129C120.554 17.4145 118.425 18.7352 116.831 21.1085C112.918 26.937 113.83 34.4628 115.49 40.8826C114.486 40.6191 113.486 40.3077 112.472 40.0845C111.851 39.9475 111.004 39.9733 110.449 39.6459C109.216 38.9174 110.219 37.0483 110.227 35.8407C110.246 32.7718 108.796 27.9731 105.635 26.6769C102.341 25.3261 98.3334 29.1173 96.2973 31.2671C94.991 32.6463 93.8031 34.1327 92.5531 35.5612C91.6796 36.56 90.526 38.152 88.9947 37.8911C85.6548 37.3221 86.6735 30.9739 86.8217 28.8284C87.0563 25.4366 87.5562 21.9902 87.5588 18.5897C87.5605 16.5226 87.2025 13.7339 84.6616 13.4915C81.1647 13.1581 77.852 16.3359 75.8129 18.7808C70.4349 25.2277 69.247 33.7493 70.6855 41.8395C70.8965 43.0255 71.5698 44.4887 70.285 45.2251C68.5973 46.1925 66.4397 46.7781 64.626 47.4886C60.57 49.0763 56.8144 51.1941 52.9959 53.2642C49.2154 55.3141 45.4954 57.3486 42.0845 59.9893C38.6845 62.6218 35.3188 65.4113 32.2213 68.3958C30.6778 69.8835 29.188 71.4356 27.7826 73.0553C26.4602 74.579 25.3888 76.3095 23.9513 77.7335C22.9728 78.7032 21.1729 80.0033 20.9579 81.4825C20.7842 82.6763 22.7998 83.5042 23.7092 84.0559C24.3328 84.4343 24.765 84.4226 24.8101 85.0971C24.8657 85.9384 23.9782 87.2865 23.6621 88.0885C22.857 90.1345 21.8049 91.8293 20.4214 93.5318C17.3573 97.3033 13.6547 100.501 10.1401 103.851C6.87484 106.964 3.675 110.028 1.28126 113.891C0.694681 114.837 -0.764827 116.781 0.622381 117.667C0.981263 117.896 2.08277 118.077 2.4482 117.831C2.9013 117.526 2.67164 117.066 3.20685 116.76C3.07272 117.789 7.74767 115.779 8.11146 115.593C9.09389 115.09 9.98242 114.5 10.9868 114.05C11.576 113.785 11.6473 113.417 12.1033 113.122C12.3474 112.964 12.3503 113.175 12.6765 113.077C12.9703 112.989 13.6599 112.955 13.8791 112.672C13.885 112.664 14.1244 111.98 13.921 112.121C14.7172 111.567 15.188 112.405 14.71 113.192C13.2964 115.518 11.5092 117.229 10.9554 120.023C10.7542 121.038 10.411 122.923 11.0313 123.848C11.0538 123.882 11.2626 123.784 11.2881 123.82C11.3116 123.854 11.5393 124.17 11.6329 124.26C12.1809 124.784 12.1455 125.017 13.0602 124.995C13.4659 124.985 14.2749 124.933 14.6463 124.75C14.9256 124.613 15.0621 124.273 15.277 124.152C15.4942 124.03 15.4687 123.966 15.6725 123.895C15.7144 123.88 15.7945 124.236 15.874 124.221C16.3098 124.139 16.4976 123.879 16.8679 123.67C17.9348 123.066 18.9806 122.403 19.9964 121.795C21.0191 121.184 21.783 120.331 22.8014 119.621C23.8836 118.866 24.7686 118.288 25.6008 117.241C26.1769 116.516 26.8646 116.252 27.2513 115.895C27.7103 115.471 28.5016 113.835 29.2413 113.64C29.5783 113.551 29.8479 113.849 30.0324 113.727C30.2401 113.59 30.0137 113.327 30.1178 113.172C30.3124 112.884 30.3366 112.836 30.6677 112.571C31.0913 112.232 31.6122 112.141 31.9678 111.7C32.3633 111.209 32.4176 110.659 32.9041 110.199C34.0746 109.092 35.1166 107.926 36.3568 106.854C35.8779 109.523 35.4032 112.172 35.7745 114.886C36.134 117.516 37.2512 118.694 39.4441 120.029C39.927 120.323 40.4334 120.751 40.9519 120.959C41.267 121.086 41.7417 121.01 41.9766 121.103C42.7719 121.418 42.5013 122.063 42.6102 122.79C42.7794 123.916 43.8155 124.783 44.4841 125.66C45.0465 126.398 46.0607 128.077 47.0016 128.332C47.8512 128.562 48.6527 127.569 49.3603 127.146C50.4271 126.509 51.5895 126.052 52.7146 125.531C54.912 124.514 57.0352 123.3 59.2081 122.224C60.2007 121.733 61.2031 121.533 62.2535 121.216C63.5154 120.835 64.592 120.105 65.8021 119.608C67.978 118.713 70.0629 117.646 72.2257 116.707C76.702 114.763 81.5841 113.427 85.5675 110.511C87.3694 109.191 89.6895 109.051 91.4656 107.769C93.3166 106.432 92.1814 104.388 91.3891 102.748C89.2237 98.2668 87.9314 93.6131 84.9504 89.5308C83.4017 87.4097 81.9708 85.2181 80.62 82.9633C79.4252 80.9677 79.4494 78.7074 79.1498 76.4533C78.9489 74.947 78.7608 73.4341 78.5154 71.9343C78.36 70.981 77.8579 69.7799 78.4654 68.9161C79.118 67.9876 80.6684 67.5925 81.6482 67.1026C82.8659 66.494 84.0449 65.8391 85.3084 65.3237C88.1954 64.1465 91.2363 63.3317 94.265 62.6124C95.168 62.398 99.0339 60.8642 99.7696 61.7626C98.8657 62.3663 98.602 63.4621 98.1964 64.4017C97.5928 65.8015 96.9696 67.1353 96.5292 68.602C95.6191 71.6353 94.8451 74.7169 94.1031 77.7946C93.366 80.8504 92.488 83.9304 92.2626 87.0787C92.1471 88.6856 92.2262 90.2936 92.2233 91.9022C92.2203 93.619 91.8641 95.3028 91.9276 97.0239C91.9701 98.1684 92.0663 99.5433 92.7372 100.52C93.3588 101.424 94.4162 101.525 95.3374 102.009C96.5531 102.647 97.0291 102.919 97.0402 104.308C97.0536 105.927 96.9489 107.517 97.1004 109.135C97.6284 114.768 99.5226 121.453 103.303 125.803C103.555 126.092 110.891 135.336 111.703 133.983C112.262 134.645 113.098 134.887 113.787 135.464C114.869 136.37 115.93 137.095 116.825 138.218C118.453 140.262 119.837 142.657 120.244 145.27C120.594 147.519 120.384 150.208 119.114 152.157C117.841 154.112 115.118 155.395 113.063 156.358C110.361 157.623 107.62 157.765 104.687 157.448C103.239 157.292 101.804 157.047 100.367 156.816C99.769 156.72 99.0718 156.72 98.5059 156.495C97.899 156.254 97.6935 155.987 97.0877 155.958C96.6352 155.935 96.3879 156.035 95.9096 155.936C95.3175 155.812 94.6746 155.587 94.0841 155.436C93.4275 155.267 92.889 155.026 92.2841 154.717C91.7241 154.43 91.093 154.374 90.5539 154.103C89.6248 153.634 89.3382 152.85 88.0813 153.285C86.7543 153.743 87.0318 154.89 86.1848 155.676C85.432 156.375 84.4996 155.729 83.7505 155.313C82.648 154.702 81.503 154.193 80.3292 153.73C79.0611 153.23 77.7659 152.795 76.4462 152.45C75.0028 152.074 73.4175 151.999 72.0271 151.451C70.8052 150.969 70.2795 150.037 69.3942 149.167C68.4631 148.252 67.2 147.903 65.9094 147.984C63.5592 148.133 61.9539 150.672 60.7123 152.435C57.2436 157.36 53.4094 161.556 48.7727 165.425C46.5573 167.273 44.0602 168.845 41.9177 170.763C41.0141 171.572 40.3578 172.331 39.2877 172.934C37.882 173.725 36.6064 174.718 35.2625 175.61C30.0062 179.1 26.1508 184.185 27.6043 190.823C28.2586 193.811 29.5655 195.909 32.0074 197.707C33.1161 198.523 34.1306 199.202 35.5429 199.155C36.8763 199.111 38.0527 199.064 37.2673 197.479C38.2624 197.787 39.0954 198.547 40.1818 198.936C41.4335 199.384 43.062 199.663 44.3909 199.69C46.519 199.734 49.022 198.613 50.8855 198.137C51.4063 198.005 52.4103 197.787 53.0038 197.298C53.4758 196.909 53.3734 196.449 54.0879 196.264C55.0242 196.022 55.3808 196.305 56.2775 195.738C57.5783 194.915 58.9889 194.427 60.3384 193.668C62.1564 192.647 63.904 191.495 65.705 190.443C65.9451 191.104 67.3561 195.033 68.2276 193.139C68.9859 191.49 66.5238 190.078 68.0205 188.408C69.4485 186.817 69.7469 188.49 71.132 189.229C73.055 190.256 72.7665 188.339 72.2074 187.204C71.9839 186.75 71.5138 186.065 71.6522 185.536C71.9191 184.513 72.7472 185.113 73.3982 185.217C74.4235 185.382 75.2521 185.1 76.0219 184.413C76.6638 183.84 77.7254 183.345 78.1134 182.59C78.3074 182.212 78.3414 181.692 78.5027 181.291C78.7157 180.761 78.8675 180.89 78.945 180.233C78.8707 179.894 78.8413 179.55 78.8563 179.202C79.0248 179.168 79.1926 179.134 79.3605 179.1C79.3657 179.076 79.3775 178.414 79.3098 178.512C79.4668 178.284 79.8041 178.188 79.9981 177.872C80.1764 177.581 80.0105 177.023 80.0822 176.68C80.2274 175.985 80.6233 175.423 80.9468 174.804C81.6312 177.697 81.4333 180.715 82.0872 183.61C82.6244 185.986 83.8476 188.117 85.2747 190.066C85.9362 190.969 86.8119 191.61 87.5042 192.469C88.0901 193.195 88.3832 193.834 89.2479 194.264C89.8233 194.549 90.4704 194.696 91.0632 194.942C91.4424 195.1 92.3054 195.825 92.661 195.812C92.3512 195.824 93.2433 195.851 93.0366 195.816C93.052 195.819 92.9309 195.428 93.0386 195.434C94.3318 196.658 95.6829 196.661 97.1796 197.421C97.8653 197.77 98.1218 197.748 98.8526 197.877C99.7997 198.044 100.597 198.583 101.504 198.641C102.899 198.73 104.472 198.917 105.927 198.865C106.323 198.851 107.067 198.596 107.378 198.942C107.583 199.171 107.194 200.822 107.169 201.2C106.914 205.166 107.444 209.329 109.119 212.958C110.507 215.967 111.988 219.526 114.444 221.824C117.166 224.37 120.98 226.165 124.621 226.852C128.653 227.613 132.649 227.043 136.693 226.807C140.796 226.567 144.592 225.986 148.549 224.797C152.229 223.692 155.714 222.252 159.235 220.733C161.63 219.7 164.666 218.213 163.411 215.077C163.107 214.319 161.93 212.211 160.888 213.251C159.967 214.171 161.507 215.913 162.205 216.498C156.95 220.159 150.573 221.37 144.424 222.667C141.047 223.379 137.72 223.349 134.286 223.359C131.375 223.367 128.465 223.451 125.573 223.045C122.957 222.677 119.911 221.988 117.964 220.077C115.927 218.078 114 215.691 112.61 213.197C111.085 210.459 110.715 207.5 110.592 204.413C110.527 202.787 110.454 201.142 110.624 199.521C110.748 198.344 111.349 198.204 111.647 197.274C112.337 198.239 112.79 197.882 113.637 197.319C114.184 198.845 113.94 200.43 113.846 202.004C113.755 203.537 113.959 205.091 114.147 206.614C114.465 209.202 115.707 211.901 117.281 213.985C117.993 214.927 119.06 215.325 120.025 215.975C121.255 216.804 122.531 217.577 123.816 218.321C126.234 219.723 128.874 220.921 131.6 221.133C132.555 221.207 133.25 221.704 134.387 221.634C135.063 221.593 135.744 221.362 136.418 221.38C137.093 221.399 137.674 221.615 138.368 221.564C141.251 221.356 144.224 220.412 147.08 219.893C150.171 219.332 153.282 218.728 156.233 217.62C157.512 217.139 158.568 216.52 159.282 215.314C159.791 214.451 159.658 212.905 160.608 212.39C159.986 211.588 160.217 211.446 160.754 210.729C161.005 210.395 161.815 209.51 160.833 209.526C161.132 208.234 160.632 206.984 160.419 205.721C160.327 205.175 160.352 204.348 160.014 203.878C159.817 203.604 159.489 203.599 159.313 203.397C159.13 203.393 158.988 203.317 158.886 203.17C158.874 202.954 158.975 202.823 159.189 202.776C159.139 202.348 159.456 202.502 159.139 201.834C158.708 200.922 157.889 200.128 157.114 199.508C156.453 198.98 155.967 198.042 155.204 197.76C154.212 197.393 153.171 196.995 152.128 196.655C149.764 195.882 147.421 195.587 144.941 196.015C143.805 196.211 142.686 196.452 141.589 196.803C140.947 197.008 139.965 197.562 139.397 196.965C139.201 196.76 138.794 195.018 138.819 194.83C138.921 194.074 140.465 193.769 141.029 193.505C141.89 193.102 143.484 192.672 144.031 191.872C144.26 191.536 144.001 190.113 144.038 190.087C144.4 189.844 145.916 193.302 146.328 193.538C146.925 193.878 148.603 193.428 149.22 193.36C151.062 193.158 152.934 193.043 154.737 192.604C158.196 191.763 161.592 190.461 164.957 189.31C171.36 187.122 177.542 184.238 183.298 180.656C185.986 178.983 188.657 176.844 190.702 174.415C191.625 173.319 192.277 172.019 193.219 170.945C194.305 169.705 193.963 168.587 194.45 167.034C195.436 163.892 196.634 161.037 197.171 157.744C197.724 154.353 197.952 150.891 197.799 147.458C197.496 140.673 197.166 134.24 194.182 128.006C191.447 122.293 187.903 116.711 183.69 111.981C182.71 110.881 181.675 109.834 180.472 108.979C179.177 108.058 177.751 107.336 176.579 106.248C175.617 105.356 174.812 104.304 173.806 103.457C172.57 102.417 171.101 101.958 169.654 101.294C168.267 100.658 167.002 99.8303 165.583 99.2512C164.72 98.8992 163.846 98.574 162.946 98.3282C162.281 98.1465 161.397 98.1351 160.789 97.7899C159.827 97.2438 158.842 95.6548 158.214 94.757C157.297 93.4474 156.8 91.9238 156.364 90.4011C155.833 88.5487 155.34 86.6848 154.821 84.8288C154.643 84.1948 153.98 81.9877 155.302 82.5234C155.689 82.6799 156.052 83.3764 156.35 83.6738C156.915 84.2386 157.612 84.7432 158.312 85.1272C159.442 85.7465 160.619 86.4923 161.702 86.9192C162.657 87.2953 163.639 88.0327 164.53 88.5631C164.665 88.6438 164.704 88.9209 164.879 88.9984C165.289 89.1804 165.562 88.6785 165.95 88.8013C166.479 88.9693 166.566 89.4677 166.86 89.8642C167.286 90.439 167.506 90.4848 168.157 90.7806C168.881 91.1097 169.412 91.7601 170.117 92.0826C170.975 92.4738 172.861 92.1702 172.99 93.5197C174.322 92.6503 175.993 94.3384 176.824 95.2142C177.661 93.9305 179.143 95.4335 180.41 95.0074C179.709 95.9806 179.836 95.8839 180.942 96.0042C181.875 96.1062 182.434 96.7255 183.357 97.0853C183.996 97.3344 184.702 97.7533 185.366 97.9288C185.994 98.0949 186.469 97.7226 187.016 97.8158C187.393 97.8798 187.751 98.2057 188.11 98.2946C188.565 98.4076 189.212 98.5449 189.726 98.6668C190.351 98.8152 190.973 98.6789 191.597 98.7969C192.324 98.9345 192.953 99.3675 193.691 99.508C194.515 99.6646 195.372 99.56 196.19 99.7597C196.937 99.9414 197.39 100.151 198.163 100.158C199.317 100.17 200.604 100.322 201.742 100.192C202.348 100.122 202.684 99.8153 203.371 100.116C203.828 100.316 204.102 100.935 204.726 100.651C204.068 100.388 204.646 99.3607 205.372 100.147C205.544 99.7061 205.654 99.46 206.132 99.3152C206.108 99.747 206.038 100.18 206.588 100.271C206.631 99.9702 206.673 99.6702 206.715 99.3695C207.913 100.281 208.197 100.602 209.327 99.4904C209.297 99.8545 209.143 100.266 209.514 100.524C209.75 100.13 209.988 99.7368 210.225 99.3433C210.625 100.613 212.537 100.175 213.463 99.9499C213.823 99.8627 214.815 99.7247 215.05 99.4303C215.212 99.2263 215.192 99.0665 215.253 98.9413C215.306 98.8302 214.697 98.557 215.215 98.3975C215.606 98.2769 215.91 99.1322 216.368 99.0982C216.777 99.0678 216.942 98.3763 217.237 98.2361C217.265 98.223 217.464 98.5152 217.603 98.4511C217.818 98.3518 217.94 98.09 218.177 97.9971C218.691 97.7962 219.356 97.8462 219.932 97.6079C220.662 97.3059 221.398 97.1618 222.143 96.9128C223.088 96.5974 223.516 95.9774 224.283 95.4702C224.463 95.3512 224.65 95.4205 224.827 95.3365C225.065 95.2231 225.314 94.9574 225.597 94.8322C226.485 94.4387 227.244 94.171 228.086 93.6282C228.837 93.1438 229.829 92.7863 230.497 92.2052C231.054 91.7215 231.354 91.0156 231.914 90.5234C232.718 89.8168 234.795 88.9304 234.458 87.5503C235.803 87.7555 236.132 86.8858 236.625 85.9266C237.094 85.0141 238.057 84.7406 238.686 83.9085C238.958 83.549 239.395 83.0502 239.545 82.6397C239.635 82.3956 239.411 82.1407 239.471 81.974C239.75 81.2073 240.826 80.8726 241.324 80.1811C241.958 79.3012 242.162 78.1887 242.69 77.2851C242.794 77.1073 243.051 77.0017 243.15 76.8122C243.213 76.6903 243.081 76.3883 243.158 76.2687C243.342 75.9846 243.632 75.8866 243.817 75.6235C244.266 74.9865 244.347 74.0809 244.75 73.3586C244.849 73.1808 245.195 72.6841 245.238 72.5782C245.384 72.2226 245.34 71.9889 245.415 71.5931C245.437 71.4742 245.667 70.7856 245.714 70.6872C245.862 70.38 246.005 70.3345 246.231 69.9973C246.797 69.1531 247.148 67.8271 247.194 66.8022C247.214 66.3676 247.07 65.9182 247.227 65.5034C247.363 65.1449 247.782 64.9237 247.94 64.5481C248.354 63.5634 248.286 62.1712 248.4 61.1178C248.524 59.9697 248.892 58.8379 248.993 57.6983C249.043 57.1466 248.783 56.658 248.802 56.1383C248.824 55.5432 249.133 55.4321 249.253 54.9369C249.388 54.3715 249.189 53.7202 249.311 53.1139C249.424 52.5498 249.588 52.0279 249.635 51.4494C249.757 49.9427 249.585 48.3665 249.52 46.8592C249.494 46.2742 249.416 45.664 249.571 45.0914C249.696 44.6306 250.205 44.1152 250.188 43.6155C250.136 42.0709 248.899 43.4076 248.189 43.3017C247.362 43.1785 247.21 41.3261 246.993 40.6234C246.46 38.9069 245.928 37.1904 245.396 35.4743C247.933 34.8144 250.57 35.0046 253.16 34.8265C255.704 34.6517 258.189 34.1 260.656 33.4787C262.739 32.9545 265.018 32.6502 266.89 31.5305C268.462 30.5906 269.759 28.5104 268.84 26.6749Z" fill="black"/>
<path fill-rule="evenodd" clip-rule="evenodd" d="M22.5233 59.902C23.5378 59.3752 23.282 58.647 24.0272 57.9705C28.197 54.1846 33.0909 50.8788 37.9955 48.1492C43.1628 45.2731 48.9608 44.0554 54.2423 41.5068C54.9529 41.164 55.8758 40.628 55.6108 39.673C55.301 38.5572 54.2374 39.0707 53.4794 39.3341C50.9532 40.2116 48.2647 40.542 45.7024 41.313C40.2332 42.9585 35.1113 45.7964 30.4783 49.1179C27.7829 51.0497 25.2007 53.1858 22.8989 55.5854C22.0512 56.4684 20.9209 57.4989 20.7004 58.7712C20.4273 60.3459 21.359 60.5067 22.5233 59.902Z" fill="black"/>
<path fill-rule="evenodd" clip-rule="evenodd" d="M38.3181 158.891C38.2939 157.5 36.7769 158.006 35.9966 158.193C32.8239 158.954 29.9879 159.536 27.1803 161.298C21.9695 164.567 18.0215 169.534 15.4671 175.031C15.1268 175.763 13.7574 178.081 14.855 178.771C15.5786 179.226 16.0177 177.901 16.2879 177.409C17.6636 174.904 19.5057 172.688 21.358 170.512C25.4703 165.681 30.4138 162.614 36.3284 160.376C37.054 160.101 38.3364 159.903 38.3181 158.891Z" fill="black"/>
<path fill-rule="evenodd" clip-rule="evenodd" d="M213.663 124.713C212.566 122.507 210.791 119.785 208.336 118.877C206.977 118.374 206.174 119.206 206.577 120.596C206.898 121.701 207.968 122.241 208.767 122.974C210.824 124.861 212.091 127.677 212.842 130.292C213.636 133.057 213.794 136.057 213.78 138.919C213.773 140.43 213.369 141.743 213.15 143.214C213.064 143.792 212.917 145.067 213.582 145.427C215.056 146.227 215.737 142.05 215.887 141.247C216.442 138.284 216.388 135.556 215.921 132.599C215.494 129.894 214.894 127.187 213.663 124.713Z" fill="black"/>
<path fill-rule="evenodd" clip-rule="evenodd" d="M209.447 18.7185C210.047 17.9107 209.61 16.7799 209.788 15.859C209.975 14.8937 210.533 13.9172 211.004 13.0728C212.024 11.2499 213.16 9.45972 214.371 7.75942C215.622 6.00357 217.148 4.50747 218.477 2.82048C218.926 2.24978 219.723 1.43406 219.529 0.747178C219.214 -0.364968 218.529 0.177069 217.98 0.643151C214.981 3.19168 212.339 6.33399 210.205 9.63441C209.192 11.2008 208.235 12.9162 207.9 14.7743C207.727 15.734 207.726 16.7353 208.011 17.6749C208.19 18.2654 208.727 19.689 209.447 18.7185Z" fill="black"/>
<path fill-rule="evenodd" clip-rule="evenodd" d="M24.5733 154.66C26.0765 154.522 27.5883 154.472 29.0951 154.395C30.2104 154.338 31.465 154.406 32.4886 153.869C33.5188 153.33 33.0709 152.521 32.2145 152.401C31.7221 152.332 30.8912 152.664 30.3635 152.687C29.7919 152.712 29.2175 152.694 28.6456 152.697C26.9742 152.703 25.1733 152.69 23.5617 153.245C23.0353 153.426 22.2381 153.706 22.0215 154.307C21.5586 155.593 23.8761 154.725 24.5733 154.66Z" fill="black"/>
<path fill-rule="evenodd" clip-rule="evenodd" d="M37.7361 37.0235C39.9191 36.762 42.0293 36.1083 44.1799 35.6916C46.2249 35.2959 46.573 33.6853 44.1521 33.7575C43.3392 33.7817 35.502 35.2671 37.7361 37.0235Z" fill="black"/>
<path fill-rule="evenodd" clip-rule="evenodd" d="M218.128 117.802C216.661 117.435 217.42 119.061 217.873 119.563C218.713 120.492 219.172 121.188 219.421 122.427C219.566 123.148 219.43 124.777 220.043 125.329C220.646 125.872 220.688 125.511 220.795 124.841C221.097 122.951 220.494 118.394 218.128 117.802Z" fill="black"/>
<path fill-rule="evenodd" clip-rule="evenodd" d="M202.026 14.9532C202.442 14.5132 201.996 12.5999 202.045 12.0392C202.105 11.3598 202.266 10.7849 202.469 10.1473C202.568 9.83815 203.063 8.74695 202.796 8.40813C202.427 7.93849 201.812 8.73211 201.617 9.04452C200.985 10.0612 200.837 11.7565 200.942 12.9014C200.98 13.3158 201.231 15.7949 202.026 14.9532Z" fill="black"/>
<path fill-rule="evenodd" clip-rule="evenodd" d="M115.67 176.294C115.739 175.21 116.783 174.459 116.786 173.307C116.79 172.012 115.918 171.451 114.832 172.292C114.177 172.8 113.667 174.036 112.781 174.198C111.004 174.524 110.307 171.335 108.557 171.704C107.042 172.024 107.838 174.623 108.295 175.501C108.78 176.431 109.66 177.083 109.373 178.227C109.033 179.585 107.866 180.368 108.32 181.919C109.164 184.8 110.994 182.106 112.096 181.201C112.88 180.555 113.354 180.67 114.116 181.303C115.16 182.169 115.957 182.758 117.223 183.342C118.339 183.857 119.416 184.216 119.451 182.488C119.478 181.129 118.451 179.777 117.549 178.855C116.801 178.09 115.593 177.5 115.67 176.294Z" fill="black"/>
<path fill-rule="evenodd" clip-rule="evenodd" d="M96.1115 171.996C94.8055 170.605 93.156 174.153 92.1006 174.546C90.39 175.182 89.9961 171.771 88.4212 171.878C87.1954 171.962 87.2922 173.717 87.5592 174.517C87.8464 175.379 88.7062 176.084 88.8501 176.967C89.0716 178.32 86.509 181.025 88.2972 182.332C89.824 183.448 90.3926 179.677 92.3012 181.216C93.2381 181.971 95.8599 184.781 97.159 183.383C98.694 181.73 95.043 178.907 94.3766 177.65C93.475 175.948 98.0253 174.034 96.1115 171.996Z" fill="black"/>
<path fill-rule="evenodd" clip-rule="evenodd" d="M127.75 123.666C127.375 123.501 126.77 123.774 126.365 123.757C125.93 123.739 125.477 123.541 125.047 123.468C124.115 123.309 122.475 123.539 121.813 122.709C121.138 121.861 121.651 120.161 121.362 119.13C121.205 118.57 121.024 117.878 120.268 118.128C119.392 118.418 119.413 120.026 119.308 120.732C119.154 121.773 119.03 122.566 117.983 122.937C117.207 123.211 116.392 123.073 115.765 123.709C115.306 124.175 114.996 125.026 115.355 125.636C115.895 126.551 117.064 126.077 117.875 126.366C119.112 126.807 118.818 128.826 119.072 129.985C119.234 130.73 119.591 132.816 120.662 132.782C122.121 132.737 121.554 129.807 121.474 128.951C121.392 128.083 121.196 127.347 122.166 127.078C122.984 126.85 124.128 127.273 124.974 127.267C126.042 127.261 127.3 126.993 127.945 126.037C128.313 125.49 128.546 124.017 127.75 123.666Z" fill="black"/>
<path fill-rule="evenodd" clip-rule="evenodd" d="M181.394 159.731C183.715 159.931 182.308 162.788 183.848 163.924C185.318 165.008 185.516 162.017 185.515 161.163C185.514 159.094 188.033 159.859 189.566 159.516C190.874 159.224 192.303 157.867 190.74 156.71C189.613 155.876 187.743 156.263 186.434 156.042C184.659 155.742 185.186 154.559 185.147 153.195C185.133 152.695 184.961 150.912 184.314 150.772C183.13 150.515 183.06 153.835 182.98 154.467C182.643 157.14 180.805 155.511 179.345 156.851C177.436 158.603 180.011 159.611 181.394 159.731Z" fill="black"/>
<path fill-rule="evenodd" clip-rule="evenodd" d="M71.0055 109.894C67.3793 112.863 63.2615 112.437 59.9429 109.241C58.5395 107.889 57.6915 106.527 57.8171 104.549C57.9297 102.769 58.4528 100.802 59.8795 99.6002C61.0807 98.5871 63.3466 98.2237 64.8678 98.0818C66.9998 97.8838 68.9075 99.0433 70.3822 100.492C71.6666 101.754 73.1679 103.362 73.3658 105.235C73.5742 107.206 72.4501 108.71 71.0055 109.894ZM71.557 98.0779C68.3042 94.9486 62.5362 95.2626 59.1781 98.1165C55.4086 101.32 54.7642 107.337 58.3867 110.847C62.2042 114.545 67.2436 114.146 71.2845 111.078C73.4522 109.433 74.6283 107.321 74.9302 104.612C75.2152 102.052 73.3357 99.7888 71.557 98.0779Z" fill="black"/>
<path fill-rule="evenodd" clip-rule="evenodd" d="M134.453 44.2135C134.088 45.3986 134.34 46.6611 134.405 47.8684C133.374 47.2239 132.732 46.0748 131.625 45.5408C131.094 47.0063 133.74 51.1978 135.405 49.8238C136.928 48.5665 135.804 45.0581 134.453 44.2135Z" fill="black"/>
<path fill-rule="evenodd" clip-rule="evenodd" d="M139.863 51.4399C139.042 51.7455 138.279 51.6609 137.47 51.8174C136.936 51.9207 136.867 51.6174 136.797 52.2282C136.65 53.5319 138.755 54.0362 139.704 54.0179C140.861 53.9954 142.129 53.2178 142.018 51.9521C141.901 50.6333 140.755 51.1079 139.863 51.4399Z" fill="black"/>
<path fill-rule="evenodd" clip-rule="evenodd" d="M140.536 45.9607C140.163 45.6228 139.305 44.3469 138.675 44.5652C138.193 44.7325 138.534 45.3087 138.675 45.597C139.205 46.6781 140.246 47.5981 141.077 48.4655C140.461 48.6838 139.276 48.8244 139.589 49.7708C139.877 50.6402 141.181 50.5065 141.806 50.1405C143.947 48.8865 141.607 46.9324 140.536 45.9607Z" fill="black"/>
<path fill-rule="evenodd" clip-rule="evenodd" d="M142.697 43.9083C142.844 44.5054 142.922 45.0689 142.599 45.6287L140.816 42.4333C139.382 43.0216 141.898 47.6253 143.363 47.1157C144.376 46.7634 143.89 44.5995 143.73 43.9188C143.644 43.5544 143.44 42.3954 142.934 42.2778C141.939 42.0464 142.589 43.4681 142.697 43.9083Z" fill="black"/>
<path fill-rule="evenodd" clip-rule="evenodd" d="M69.1256 108.358C68.2986 107.749 66.9279 109.175 66.0534 109.181C64.2858 109.19 65.2483 107.119 64.1422 106.448C63.5654 106.097 61.1504 106.451 61.5319 105.001C61.7612 104.129 62.6586 104.758 63.1503 104.226C63.7673 103.558 62.8879 103.025 62.3406 102.751C62.5807 102.431 63.9645 102.291 64.3123 102.512C64.9123 102.895 64.8776 104.042 65.4282 104.633C66.1427 103.722 65.755 102.577 66.516 101.759C66.8114 101.441 67.6757 101.202 67.3397 100.635C67.1448 100.306 66.2912 100.415 65.9991 100.153C65.7442 99.9244 65.757 99.1878 65.3454 99.1267C64.6732 99.0267 64.6895 100.053 64.4877 100.349C63.8801 101.24 61.2109 100.933 62.3174 102.739C61.5803 102.372 59.5696 102.081 59.9599 103.364C60.0597 103.692 60.4399 103.893 60.5341 104.267C60.6159 104.591 60.4359 105.053 60.4189 105.378C60.3868 105.995 60.3374 106.715 60.7941 107.212C61.4219 107.893 62.2608 107.397 62.934 107.694C63.8517 108.098 63.5209 108.937 64.0048 109.672C64.6385 110.632 65.6127 110.337 66.5098 110.046C67.5795 109.7 67.7487 109.668 68.5312 110.559C68.8891 110.096 69.8696 108.906 69.1256 108.358Z" fill="black"/>
<path fill-rule="evenodd" clip-rule="evenodd" d="M70.5641 104.607C69.7011 104.448 70.041 101.879 68.9908 102.995C68.5969 103.413 69.0003 104.23 68.5609 104.678C68.2659 104.979 67.8916 104.802 67.5965 104.999C67.3309 105.176 67.2638 105.516 67.1074 105.776C67.6626 106.025 68.0918 106.058 68.6846 105.949C68.6846 106.395 68.3879 107.708 69.1498 107.612C69.8584 107.523 69.6582 106.205 70.019 105.795C70.3851 105.378 71.8612 105.572 71.9986 104.986C72.1684 104.261 70.9413 104.677 70.5641 104.607Z" fill="black"/>
</svg>
