<!-- Generated by IcoMoon.io -->
<svg version="1.1" xmlns="http://www.w3.org/2000/svg" width="32" height="32" viewBox="0 0 32 32">
<title>cross</title>
<path d="M26.782 1.65c0.911-0.911 2.388-0.911 3.299 0v0c0.911 0.911 0.911 2.388 0 3.299l-25.132 25.132c-0.911 0.911-2.388 0.911-3.299 0v0c-0.911-0.911-0.911-2.388 0-3.299l25.132-25.132z"></path>
<path d="M1.65 4.949c-0.911-0.911-0.911-2.388 0-3.299v0c0.911-0.911 2.388-0.911 3.299 0l25.132 25.132c0.911 0.911 0.911 2.388 0 3.299v0c-0.911 0.911-2.388 0.911-3.299 0l-25.132-25.132z"></path>
</svg>
