<!-- Generated by IcoMoon.io -->
<svg version="1.1" xmlns="http://www.w3.org/2000/svg" width="32" height="32" viewBox="0 0 32 32">
<title>lock</title>
<path d="M25.12 13.44h-1.92v-5.76c0-4.224-3.456-7.68-7.68-7.68s-7.68 3.456-7.68 7.68v5.76h-1.92c-0.96 0-1.92 0.96-1.92 1.92v13.44c0 0.96 0.96 1.92 1.92 1.92h19.2c0.96 0 1.92-0.96 1.92-1.92v-13.44c0-0.96-0.96-1.92-1.92-1.92zM17.44 26.88h-3.84l0.768-4.224c-0.96-0.384-1.728-1.536-1.728-2.496 0-1.536 1.344-2.88 2.88-2.88s2.88 1.344 2.88 2.88c0 1.152-0.576 2.112-1.728 2.496l0.768 4.224zM19.36 13.44h-7.68v-5.76c0-2.112 1.728-3.84 3.84-3.84s3.84 1.728 3.84 3.84v5.76z"></path>
</svg>
