<!-- Generated by IcoMoon.io -->
<svg version="1.1" xmlns="http://www.w3.org/2000/svg" width="32" height="32" viewBox="0 0 32 32">
<title>mobile-2</title>
<path fill="#000" d="M8.276 0h15.448c1.219 0 2.207 0.988 2.207 2.207v26.798c0 1.219-0.988 2.207-2.207 2.207h-15.448c-1.219 0-2.207-0.988-2.207-2.207v-26.798c0-1.219 0.988-2.207 2.207-2.207z"></path>
<path fill="#fff" d="M8.591 1.419h14.818c0.609 0 1.103 0.494 1.103 1.103v26.167c0 0.609-0.494 1.103-1.103 1.103h-14.818c-0.609 0-1.103-0.494-1.103-1.103v-26.168c0-0.609 0.494-1.103 1.103-1.103z"></path>
<path fill="#000" d="M11.744 1.419h8.512c0 0.784-0.635 1.419-1.419 1.419h-5.675c-0.784 0-1.419-0.635-1.419-1.419v0z"></path>
</svg>
