<!-- Generated by IcoMoon.io -->
<svg version="1.1" xmlns="http://www.w3.org/2000/svg" width="32" height="32" viewBox="0 0 32 32">
<title>name</title>
<path d="M29.023 25.375c-0.737-1.745-1.806-3.331-3.148-4.668-1.338-1.341-2.923-2.41-4.668-3.148-0.016-0.008-0.031-0.012-0.047-0.020 2.434-1.758 4.016-4.621 4.016-7.852 0-5.352-4.336-9.688-9.687-9.688s-9.688 4.336-9.688 9.688c0 3.23 1.582 6.094 4.016 7.856-0.016 0.008-0.031 0.012-0.047 0.020-1.75 0.738-3.32 1.797-4.668 3.148-1.341 1.338-2.41 2.923-3.148 4.668-0.725 1.708-1.116 3.539-1.152 5.395-0.001 0.042 0.006 0.083 0.021 0.122s0.038 0.074 0.067 0.104c0.029 0.030 0.064 0.054 0.102 0.070s0.080 0.024 0.121 0.024h2.344c0.172 0 0.309-0.137 0.313-0.305 0.078-3.016 1.289-5.84 3.43-7.98 2.215-2.215 5.156-3.434 8.289-3.434s6.074 1.219 8.289 3.434c2.141 2.141 3.352 4.965 3.43 7.98 0.004 0.172 0.141 0.305 0.312 0.305h2.344c0.042 0 0.083-0.008 0.121-0.024s0.073-0.040 0.102-0.070c0.029-0.030 0.052-0.065 0.067-0.104s0.023-0.080 0.021-0.122c-0.039-1.867-0.426-3.684-1.152-5.398v0zM15.488 16.406c-1.793 0-3.48-0.699-4.75-1.969s-1.969-2.957-1.969-4.75c0-1.793 0.699-3.48 1.969-4.75s2.957-1.969 4.75-1.969c1.793 0 3.48 0.699 4.75 1.969s1.969 2.957 1.969 4.75c0 1.793-0.699 3.48-1.969 4.75s-2.957 1.969-4.75 1.969z"></path>
</svg>
