<!-- Generated by IcoMoon.io -->
<svg version="1.1" xmlns="http://www.w3.org/2000/svg" width="32" height="32" viewBox="0 0 32 32">
<title>settings</title>
<path d="M15.744 9.999c-1.591 0-3.117 0.632-4.243 1.757s-1.757 2.651-1.757 4.243c0 1.591 0.632 3.117 1.757 4.243s2.651 1.757 4.243 1.757c1.591 0 3.117-0.632 4.243-1.757s1.757-2.651 1.757-4.243c0-1.591-0.632-3.117-1.757-4.243s-2.651-1.757-4.243-1.757zM11.744 15.999c0-1.061 0.421-2.078 1.172-2.828s1.768-1.172 2.828-1.172 2.078 0.421 2.828 1.172c0.75 0.75 1.172 1.768 1.172 2.828s-0.421 2.078-1.172 2.828c-0.75 0.75-1.768 1.172-2.828 1.172s-2.078-0.421-2.828-1.172c-0.75-0.75-1.172-1.768-1.172-2.828v0zM12.139 31.574c1.183 0.282 2.394 0.425 3.61 0.425 1.213-0.001 2.422-0.145 3.602-0.427 0.31-0.075 0.59-0.243 0.801-0.483s0.343-0.538 0.378-0.855l0.27-2.457c0.046-0.439 0.247-0.848 0.567-1.152s0.738-0.484 1.18-0.508c0.294-0.013 0.586 0.042 0.854 0.16l2.246 0.985c0.195 0.088 0.407 0.134 0.621 0.135s0.426-0.042 0.622-0.127c0.198-0.084 0.374-0.209 0.52-0.366 1.651-1.78 2.884-3.906 3.608-6.223 0.095-0.307 0.092-0.637-0.008-0.942s-0.293-0.573-0.552-0.764l-1.995-1.472c-0.238-0.173-0.431-0.399-0.564-0.661s-0.203-0.551-0.203-0.845 0.070-0.583 0.203-0.845c0.133-0.262 0.327-0.488 0.564-0.661l1.989-1.469c0.259-0.192 0.452-0.459 0.553-0.766s0.103-0.636 0.007-0.944c-0.724-2.318-1.959-4.443-3.612-6.222-0.219-0.234-0.505-0.395-0.82-0.459s-0.64-0.030-0.934 0.099l-2.245 0.989c-0.232 0.105-0.485 0.16-0.741 0.16-0.461-0.001-0.905-0.172-1.248-0.48s-0.559-0.732-0.608-1.19l-0.272-2.448c-0.035-0.321-0.169-0.624-0.384-0.865s-0.5-0.409-0.816-0.48c-1.174-0.262-2.372-0.401-3.575-0.415-1.211 0.014-2.418 0.153-3.6 0.416-0.315 0.071-0.6 0.238-0.815 0.478s-0.35 0.542-0.385 0.863l-0.272 2.45c-0.051 0.459-0.27 0.883-0.614 1.19-0.351 0.298-0.794 0.468-1.255 0.48-0.254-0-0.506-0.053-0.738-0.155l-2.24-0.989c-0.295-0.13-0.622-0.165-0.938-0.1s-0.603 0.226-0.822 0.462c-1.651 1.779-2.884 3.904-3.608 6.22-0.096 0.308-0.093 0.638 0.007 0.944s0.294 0.574 0.553 0.765l1.99 1.469c0.356 0.263 0.607 0.643 0.709 1.073s0.050 0.883-0.149 1.278c-0.132 0.262-0.324 0.489-0.56 0.663l-1.992 1.471c-0.259 0.191-0.452 0.459-0.552 0.765s-0.103 0.636-0.008 0.943c0.723 2.318 1.956 4.446 3.608 6.226 0.218 0.236 0.505 0.397 0.819 0.462s0.641 0.030 0.935-0.099l2.254-0.99c0.233-0.102 0.484-0.155 0.738-0.155h0.006c0.459 0.001 0.902 0.17 1.244 0.476s0.56 0.727 0.612 1.183l0.27 2.446c0.035 0.318 0.168 0.617 0.379 0.856s0.492 0.408 0.803 0.482v0zM18.59 29.698c-1.872 0.4-3.808 0.4-5.68 0l-0.243-2.13c-0.106-0.945-0.556-1.818-1.264-2.452s-1.625-0.986-2.576-0.988h-0.008c-0.53-0.002-1.055 0.107-1.541 0.32l-1.957 0.858c-1.269-1.432-2.238-3.104-2.848-4.918l1.732-1.28c0.488-0.36 0.885-0.829 1.158-1.371s0.416-1.139 0.416-1.746c0-0.606-0.142-1.204-0.416-1.746s-0.67-1.011-1.158-1.371l-1.731-1.28c0.611-1.812 1.58-3.482 2.849-4.912l1.946 0.858c0.486 0.216 1.013 0.327 1.545 0.326h0.008c0.953-0.002 1.872-0.355 2.582-0.991s1.16-1.511 1.266-2.459l0.24-2.128c0.939-0.188 1.892-0.289 2.85-0.301 0.95 0.012 1.896 0.112 2.827 0.3l0.24 2.127c0.103 0.947 0.551 1.823 1.26 2.46s1.627 0.99 2.58 0.991c0.537 0.013 1.070-0.1 1.557-0.328l1.944-0.857c1.27 1.43 2.239 3.101 2.85 4.913l-1.726 1.274c-0.492 0.358-0.892 0.828-1.167 1.37s-0.419 1.142-0.419 1.75 0.144 1.208 0.419 1.75c0.276 0.542 0.676 1.012 1.167 1.37l1.732 1.28c-0.612 1.811-1.58 3.481-2.848 4.912l-1.952-0.856c-0.556-0.247-1.162-0.358-1.769-0.326s-1.198 0.208-1.724 0.512c-0.526 0.304-0.973 0.729-1.304 1.238s-0.537 1.091-0.601 1.695l-0.234 2.132z"></path>
</svg>
