<!-- Generated by IcoMoon.io -->
<svg version="1.1" xmlns="http://www.w3.org/2000/svg" width="32" height="32" viewBox="0 0 32 32">
<title>verification</title>
<path d="M16 32c-8.837 0-16-7.163-16-16s7.163-16 16-16c8.837 0 16 7.163 16 16s-7.163 16-16 16zM16 29.867c7.658 0 13.867-6.208 13.867-13.867s-6.208-13.867-13.867-13.867c-7.658 0-13.867 6.208-13.867 13.867s6.208 13.867 13.867 13.867z"></path>
<path d="M9.638 15.515l5.993 5.031-1.262 1.503-5.993-5.031 1.262-1.503z"></path>
<path d="M13.807 19.674l8.097-9.721 1.508 1.256-8.097 9.721-1.508-1.256z"></path>
</svg>
