<svg width="272" height="272" viewBox="0 0 272 272" fill="none" xmlns="http://www.w3.org/2000/svg">
<g clip-path="url(#clip0_147_11)">
<path d="M271.1 0H0V271.1H271.1V0Z" fill="#F4F1DE"/>
<path d="M213.6 227.9H57.5C57.5 227.9 61.5 190.7 71.4 182.7C75.8 179.2 90.5 169.7 104.7 160.8C123.5 149 147.5 149 166.3 160.8C180.5 169.7 195.2 179.1 199.6 182.7C209.6 190.7 213.6 227.9 213.6 227.9Z" fill="#3D405B" stroke="#3D405B" stroke-width="1.9903" stroke-miterlimit="10"/>
<path d="M164.2 160.5L163.9 160.7C146.9 172.9 124 172.8 107 160.5C109.1 159.6 112.3 158.4 116.3 153.9C120.3 149.4 118.8 136.5 118.8 136.5H152.5C152.5 136.5 151 149.4 155 153.9C158.9 158.5 162.1 159.6 164.2 160.5Z" fill="white"/>
<path d="M164.2 160.5C135.9 159.7 121.7 140.8 118.8 136.5L152.4 136.8C152.2 138.8 151.3 149.8 154.9 153.9C158.9 158.5 162.1 159.6 164.2 160.5Z" fill="#D8D8D8"/>
<path d="M164.2 160.5L163.9 160.7C146.9 172.9 124 172.8 107 160.5C109.1 159.6 112.3 158.4 116.3 153.9C120.3 149.4 118.8 136.5 118.8 136.5H152.5C152.5 136.5 151 149.4 155 153.9C158.9 158.5 162.1 159.6 164.2 160.5Z" stroke="#3D405B" stroke-width="1.9903" stroke-miterlimit="10" stroke-linecap="round" stroke-linejoin="round"/>
<path d="M106 105.2C105.6 103 103.4 101.4 101.1 101.5C98.8999 101.6 96.8999 103.2 95.9999 105.3C95.1999 107.4 95.4 109.8 96.3 111.8C97.2 113.8 98.7999 115.5 100.6 116.8C101.7 117.7 103.1 118.4 104.5 118.4C105.9 118.4 107.4 117.4 107.5 115.9C107.5 115.9 106 105.2 106 105.2Z" fill="white" stroke="#3D405B" stroke-width="1.9903" stroke-miterlimit="10" stroke-linecap="round" stroke-linejoin="round"/>
<path d="M100.3 104.9C102.3 105 104.2 106.4 104.8 108.3C104.3 109.2 103.6 110.5 103.6 111.6C103.6 112.7 104.3 113.9 105.4 113.9" fill="white"/>
<path d="M100.3 104.9C102.3 105 104.2 106.4 104.8 108.3C104.3 109.2 103.6 110.5 103.6 111.6C103.6 112.7 104.3 113.9 105.4 113.9" stroke="#3D405B" stroke-width="1.9903" stroke-miterlimit="10" stroke-linecap="round" stroke-linejoin="round"/>
<path d="M164.9 105.2C165.3 103 167.5 101.4 169.8 101.5C172 101.6 174 103.2 174.9 105.3C175.7 107.4 175.5 109.8 174.6 111.8C173.7 113.8 172.1 115.5 170.3 116.8C169.2 117.7 167.8 118.4 166.4 118.4C165 118.4 163.5 117.4 163.4 115.9C163.4 115.9 164.9 105.2 164.9 105.2Z" fill="white" stroke="#3D405B" stroke-width="1.9903" stroke-miterlimit="10" stroke-linecap="round" stroke-linejoin="round"/>
<path d="M170.6 104.9C168.6 105 166.7 106.4 166.1 108.3C166.6 109.2 167.3 110.5 167.3 111.6C167.3 112.7 166.6 113.9 165.5 113.9" fill="white"/>
<path d="M170.6 104.9C168.6 105 166.7 106.4 166.1 108.3C166.6 109.2 167.3 110.5 167.3 111.6C167.3 112.7 166.6 113.9 165.5 113.9" stroke="#3D405B" stroke-width="1.9903" stroke-miterlimit="10" stroke-linecap="round" stroke-linejoin="round"/>
<path d="M171.3 96.2C171.3 118.8 156 145.5 137 145.9C136.9 145.9 136.9 145.9 136.8 145.9C136.7 145.9 136.7 145.9 136.6 145.9C117.6 145.6 102.3 118.8 102.3 96.2C102.3 73.6 117.6 57.6 136.6 57.4H137C156 57.6 171.3 73.6 171.3 96.2Z" fill="white" stroke="#3D405B" stroke-width="1.9903" stroke-miterlimit="10" stroke-linecap="round" stroke-linejoin="round"/>
<path d="M135.4 146.4H135.2C135.2 146.4 135.3 146.4 135.4 146.4Z" fill="white" stroke="#3D405B" stroke-width="1.9903" stroke-miterlimit="10" stroke-linecap="round" stroke-linejoin="round"/>
<path d="M193.8 178.2C187 172 185.6 153.3 185.6 153.3L175 73.2C174.8 71.5 174 69.9 172.7 68.6C167.1 63 150 43.5 135.9 43.1C135.8 43.1 135.7 43.1 135.7 43.1C135.6 43.1 135.5 43.1 135.5 43.1C121.4 43.5 104.3 63 98.7 68.6C97.5 69.8 96.7 71.5 96.4 73.2L84.6 163C83.8 168.8 81.5 174.2 77.9 178.8C77.8 179.7 83.9 183.2 88.6 195C97.3 216.8 105.1 214.6 107 213.7C107 213.7 120.3 211.1 130.1 199.4L130.6 198.5C142 202.4 149.1 204.7 157.1 204.7C177 204.8 197 181.1 193.8 178.2ZM167.2 120.2C164.4 126.5 157.4 135.4 157.4 135.4C154 139.2 149.5 142.8 143.8 144.9C141.1 145.9 134.4 146.4 129.9 144.7C126.4 143.5 116.6 136.7 111.8 130.3C110.7 125.5 108.9 120 106.1 113.8C99.1 98 106.4 83.6 114.8 72.3C115 72.1 115.2 71.8 115.5 71.4C120.4 64.4 133.8 55.2 135.7 54C137.6 55.3 151 64.5 155.9 71.4C156.2 71.8 156.4 72.1 156.6 72.3C165.1 83.7 174.1 104.5 167.2 120.2Z" fill="#E07A5F" stroke="#3D405B" stroke-width="1.9903" stroke-miterlimit="10" stroke-linecap="round" stroke-linejoin="round"/>
<path d="M161.6 78.5C161.6 78.5 174.4 98 170 115.2C170 115.2 168.4 127 152 139.2C152 139.2 167.4 124.2 166.1 95.7C165.6 84.4 161.6 78.5 161.6 78.5Z" fill="#3D405B"/>
<path d="M111.7 76.1C111.7 76.1 129.3 48.1 136.2 48.1C136.2 48.1 144.9 51.8 160.8 77.3C160.8 77.3 154.4 64.2 139.1 62.8C132.1 62.3 120.1 62.4 111.7 76.1Z" fill="#3D405B"/>
<path d="M107.8 82.7999C107.8 82.7999 96.4 99.0999 108.8 120.4L108.3 117.2C106.8 107.5 106.4 97.5999 107.4 87.7999L107.8 82.7999Z" fill="#3D405B"/>
<path d="M108.7 115.4C111.2 124.4 116.2 135.8 116.2 145.1C116.2 145.2 116.2 145.3 116.2 145.4C116.2 155 113.7 164.7 113.7 164.7C113.7 164.7 118.1 147.8 111 136.1C94.4999 108.9 94.0999 96.9 99.3999 91.3C113.2 76.5 116.4 70.2 116.4 70.2C116.4 70.2 101.2 88.4 108.7 115.4Z" fill="#E07A5F" stroke="#3D405B" stroke-width="1.9903" stroke-miterlimit="10" stroke-linecap="round" stroke-linejoin="round"/>
<path d="M114.4 132.7C120.6 141.5 139.1 156.8 167.7 143.2" stroke="#3D405B" stroke-width="1.9903" stroke-miterlimit="10" stroke-linecap="round" stroke-linejoin="round"/>
<path d="M115.7 152.9C115.6 153.5 120.8 144.1 129.1 144.7C129.1 144.7 119.8 140.4 113.6 131.8C113.6 131.7 117.4 137.2 115.7 152.9Z" fill="#3D405B"/>
<path d="M113.5 74.2999C109.9 80.3999 104 86.6999 98.5999 92.0999C94.5999 95.9999 95.9999 101.1 97.0999 106.6C97.3999 102.4 99.5999 98.2999 103.2 96.0999C103.6 95.8999 104 95.6999 104.4 95.4999C105.2 95.1999 107.1 96.3999 106.7 100.2C107.1 91.5999 110.5 79.6999 113.5 74.2999Z" fill="#3D405B"/>
<path d="M102.2 209.3C105.8 204.8 107.2 198.6 109.6 187.8L114.9 157.9" stroke="#3D405B" stroke-width="1.9903" stroke-miterlimit="10" stroke-linecap="round" stroke-linejoin="round"/>
<path d="M110.1 188C117.1 192.8 124.7 196.6 132.8 199.1Z" fill="white"/>
<path d="M110.1 188C117.1 192.8 124.7 196.6 132.8 199.1" stroke="#3D405B" stroke-width="1.9903" stroke-miterlimit="10" stroke-linecap="round" stroke-linejoin="round"/>
<path d="M117.2 144.4C124.5 150.3 132.5 155.3 141 159.3C161.9 169.2 177.1 157.1 178.6 143.5C180.3 128.2 180.5 122.7 179.7 111" stroke="#3D405B" stroke-width="1.9903" stroke-miterlimit="10" stroke-linecap="round" stroke-linejoin="round"/>
<path d="M123.5 100.1C123.5 100.2 123.5 100.3 123.4 100.4C123.1 101.5 122.3 102.1 121.5 102.2C120.8 102.3 120 102 119.3 101.4C118.9 101 118.7 100.7 118.9 100.9C120 101.4 121.5 100.9 122.7 100.3L123.5 100.1Z" fill="#3D405B"/>
<path d="M123.7 104.7C124.97 104.7 126 103.67 126 102.4C126 101.13 124.97 100.1 123.7 100.1C122.43 100.1 121.4 101.13 121.4 102.4C121.4 103.67 122.43 104.7 123.7 104.7Z" fill="#3D405B"/>
<path d="M149.8 100C149.8 100.1 149.8 100.2 149.9 100.2C150.2 101.1 151 101.6 151.9 101.8C152.6 101.9 153.4 101.7 154 101.2C154.4 100.9 154.6 100.7 154.3 100.8C153.2 101.2 151.7 100.7 150.5 100.2L149.8 100Z" fill="#3D405B"/>
<path d="M149.5 104.7C150.77 104.7 151.8 103.67 151.8 102.4C151.8 101.13 150.77 100.1 149.5 100.1C148.23 100.1 147.2 101.13 147.2 102.4C147.2 103.67 148.23 104.7 149.5 104.7Z" fill="#3D405B"/>
<path d="M116.5 95.9L117.3 95.3C119.2 93.8 121.6 93.1 124 93.4C125.7 93.6 127.4 94.2 128.9 95.1" stroke="#3D405B" stroke-width="1.9903" stroke-miterlimit="10" stroke-linecap="round" stroke-linejoin="round"/>
<path d="M142.5 128.4C140.6 129.9 138.2 130.6 135.8 130.3C134.1 130.1 132.4 129.5 130.9 128.6" stroke="#3D405B" stroke-width="1.9903" stroke-miterlimit="10" stroke-linecap="round" stroke-linejoin="round"/>
<path d="M140.8 118.5C140.3 119.9 138.8 121 137.8 121.5C137.1 121.9 136.3 121.9 135.6 121.5C134.6 120.9 133.1 119.9 132.6 118.5C132.6 118.5 135.4 119.4 136.7 119.4C138 119.4 140.7 118.5 140.8 118.5Z" fill="#3D405B"/>
<path d="M156.8 95.9L156 95.3C154.1 93.8 151.7 93.1 149.3 93.4C147.6 93.6 145.9 94.2 144.4 95.1" stroke="#3D405B" stroke-width="1.9903" stroke-miterlimit="10" stroke-linecap="round" stroke-linejoin="round"/>
<path d="M156.8 95.9L156 95.3C154.1 93.8 151.7 93.1 149.3 93.4C147.6 93.6 145.9 94.2 144.4 95.1" stroke="#3D405B" stroke-width="1.9903" stroke-miterlimit="10" stroke-linecap="round" stroke-linejoin="round"/>
</g>
<defs>
<clipPath id="clip0_147_11">
<rect width="271.1" height="271.1" fill="white"/>
</clipPath>
</defs>
</svg>
