<svg width="272" height="272" viewBox="0 0 272 272" fill="none" xmlns="http://www.w3.org/2000/svg">
<g clip-path="url(#clip0_147_245)">
<path d="M271.1 0H0V271.1H271.1V0Z" fill="#F4F1DE"/>
<path d="M213.6 228.5H57.5C57.5 228.5 61.5 191.3 71.4 183.3C75.8 179.8 90.5 170.3 104.7 161.4C123.5 149.6 147.5 149.6 166.3 161.4C180.5 170.3 195.2 179.7 199.6 183.3C209.6 191.3 213.6 228.5 213.6 228.5Z" fill="#3D405B" stroke="#3D405B" stroke-width="1.9903" stroke-miterlimit="10" stroke-linecap="round" stroke-linejoin="round"/>
<path d="M165.7 104.8C146.1 104.5 125.7 105.1 106.1 104.8C105.3 103.8 103.2 103.2 102.2 102.5C99.6 100.7 98.1 96.5 98.7 93.4C94.8 89.2 94.1 82.7 96.1 77.3C98.1 72 102.4 67.7 107.2 64.5C109.7 57.5 115.3 51.5 121.9 47.9C128.5 44.3 136.1 42.8 143.7 42.6C147.8 42.5 152 42.9 155.7 44.7C159.4 46.5 162.3 50.2 162.4 54.2C166.2 56.5 169.4 60.6 171.2 64.7C172.9 68.8 172.8 73.8 170.1 77.3C172.1 81.6 171.9 87.1 170.7 91.7C169.7 95.6 167.6 99.1 165.5 102.5C165.6 103.3 165.7 103.9 165.7 104.8Z" fill="#3D405B"/>
<path d="M164.1 161.4L163.8 161.6C146.8 173.8 123.9 173.7 106.9 161.4C109 160.5 112.2 159.3 116.2 154.8C120.2 150.3 118.7 137.4 118.7 137.4H152.4C152.4 137.4 150.9 150.3 154.9 154.8C158.8 159.3 162 160.4 164.1 161.4Z" fill="white"/>
<path opacity="0.2" d="M163 161C134.7 160.2 121.1 142.2 118.2 137.9L120.6 140.5C123.8 144 128.3 146.1 133 146.1H134.2H134.6H135.8C140.5 146.1 145.1 144 148.3 140.5L151.2 137.3C151 139.3 150.1 150.3 153.7 154.4C157.7 158.9 160.9 160 163 161Z" fill="#4A4C56"/>
<path d="M164.1 161.4L163.8 161.6C146.8 173.8 123.9 173.7 106.9 161.4C109 160.5 112.2 159.3 116.2 154.8C120.2 150.3 118.7 137.4 118.7 137.4H152.4C152.4 137.4 150.9 150.3 154.9 154.8C158.8 159.3 162 160.4 164.1 161.4Z" stroke="#3D405B" stroke-width="2.3884" stroke-miterlimit="10" stroke-linecap="round" stroke-linejoin="round"/>
<path d="M106.7 105.9C106.3 103.7 104.1 102.1 101.8 102.2C99.6 102.3 97.6 103.9 96.7 106C95.9 108.1 96.1 110.5 97 112.5C97.9 114.5 99.5 116.2 101.3 117.5C102.4 118.4 103.8 119.1 105.2 119.1C106.6 119.1 108.1 118.1 108.2 116.6C108.1 116.5 106.7 105.9 106.7 105.9Z" fill="white" stroke="#3D405B" stroke-width="2.3884" stroke-miterlimit="10" stroke-linecap="round" stroke-linejoin="round"/>
<path d="M100.9 105.5C102.9 105.6 104.8 107 105.4 108.9C104.9 109.8 104.2 111.1 104.2 112.2C104.2 113.3 104.9 114.5 106 114.5" stroke="#3D405B" stroke-width="2.3884" stroke-miterlimit="10" stroke-linecap="round" stroke-linejoin="round"/>
<path d="M164.4 105.9C164.8 103.7 167 102.1 169.3 102.2C171.5 102.3 173.5 103.9 174.4 106C175.2 108.1 175 110.5 174.1 112.5C173.2 114.5 171.6 116.2 169.8 117.5C168.7 118.4 167.3 119.1 165.9 119.1C164.5 119.1 163 118.1 162.9 116.6C162.9 116.5 164.4 105.9 164.4 105.9Z" fill="white" stroke="#3D405B" stroke-width="2.3884" stroke-miterlimit="10" stroke-linecap="round" stroke-linejoin="round"/>
<path d="M170.1 105.5C168.1 105.6 166.2 107 165.6 108.9C166.1 109.8 166.8 111.1 166.8 112.2C166.8 113.3 166.1 114.5 165 114.5" stroke="#3D405B" stroke-width="2.3884" stroke-miterlimit="10" stroke-linecap="round" stroke-linejoin="round"/>
<path d="M138 58.2001C153.6 59.3001 166.1 71.9001 167.1 87.5001C167.3 91.6001 162.7 122.6 162.7 122.6C162.4 125.1 161.3 127.4 159.6 129.3L149.5 140.5C146.3 144 141.8 146.1 137 146.1H135.8H135.4H134.2C129.4 146.1 124.9 144 121.7 140.5L111.6 129.3C109.9 127.4 108.8 125.1 108.5 122.6C108.5 122.6 103.8 91.6001 104.1 87.5001C105 71.9001 117.6 59.3001 133.2 58.2001H138V58.2001Z" fill="white" stroke="#3D405B" stroke-width="2.3884" stroke-miterlimit="10" stroke-linecap="round" stroke-linejoin="round"/>
<path d="M115.5 77.1C112.6 78.2 110.1 81.4 108.7 84.2C106.8 88 108.2 101.9 108.2 101.9C108.2 101.9 106.8 110.2 106.6 108.9C105.7 102.2 103.2 101.4 101.9 101.7C100.4 95.5 98.9 89.2 99.6 82.9C100.4 76.6 104.5 69.8 110.4 67.4L115.5 77.1Z" fill="#3D405B"/>
<path d="M155.2 77.1C158.1 78.2 160.6 81.4 162 84.2C163.9 88 162.5 101.9 162.5 101.9C162.5 101.9 163.9 110.2 164.1 108.9C165 102.2 167.5 101.4 168.8 101.7C170.3 95.5 171.8 89.2 171.1 82.9C170.3 76.6 166.2 69.8 160.3 67.4L155.2 77.1Z" fill="#3D405B"/>
<path d="M158.6 93.9C154.7 92.1 150.1 91.4 147.1 88.3C144.6 85.8 144.1 81.9 142.2 78.9C139.7 74.9 135 72.7 130.3 72.6C125.6 72.5 121.5 73.3 117.6 75.9C114.6 73.2 109.7 68.2 109.6 67.9C115.8 62.8 122.4 58.1 130.2 56.1C138 54.1 146.6 54.6 153.7 58.5C156.1 59.8 158.3 61.5 160 63.6C161.9 66 163.1 68.8 164.2 71.7C166.2 77.1 167.8 82.8 168.2 88.5C168.6 94.3 167.7 100.2 164.9 105.3C164.9 105.1 166.2 97.5 158.6 93.9Z" fill="#3D405B"/>
<path d="M122.7 105.3C123.97 105.3 125 104.27 125 103C125 101.73 123.97 100.7 122.7 100.7C121.43 100.7 120.4 101.73 120.4 103C120.4 104.27 121.43 105.3 122.7 105.3Z" fill="#3D405B"/>
<path d="M148.5 105.3C149.77 105.3 150.8 104.27 150.8 103C150.8 101.73 149.77 100.7 148.5 100.7C147.23 100.7 146.2 101.73 146.2 103C146.2 104.27 147.23 105.3 148.5 105.3Z" fill="#3D405B"/>
<path d="M115.5 96.5001L116.3 95.9001C118.2 94.4001 120.6 93.7001 123 94.0001C124.7 94.2001 126.4 94.8001 127.9 95.7001" stroke="#3D405B" stroke-width="1.9903" stroke-miterlimit="10" stroke-linecap="round" stroke-linejoin="round"/>
<path d="M141.4 129C139.5 130.5 137.1 131.2 134.7 130.9C133 130.7 131.3 130.1 129.8 129.2" stroke="#3D405B" stroke-width="1.9903" stroke-miterlimit="10" stroke-linecap="round" stroke-linejoin="round"/>
<path d="M139.7 119.1C139.2 120.5 137.7 121.6 136.7 122.1C136 122.5 135.2 122.5 134.5 122.1C133.5 121.5 132 120.5 131.5 119.1C131.5 119.1 134.3 120 135.6 120C137 120.1 139.7 119.1 139.7 119.1Z" fill="#3D405B"/>
<path d="M155.7 96.5001L154.9 95.9001C153 94.4001 150.6 93.7001 148.2 94.0001C146.5 94.2001 144.8 94.8001 143.3 95.7001" stroke="#3D405B" stroke-width="1.9903" stroke-miterlimit="10" stroke-linecap="round" stroke-linejoin="round"/>
<path d="M155.7 96.5001L154.9 95.9001C153 94.4001 150.6 93.7001 148.2 94.0001C146.5 94.2001 144.8 94.8001 143.3 95.7001" stroke="#3D405B" stroke-width="1.9903" stroke-miterlimit="10" stroke-linecap="round" stroke-linejoin="round"/>
</g>
<defs>
<clipPath id="clip0_147_245">
<rect width="271.1" height="271.1" fill="white"/>
</clipPath>
</defs>
</svg>
